solid aibo-ers7
facet normal 0.9995983409482093 -0.0007418552570633521 -0.028330309288203775
outer loop
vertex 0.586007152067514 -0.47419537190344524 0.6037327154023485
vertex 0.589404639332864 -0.5950159690613244 0.7267724603460889
vertex 0.5860071520675124 -0.5981528802004161 0.6069786569925232
endloop
endfacet
facet normal 0.9995983409482093 -0.0007418552570633521 -0.028330309288203775
outer loop
vertex 0.589404639332864 -0.5950159690613244 0.7267724603460889
vertex 0.586007152067514 -0.47419537190344524 0.6037327154023485
vertex 0.5894046393328648 -0.47105846076435637 0.7235265187559132
endloop
endfacet
facet normal -0.9995983409482099 0.0007418552570627961 0.028330309288183503
outer loop
vertex 0.4194600619048419 -0.5949023107273915 0.7311128970051979
vertex 0.4160595084189373 -0.47408454462101823 0.6079650385663252
vertex 0.41605950841893646 -0.5980420529179863 0.6112109801565008
endloop
endfacet
facet normal -0.9995983409482099 0.0007418552570627961 0.028330309288183503
outer loop
vertex 0.4160595084189373 -0.47408454462101823 0.6079650385663252
vertex 0.4194600619048419 -0.5949023107273915 0.7311128970051979
vertex 0.4194600619048437 -0.47094480243042314 0.7278669554150219
endloop
endfacet
facet normal 0.9995983409481902 -0.0007418552570808755 -0.02833030928887345
outer loop
vertex 0.5894046393328648 -0.47105846076435637 0.7235265187559132
vertex 0.5894077055534245 -0.5950131380098199 0.7268805738412198
vertex 0.589404639332864 -0.5950159690613244 0.7267724603460889
endloop
endfacet
facet normal 0.9995983409481902 -0.0007418552570808755 -0.02833030928887345
outer loop
vertex 0.5894077055534245 -0.5950131380098199 0.7268805738412198
vertex 0.5894046393328648 -0.47105846076435637 0.7235265187559132
vertex 0.5894077055534266 -0.47105562971285087 0.7236346322510442
endloop
endfacet
facet normal -7.352370810656833e-15 -0.9996573249755574 0.026176948307872795
outer loop
vertex 0.5860071520675124 -0.5981528802004161 0.6069786569925232
vertex 0.4194600619048419 -0.5949023107273915 0.7311128970051979
vertex 0.41605950841893646 -0.5980420529179863 0.6112109801565008
endloop
endfacet
facet normal -7.352370810656833e-15 -0.9996573249755574 0.026176948307872795
outer loop
vertex 0.4194600619048419 -0.5949023107273915 0.7311128970051979
vertex 0.5860071520675124 -0.5981528802004161 0.6069786569925232
vertex 0.589404639332864 -0.5950159690613244 0.7267724603460889
endloop
endfacet
facet normal -0.024904498307255166 -0.02616882913158228 -0.9993472661422285
outer loop
vertex 0.5860071520675124 -0.5981528802004161 0.6069786569925232
vertex 0.4160595084189373 -0.47408454462101823 0.6079650385663252
vertex 0.586007152067514 -0.47419537190344524 0.6037327154023485
endloop
endfacet
facet normal -0.024904498307255166 -0.02616882913158228 -0.9993472661422285
outer loop
vertex 0.4160595084189373 -0.47408454462101823 0.6079650385663252
vertex 0.5860071520675124 -0.5981528802004161 0.6069786569925232
vertex 0.41605950841893646 -0.5980420529179863 0.6112109801565008
endloop
endfacet
facet normal 6.824368602488321e-15 0.9996573249755574 -0.026176948307872684
outer loop
vertex 0.4194600619048437 -0.47094480243042314 0.7278669554150219
vertex 0.586007152067514 -0.47419537190344524 0.6037327154023485
vertex 0.4160595084189373 -0.47408454462101823 0.6079650385663252
endloop
endfacet
facet normal 6.824368602488321e-15 0.9996573249755574 -0.026176948307872684
outer loop
vertex 0.586007152067514 -0.47419537190344524 0.6037327154023485
vertex 0.4194600619048437 -0.47094480243042314 0.7278669554150219
vertex 0.5894046393328648 -0.47105846076435637 0.7235265187559132
endloop
endfacet
facet normal 0.025540727346270928 0.02616840892699637 0.9993312191765316
outer loop
vertex 0.4194600619048419 -0.5949023107273915 0.7311128970051979
vertex 0.5894046393328648 -0.47105846076435637 0.7235265187559132
vertex 0.4194600619048437 -0.47094480243042314 0.7278669554150219
endloop
endfacet
facet normal 0.025540727346270928 0.02616840892699637 0.9993312191765316
outer loop
vertex 0.5894046393328648 -0.47105846076435637 0.7235265187559132
vertex 0.4194600619048419 -0.5949023107273915 0.7311128970051979
vertex 0.589404639332864 -0.5950159690613244 0.7267724603460889
endloop
endfacet
facet normal -0.026176948307873593 -0.026167978121471102 -0.9993147673772871
outer loop
vertex 0.6393876226008364 -0.40061688106492754 0.7203726419309282
vertex 0.36948014485743563 -0.665341059375316 0.7343748873253115
vertex 0.3694801448574389 -0.40043186825679283 0.7274379960237264
endloop
endfacet
facet normal -0.026176948307873593 -0.026167978121471102 -0.9993147673772871
outer loop
vertex 0.36948014485743563 -0.665341059375316 0.7343748873253115
vertex 0.6393876226008364 -0.40061688106492754 0.7203726419309282
vertex 0.6393876226008349 -0.6655260721834496 0.7273095332325137
endloop
endfacet
facet normal -0.9996573249755573 0.0006852326227234938 0.026167978121473482
outer loop
vertex 0.3765562045524659 -0.6582674244692116 1.0045061060190923
vertex 0.3694801448574389 -0.40043186825679283 0.7274379960237264
vertex 0.36948014485743563 -0.665341059375316 0.7343748873253115
endloop
endfacet
facet normal -0.9996573249755573 0.0006852326227234938 0.026167978121473482
outer loop
vertex 0.3694801448574389 -0.40043186825679283 0.7274379960237264
vertex 0.3765562045524659 -0.6582674244692116 1.0045061060190923
vertex 0.3772152493279874 -0.3926994144133547 1.0227284948899684
endloop
endfacet
facet normal -0.9995516661301331 0.0007837654324001509 0.029930794313253052
outer loop
vertex 0.3772152493279874 -0.3926994144133547 1.0227284948899684
vertex 0.3765562045524659 -0.6582674244692116 1.0045061060190923
vertex 0.3772152493279852 -0.6566991128397782 1.029641570287253
endloop
endfacet
facet normal 0.00047274682982229195 -0.9990217070420668 0.0442199657303111
outer loop
vertex 0.646463682295867 -0.6584524372773461 0.9974407519262942
vertex 0.3772152493279852 -0.6566991128397782 1.029641570287253
vertex 0.3765562045524659 -0.6582674244692116 1.0045061060190923
endloop
endfacet
facet normal 0.0009453394600482849 -0.9980602302287657 0.06224855957376437
outer loop
vertex 0.3772152493279852 -0.6566991128397782 1.029641570287253
vertex 0.646463682295867 -0.6584524372773461 0.9974407519262942
vertex 0.6471227270713997 -0.6568841256478812 1.0225762161949379
endloop
endfacet
facet normal 0.9996573249755575 -0.000685232622719573 -0.026167978121471515
outer loop
vertex 0.6393876226008364 -0.40061688106492754 0.7203726419309282
vertex 0.646463682295867 -0.6584524372773461 0.9974407519262942
vertex 0.6393876226008349 -0.6655260721834496 0.7273095332325137
endloop
endfacet
facet normal 0.9996573249755575 -0.000685232622719573 -0.026167978121471515
outer loop
vertex 0.646463682295867 -0.6584524372773461 0.9974407519262942
vertex 0.6393876226008364 -0.40061688106492754 0.7203726419309282
vertex 0.6471227270713871 -0.39288442722148836 1.0156631407971697
endloop
endfacet
facet normal 0.9996573249755575 -0.000685232622719573 -0.026167978121471515
outer loop
vertex 0.646463682295867 -0.6584524372773461 0.9974407519262942
vertex 0.6471227270713871 -0.39288442722148836 1.0156631407971697
vertex 0.6471227270713997 -0.6568841256478812 1.0225762161949379
endloop
endfacet
facet normal -8.511649326849251e-15 -0.9996573249755574 0.02617694830787306
outer loop
vertex 0.36948014485743563 -0.665341059375316 0.7343748873253115
vertex 0.646463682295867 -0.6584524372773461 0.9974407519262942
vertex 0.3765562045524659 -0.6582674244692116 1.0045061060190923
endloop
endfacet
facet normal 0.00047274682982229195 -0.9990217070420668 0.0442199657303111
outer loop
vertex 0.646463682295867 -0.6584524372773461 0.9974407519262942
vertex 0.36948014485743563 -0.665341059375316 0.7343748873253115
vertex 0.6393876226008349 -0.6655260721834496 0.7273095332325137
endloop
endfacet
facet normal 8.99381556382573e-15 0.9996573249755574 -0.02617694830787263
outer loop
vertex 0.378049737252852 -0.39205167351004216 1.047464722011166
vertex 0.3694801448574389 -0.40043186825679283 0.7274379960237264
vertex 0.3772152493279874 -0.3926994144133547 1.0227284948899684
endloop
endfacet
facet normal 8.99381556382573e-15 0.9996573249755574 -0.02617694830787263
outer loop
vertex 0.3694801448574389 -0.40043186825679283 0.7274379960237264
vertex 0.378049737252852 -0.39205167351004216 1.047464722011166
vertex 0.6393876226008364 -0.40061688106492754 0.7203726419309282
endloop
endfacet
facet normal 8.99381556382573e-15 0.9996573249755574 -0.02617694830787263
outer loop
vertex 0.6393876226008364 -0.40061688106492754 0.7203726419309282
vertex 0.378049737252852 -0.39205167351004216 1.047464722011166
vertex 0.3792568301926736 -0.3914043350984454 1.072185578593845
endloop
endfacet
facet normal 8.99381556382573e-15 0.9996573249755574 -0.02617694830787263
outer loop
vertex 0.6393876226008364 -0.40061688106492754 0.7203726419309282
vertex 0.3792568301926736 -0.3914043350984454 1.072185578593845
vertex 0.3808362542936709 -0.39075754604055973 1.0968854562046741
endloop
endfacet
facet normal 8.99381556382573e-15 0.9996573249755574 -0.02617694830787263
outer loop
vertex 0.6393876226008364 -0.40061688106492754 0.7203726419309282
vertex 0.3808362542936709 -0.39075754604055973 1.0968854562046741
vertex 0.38278765123108516 -0.39011145307374795 1.1215587511698186
endloop
endfacet
facet normal 8.99381556382573e-15 0.9996573249755574 -0.02617694830787263
outer loop
vertex 0.6393876226008364 -0.40061688106492754 0.7203726419309282
vertex 0.38278765123108516 -0.39011145307374795 1.1215587511698186
vertex 0.3851105782904999 -0.38946620277745386 1.1461998658462658
endloop
endfacet
facet normal 8.99381556382573e-15 0.9996573249755574 -0.02617694830787263
outer loop
vertex 0.6393876226008364 -0.40061688106492754 0.7203726419309282
vertex 0.3851105782904999 -0.38946620277745386 1.1461998658462658
vertex 0.38780450846826714 -0.38882194153993727 1.170803209891763
endloop
endfacet
facet normal 8.99381556382573e-15 0.9996573249755574 -0.02617694830787263
outer loop
vertex 0.6393876226008364 -0.40061688106492754 0.7203726419309282
vertex 0.38780450846826714 -0.38882194153993727 1.170803209891763
vertex 0.39086883059107747 -0.3881788155250781 1.1953632015331028
endloop
endfacet
facet normal 8.99381556382573e-15 0.9996573249755574 -0.02617694830787263
outer loop
vertex 0.6393876226008364 -0.40061688106492754 0.7203726419309282
vertex 0.39086883059107747 -0.3881788155250781 1.1953632015331028
vertex 0.3943028494546032 -0.38753697063919984 1.2198742688324555
endloop
endfacet
facet normal 8.99381556382573e-15 0.9996573249755574 -0.02617694830787263
outer loop
vertex 0.6393876226008364 -0.40061688106492754 0.7203726419309282
vertex 0.3943028494546032 -0.38753697063919984 1.2198742688324555
vertex 0.3981057859812401 -0.3868965524979812 1.244330850951487
endloop
endfacet
facet normal 8.99381556382573e-15 0.9996573249755574 -0.02617694830787263
outer loop
vertex 0.6393876226008364 -0.40061688106492754 0.7203726419309282
vertex 0.3981057859812401 -0.3868965524979812 1.244330850951487
vertex 0.4022767773968317 -0.3862577063934105 1.2687273994129344
endloop
endfacet
facet normal 8.99381556382573e-15 0.9996573249755574 -0.02617694830787263
outer loop
vertex 0.6393876226008364 -0.40061688106492754 0.7203726419309282
vertex 0.4022767773968317 -0.3862577063934105 1.2687273994129344
vertex 0.40681487742643435 -0.38562057726083027 1.2930583793594121
endloop
endfacet
facet normal 8.99381556382573e-15 0.9996573249755574 -0.02617694830787263
outer loop
vertex 0.6393876226008364 -0.40061688106492754 0.7203726419309282
vertex 0.40681487742643435 -0.38562057726083027 1.2930583793594121
vertex 0.4117190565089741 -0.3849853096460529 1.317318270809084
endloop
endfacet
facet normal 8.99381556382573e-15 0.9996573249755574 -0.02617694830787263
outer loop
vertex 0.6393876226008364 -0.40061688106492754 0.7203726419309282
vertex 0.4117190565089741 -0.3849853096460529 1.317318270809084
vertex 0.4579158988572962 -0.3850169760807936 1.3161089784549471
endloop
endfacet
facet normal 8.99381556382573e-15 0.9996573249755574 -0.02617694830787263
outer loop
vertex 0.6393876226008364 -0.40061688106492754 0.7203726419309282
vertex 0.4579158988572962 -0.3850169760807936 1.3161089784549471
vertex 0.5818734071542653 -0.3851019449260101 1.312864149167883
endloop
endfacet
facet normal 8.99381556382573e-15 0.9996573249755574 -0.02617694830787263
outer loop
vertex 0.6393876226008364 -0.40061688106492754 0.7203726419309282
vertex 0.5818734071542653 -0.3851019449260101 1.312864149167883
vertex 0.6280891288314998 -0.38513362430191755 1.3116543626105257
endloop
endfacet
facet normal 8.99381556382573e-15 0.9996573249755574 -0.02617694830787263
outer loop
vertex 0.6393876226008364 -0.40061688106492754 0.7203726419309282
vertex 0.6280891288314998 -0.38513362430191755 1.3116543626105257
vertex 0.6317164870581877 -0.3857747400083761 1.2871711415497216
endloop
endfacet
facet normal 8.99381556382573e-15 0.9996573249755574 -0.02617694830787263
outer loop
vertex 0.6393876226008364 -0.40061688106492754 0.7203726419309282
vertex 0.6317164870581877 -0.3857747400083761 1.2871711415497216
vertex 0.6349745461707409 -0.3864172131547917 1.262636081948383
endloop
endfacet
facet normal 8.99381556382573e-15 0.9996573249755574 -0.02617694830787263
outer loop
vertex 0.6393876226008364 -0.40061688106492754 0.7203726419309282
vertex 0.6349745461707409 -0.3864172131547917 1.262636081948383
vertex 0.6378625670116276 -0.38706089798295473 1.2380547500879908
endloop
endfacet
facet normal 8.99381556382573e-15 0.9996573249755574 -0.02617694830787263
outer loop
vertex 0.6393876226008364 -0.40061688106492754 0.7203726419309282
vertex 0.6378625670116276 -0.38706089798295473 1.2380547500879908
vertex 0.6403798943740866 -0.38770564845975897 1.2134327227478414
endloop
endfacet
facet normal 8.99381556382573e-15 0.9996573249755574 -0.02617694830787263
outer loop
vertex 0.6393876226008364 -0.40061688106492754 0.7203726419309282
vertex 0.6403798943740866 -0.38770564845975897 1.2134327227478414
vertex 0.6425259571507772 -0.38835131831033337 1.1887755859398403
endloop
endfacet
facet normal 8.99381556382573e-15 0.9996573249755574 -0.02617694830787263
outer loop
vertex 0.6393876226008364 -0.40061688106492754 0.7203726419309282
vertex 0.6425259571507772 -0.38835131831033337 1.1887755859398403
vertex 0.6443002684633443 -0.38899776105123063 1.1640889336411828
endloop
endfacet
facet normal 8.99381556382573e-15 0.9996573249755574 -0.02617694830787263
outer loop
vertex 0.6393876226008364 -0.40061688106492754 0.7203726419309282
vertex 0.6443002684633443 -0.38899776105123063 1.1640889336411828
vertex 0.6457024257728714 -0.38964483002365935 1.139378366525263
endloop
endfacet
facet normal 8.99381556382573e-15 0.9996573249755574 -0.02617694830787263
outer loop
vertex 0.6393876226008364 -0.40061688106492754 0.7203726419309282
vertex 0.6457024257728714 -0.38964483002365935 1.139378366525263
vertex 0.6467321109712132 -0.39029237842675 1.1146494906910507
endloop
endfacet
facet normal 8.99381556382573e-15 0.9996573249755574 -0.02617694830787263
outer loop
vertex 0.6393876226008364 -0.40061688106492754 0.7203726419309282
vertex 0.6467321109712132 -0.39029237842675 1.1146494906910507
vertex 0.6473890904531715 -0.3909402593508628 1.0899079163912089
endloop
endfacet
facet normal 8.99381556382573e-15 0.9996573249755574 -0.02617694830787263
outer loop
vertex 0.6393876226008364 -0.40061688106492754 0.7203726419309282
vertex 0.6473890904531715 -0.3909402593508628 1.0899079163912089
vertex 0.6476732151694676 -0.39158832581092445 1.065159256759322
endloop
endfacet
facet normal 8.99381556382573e-15 0.9996573249755574 -0.02617694830787263
outer loop
vertex 0.6393876226008364 -0.40061688106492754 0.7203726419309282
vertex 0.6476732151694676 -0.39158832581092445 1.065159256759322
vertex 0.6475844206605884 -0.39223643077976855 1.0404091265364197
endloop
endfacet
facet normal 8.99381556382573e-15 0.9996573249755574 -0.02617694830787263
outer loop
vertex 0.6393876226008364 -0.40061688106492754 0.7203726419309282
vertex 0.6475844206605884 -0.39223643077976855 1.0404091265364197
vertex 0.6471227270713871 -0.39288442722148836 1.0156631407971697
endloop
endfacet
facet normal -0.9801861732995352 0.005185088905033739 0.19801055660105762
outer loop
vertex 0.4075995475290876 -0.5244980266305606 1.300579264774169
vertex 0.40681487742643435 -0.38562057726083027 1.2930583793594121
vertex 0.40681487742643324 -0.5282964110739704 1.2967944775534597
endloop
endfacet
facet normal -0.9816501265838078 0.004991706493420488 0.19062558024640233
outer loop
vertex 0.40681487742643435 -0.38562057726083027 1.2930583793594121
vertex 0.4075995475290876 -0.5244980266305606 1.300579264774169
vertex 0.4117190565089741 -0.3849853096460529 1.317318270809084
endloop
endfacet
facet normal -0.9801861732995352 0.005185088905033739 0.19801055660105762
outer loop
vertex 0.4117190565089741 -0.3849853096460529 1.317318270809084
vertex 0.4075995475290876 -0.5244980266305606 1.300579264774169
vertex 0.41171905650897384 -0.5015363263700913 1.3203702665918307
endloop
endfacet
facet normal -0.9934341530349474 0.002994782873053263 0.11436614385070526
outer loop
vertex 0.3878045084682668 -0.6161628255470595 1.1767563404498451
vertex 0.39086883059107747 -0.3881788155250781 1.1953632015331028
vertex 0.38780450846826714 -0.38882194153993727 1.170803209891763
endloop
endfacet
facet normal -0.9913510467431209 0.003435379373213509 0.13119184536350081
outer loop
vertex 0.39086883059107747 -0.3881788155250781 1.1953632015331028
vertex 0.3878045084682668 -0.6161628255470595 1.1767563404498451
vertex 0.38819564289514125 -0.6147613287553999 1.1798566627610034
endloop
endfacet
facet normal -0.9913510467431209 0.003435379373213509 0.13119184536350081
outer loop
vertex 0.39086883059107747 -0.3881788155250781 1.1953632015331028
vertex 0.38819564289514125 -0.6147613287553999 1.1798566627610034
vertex 0.39086883059107586 -0.6032966978933184 1.2009962615289267
endloop
endfacet
facet normal -0.9849795144414161 0.004520006048521234 0.17261206700597068
outer loop
vertex 0.4022767773968314 -0.551286853696489 1.2730488397208433
vertex 0.40681487742643435 -0.38562057726083027 1.2930583793594121
vertex 0.4022767773968317 -0.3862577063934105 1.2687273994129344
endloop
endfacet
facet normal -0.9816501265838078 0.004991706493420488 0.19062558024640233
outer loop
vertex 0.40681487742643435 -0.38562057726083027 1.2930583793594121
vertex 0.4022767773968314 -0.551286853696489 1.2730488397208433
vertex 0.4034460762251735 -0.5459640319214822 1.2791829400180594
endloop
endfacet
facet normal -0.9816501265838078 0.004991706493420488 0.19062558024640233
outer loop
vertex 0.40681487742643435 -0.38562057726083027 1.2930583793594121
vertex 0.4034460762251735 -0.5459640319214822 1.2791829400180594
vertex 0.40681487742643324 -0.5282964110739704 1.2967944775534597
endloop
endfacet
facet normal -0.9857076041642162 0.004409904481053253 0.16840745777817875
outer loop
vertex 0.39934870292814023 -0.5658224069832023 1.2562911206447072
vertex 0.3981057859812401 -0.3868965524979812 1.244330850951487
vertex 0.39810578598123886 -0.5711591327063256 1.2491559364249571
endloop
endfacet
facet normal -0.9869483802288843 0.00421545554993258 0.16098175268672063
outer loop
vertex 0.3981057859812401 -0.3868965524979812 1.244330850951487
vertex 0.39934870292814023 -0.5658224069832023 1.2562911206447072
vertex 0.4022767773968317 -0.3862577063934105 1.2687273994129344
endloop
endfacet
facet normal -0.9844109203100936 0.004604103289307308 0.17582361106272357
outer loop
vertex 0.4022767773968317 -0.3862577063934105 1.2687273994129344
vertex 0.39934870292814023 -0.5658224069832023 1.2562911206447072
vertex 0.4022767773968314 -0.551286853696489 1.2730488397208433
endloop
endfacet
facet normal -0.9896359556225099 0.003758983831409881 0.14354980104366802
outer loop
vertex 0.3943028494546003 -0.5883811552587696 1.2251335588985326
vertex 0.3981057859812401 -0.3868965524979812 1.244330850951487
vertex 0.3943028494546032 -0.38753697063919984 1.2198742688324555
endloop
endfacet
facet normal -0.9869483802288843 0.00421545554993258 0.16098175268672063
outer loop
vertex 0.3981057859812401 -0.3868965524979812 1.244330850951487
vertex 0.3943028494546003 -0.5883811552587696 1.2251335588985326
vertex 0.39539113855240354 -0.5839695989612169 1.232021595099848
endloop
endfacet
facet normal -0.9869483802288843 0.00421545554993258 0.16098175268672063
outer loop
vertex 0.3981057859812401 -0.3868965524979812 1.244330850951487
vertex 0.39539113855240354 -0.5839695989612169 1.232021595099848
vertex 0.39810578598123886 -0.5711591327063256 1.2491559364249571
endloop
endfacet
facet normal -0.990334573816195 0.0036307183749366206 0.13865154087992498
outer loop
vertex 0.3916502560439784 -0.6003109775769193 1.2064994988417972
vertex 0.39086883059107747 -0.3881788155250781 1.1953632015331028
vertex 0.39086883059107586 -0.6032966978933184 1.2009962615289267
endloop
endfacet
facet normal -0.9913510467431209 0.003435379373213509 0.13119184536350081
outer loop
vertex 0.39086883059107747 -0.3881788155250781 1.1953632015331028
vertex 0.3916502560439784 -0.6003109775769193 1.2064994988417972
vertex 0.3943028494546032 -0.38753697063919984 1.2198742688324555
endloop
endfacet
facet normal -0.9892619306653496 0.003825851448007431 0.14610337229839243
outer loop
vertex 0.3943028494546032 -0.38753697063919984 1.2198742688324555
vertex 0.3916502560439784 -0.6003109775769193 1.2064994988417972
vertex 0.3943028494546003 -0.5883811552587696 1.2251335588985326
endloop
endfacet
facet normal -0.9950448294320126 0.0026027032181675765 0.09939322590888841
outer loop
vertex 0.385110578290497 -0.6271580330998247 1.1524240454727241
vertex 0.38780450846826714 -0.38882194153993727 1.170803209891763
vertex 0.3851105782904999 -0.38946620277745386 1.1461998658462658
endloop
endfacet
facet normal -0.9932152545033706 0.003044127912149624 0.11625055486774968
outer loop
vertex 0.38780450846826714 -0.38882194153993727 1.170803209891763
vertex 0.385110578290497 -0.6271580330998247 1.1524240454727241
vertex 0.3878045084682668 -0.6161628255470595 1.1767563404498451
endloop
endfacet
facet normal -0.9955889518567997 0.002455983584668812 0.09379022915693784
outer loop
vertex 0.385092162778708 -0.6272453011681944 1.1522308488967012
vertex 0.38278765123108516 -0.39011145307374795 1.1215587511698186
vertex 0.382787651231082 -0.6361423776031003 1.1280012976631386
endloop
endfacet
facet normal -0.9962673044572626 0.0022596420415662635 0.08629224812985246
outer loop
vertex 0.38278765123108516 -0.39011145307374795 1.1215587511698186
vertex 0.385092162778708 -0.6272453011681944 1.1522308488967012
vertex 0.3851105782904999 -0.38946620277745386 1.1461998658462658
endloop
endfacet
facet normal -0.9948541310123344 0.002652185828233898 0.10128289054931959
outer loop
vertex 0.3851105782904999 -0.38946620277745386 1.1461998658462658
vertex 0.385092162778708 -0.6272453011681944 1.1522308488967012
vertex 0.385110578290497 -0.6271580330998247 1.1524240454727241
endloop
endfacet
facet normal -0.9975400766807636 0.0018349640106098326 0.07007444843033853
outer loop
vertex 0.3808362542936685 -0.6435114666494783 1.1035040505460467
vertex 0.38278765123108516 -0.39011145307374795 1.1215587511698186
vertex 0.3808362542936709 -0.39075754604055973 1.0968854562046741
endloop
endfacet
facet normal -0.9962673044572626 0.0022596420415662635 0.08629224812985246
outer loop
vertex 0.38278765123108516 -0.39011145307374795 1.1215587511698186
vertex 0.3808362542936685 -0.6435114666494783 1.1035040505460467
vertex 0.38244951452102294 -0.6376978335230731 1.123763725610619
endloop
endfacet
facet normal -0.9962673044572626 0.0022596420415662635 0.08629224812985246
outer loop
vertex 0.38278765123108516 -0.39011145307374795 1.1215587511698186
vertex 0.38244951452102294 -0.6376978335230731 1.123763725610619
vertex 0.382787651231082 -0.6361423776031003 1.1280012976631386
endloop
endfacet
facet normal -0.9984636431601305 0.001450484827844308 0.05539178080874552
outer loop
vertex 0.3792568301926715 -0.6493543125354185 1.0789402364717844
vertex 0.3808362542936709 -0.39075754604055973 1.0968854562046741
vertex 0.3792568301926736 -0.3914043350984454 1.072185578593845
endloop
endfacet
facet normal -0.9974544542307727 0.0018665856087563598 0.07128202854406336
outer loop
vertex 0.3808362542936709 -0.39075754604055973 1.0968854562046741
vertex 0.3792568301926715 -0.6493543125354185 1.0789402364717844
vertex 0.38026327971934787 -0.6460643854061684 1.0946042744508397
endloop
endfacet
facet normal -0.9974544542307727 0.0018665856087563598 0.07128202854406336
outer loop
vertex 0.3808362542936709 -0.39075754604055973 1.0968854562046741
vertex 0.38026327971934787 -0.6460643854061684 1.0946042744508397
vertex 0.3808362542936685 -0.6435114666494783 1.1035040505460467
endloop
endfacet
facet normal -0.9988108093859763 0.001276234840596891 0.0487374422632388
outer loop
vertex 0.3785681599965381 -0.6523013268274069 1.0649040022764586
vertex 0.378049737252852 -0.39205167351004216 1.047464722011166
vertex 0.3780497372528472 -0.6537354631173632 1.054317153201751
endloop
endfacet
facet normal -0.999149656785654 0.0010792915924371315 0.04121648304705918
outer loop
vertex 0.378049737252852 -0.39205167351004216 1.047464722011166
vertex 0.3785681599965381 -0.6523013268274069 1.0649040022764586
vertex 0.3792568301926736 -0.3914043350984454 1.072185578593845
endloop
endfacet
facet normal -0.9984153110035914 0.0014731057027177904 0.0562556371681148
outer loop
vertex 0.3792568301926736 -0.3914043350984454 1.072185578593845
vertex 0.3785681599965381 -0.6523013268274069 1.0649040022764586
vertex 0.3792568301926715 -0.6493543125354185 1.0789402364717844
endloop
endfacet
facet normal -0.9995542550055462 0.0007814997602856114 0.029844271785926073
outer loop
vertex 0.3772152493279852 -0.6566991128397782 1.029641570287253
vertex 0.378049737252852 -0.39205167351004216 1.047464722011166
vertex 0.3772152493279874 -0.3926994144133547 1.0227284948899684
endloop
endfacet
facet normal -0.999149656785654 0.0010792915924371315 0.04121648304705918
outer loop
vertex 0.378049737252852 -0.39205167351004216 1.047464722011166
vertex 0.3772152493279852 -0.6566991128397782 1.029641570287253
vertex 0.3773900238312817 -0.656376133079709 1.0348174014175735
endloop
endfacet
facet normal -0.999149656785654 0.0010792915924371315 0.04121648304705918
outer loop
vertex 0.378049737252852 -0.39205167351004216 1.047464722011166
vertex 0.3773900238312817 -0.656376133079709 1.0348174014175735
vertex 0.3780497372528472 -0.6537354631173632 1.054317153201751
endloop
endfacet
facet normal 0.026176948307878603 0.026167978121474905 0.9993147673772869
outer loop
vertex 0.41171905650897384 -0.5015363263700913 1.3203702665918307
vertex 0.4579158988572962 -0.3850169760807936 1.3161089784549471
vertex 0.4117190565089741 -0.3849853096460529 1.317318270809084
endloop
endfacet
facet normal 0.026176948307878603 0.026167978121474905 0.9993147673772869
outer loop
vertex 0.4579158988572962 -0.3850169760807936 1.3161089784549471
vertex 0.41171905650897384 -0.5015363263700913 1.3203702665918307
vertex 0.45791589885729617 -0.4699890365630908 1.3183340501663097
endloop
endfacet
facet normal 0.026176948307878603 0.026167978121474905 0.9993147673772869
outer loop
vertex 0.5818734071542649 -0.47007400540830657 1.3150892208792457
vertex 0.6280891288314998 -0.38513362430191755 1.3116543626105257
vertex 0.5818734071542653 -0.3851019449260101 1.312864149167883
endloop
endfacet
facet normal 0.026176948307878603 0.026167978121474905 0.9993147673772869
outer loop
vertex 0.6280891288314998 -0.38513362430191755 1.3116543626105257
vertex 0.5818734071542649 -0.47007400540830657 1.3150892208792457
vertex 0.6280891288315006 -0.501684641025956 1.3147063583932714
endloop
endfacet
facet normal 0.026176948307878603 0.026167978121474905 0.9993147673772869
outer loop
vertex 0.6280891288315006 -0.501684641025956 1.3147063583932714
vertex 0.5818734071542649 -0.47007400540830657 1.3150892208792457
vertex 0.45791589885729617 -0.4699890365630908 1.3183340501663097
endloop
endfacet
facet normal 0.026176948307878603 0.026167978121474905 0.9993147673772869
outer loop
vertex 0.6280891288315006 -0.501684641025956 1.3147063583932714
vertex 0.45791589885729617 -0.4699890365630908 1.3183340501663097
vertex 0.41171905650897384 -0.5015363263700913 1.3203702665918307
endloop
endfacet
facet normal 0.02617694830787581 0.02616797812147742 0.9993147673772869
outer loop
vertex 0.45791589885729617 -0.4699890365630908 1.3183340501663097
vertex 0.5818734071542653 -0.3851019449260101 1.312864149167883
vertex 0.4579158988572962 -0.3850169760807936 1.3161089784549471
endloop
endfacet
facet normal 0.02617694830787581 0.02616797812147742 0.9993147673772869
outer loop
vertex 0.5818734071542653 -0.3851019449260101 1.312864149167883
vertex 0.45791589885729617 -0.4699890365630908 1.3183340501663097
vertex 0.5818734071542649 -0.47007400540830657 1.3150892208792457
endloop
endfacet
facet normal 0.9892094864240956 0.003835132155499754 0.1464577882187461
outer loop
vertex 0.6280891288314998 -0.38513362430191755 1.3116543626105257
vertex 0.6317164870581883 -0.5284505738215171 1.2909072397437718
vertex 0.6317164870581877 -0.3857747400083761 1.2871711415497216
endloop
endfacet
facet normal 0.9907793025521983 0.0035466020426464695 0.13543926774806034
outer loop
vertex 0.6317164870581883 -0.5284505738215171 1.2909072397437718
vertex 0.6280891288314998 -0.38513362430191755 1.3116543626105257
vertex 0.6311361086698405 -0.5246512536817074 1.2947277597682685
endloop
endfacet
facet normal 0.9892094864240956 0.003835132155499754 0.1464577882187461
outer loop
vertex 0.6311361086698405 -0.5246512536817074 1.2947277597682685
vertex 0.6280891288314998 -0.38513362430191755 1.3116543626105257
vertex 0.6280891288315006 -0.501684641025956 1.3147063583932714
endloop
endfacet
facet normal 0.9902848011226918 0.003640009158171621 0.13900634157735223
outer loop
vertex 0.6317164870581877 -0.3857747400083761 1.2871711415497216
vertex 0.6349745461707412 -0.5514463604578709 1.2669575222562928
vertex 0.6349745461707409 -0.3864172131547917 1.262636081948383
endloop
endfacet
facet normal 0.9926665485600783 0.003164393915552377 0.12084332824351081
outer loop
vertex 0.6349745461707412 -0.5514463604578709 1.2669575222562928
vertex 0.6317164870581877 -0.3857747400083761 1.2871711415497216
vertex 0.634135066062738 -0.5461221617301589 1.2731442062558853
endloop
endfacet
facet normal 0.9913039484203975 0.0034446797052325416 0.1315470107142632
outer loop
vertex 0.634135066062738 -0.5461221617301589 1.2731442062558853
vertex 0.6317164870581877 -0.3857747400083761 1.2871711415497216
vertex 0.6317164870581883 -0.5284505738215171 1.2909072397437718
endloop
endfacet
facet normal 0.9922668705127758 0.0032491548754628127 0.12408021871103235
outer loop
vertex 0.6349745461707409 -0.3864172131547917 1.262636081948383
vertex 0.6378625670116294 -0.5713234781913006 1.2428798355614623
vertex 0.6378625670116276 -0.38706089798295473 1.2380547500879908
endloop
endfacet
facet normal 0.9943386004836965 0.0027815083286322428 0.10622151759197272
outer loop
vertex 0.6378625670116294 -0.5713234781913006 1.2428798355614623
vertex 0.6349745461707409 -0.3864172131547917 1.262636081948383
vertex 0.637001963455188 -0.565985310573203 1.2500700835286935
endloop
endfacet
facet normal 0.9931735127843965 0.0030534457587240854 0.11660638907238699
outer loop
vertex 0.637001963455188 -0.565985310573203 1.2500700835286935
vertex 0.6349745461707409 -0.3864172131547917 1.262636081948383
vertex 0.6349745461707412 -0.5514463604578709 1.2669575222562928
endloop
endfacet
facet normal 0.9940238238119329 0.002857563455330211 0.1091259457022122
outer loop
vertex 0.6378625670116276 -0.38706089798295473 1.2380547500879908
vertex 0.6403798943740896 -0.5885498330793291 1.2186920128139198
vertex 0.6403798943740866 -0.38770564845975897 1.2134327227478414
endloop
endfacet
facet normal 0.9957950853827561 0.0023980353489120657 0.0915772753144309
outer loop
vertex 0.6403798943740896 -0.5885498330793291 1.2186920128139198
vertex 0.6378625670116276 -0.38706089798295473 1.2380547500879908
vertex 0.639659508981125 -0.5841370369941663 1.2256273945938867
endloop
endfacet
facet normal 0.994817755367076 0.002661519075418561 0.10163931287953532
outer loop
vertex 0.639659508981125 -0.5841370369941663 1.2256273945938867
vertex 0.6378625670116276 -0.38706089798295473 1.2380547500879908
vertex 0.6378625670116294 -0.5713234781913006 1.2428798355614623
endloop
endfacet
facet normal 0.9955552624192712 0.0024653237383186724 0.09414691523444303
outer loop
vertex 0.6403798943740866 -0.38770564845975897 1.2134327227478414
vertex 0.6425259571507799 -0.6034692006785739 1.1944086459356666
vertex 0.6425259571507772 -0.38835131831033337 1.1887755859398403
endloop
endfacet
facet normal 0.9970356987825318 0.002014063206680055 0.07691397078963008
outer loop
vertex 0.6425259571507799 -0.6034692006785739 1.1944086459356666
vertex 0.6403798943740866 -0.38770564845975897 1.2134327227478414
vertex 0.6420376115289639 -0.6004826099753505 1.199945121980322
endloop
endfacet
facet normal 0.996236303138277 0.0022689885719226325 0.08664917772396616
outer loop
vertex 0.6420376115289639 -0.6004826099753505 1.199945121980322
vertex 0.6403798943740866 -0.38770564845975897 1.2134327227478414
vertex 0.6403798943740896 -0.5885498330793291 1.2186920128139198
endloop
endfacet
facet normal 0.9968608388965329 0.0020725247120530472 0.07914652560800726
outer loop
vertex 0.6425259571507772 -0.38835131831033337 1.1887755859398403
vertex 0.6443002684633454 -0.6163386450583531 1.1700420641992646
vertex 0.6443002684633443 -0.38899776105123063 1.1640889336411828
endloop
endfacet
facet normal 0.9980601993260956 0.001629678187584166 0.06223489913351842
outer loop
vertex 0.6443002684633454 -0.6163386450583531 1.1700420641992646
vertex 0.6425259571507772 -0.38835131831033337 1.1887755859398403
vertex 0.6440737928480129 -0.6149367249150727 1.1731585536565736
endloop
endfacet
facet normal 0.9974288342713485 0.001875943301832073 0.07163938442523905
outer loop
vertex 0.6440737928480129 -0.6149367249150727 1.1731585536565736
vertex 0.6425259571507772 -0.38835131831033337 1.1887755859398403
vertex 0.6425259571507799 -0.6034692006785739 1.1944086459356666
endloop
endfacet
facet normal 0.9979402570469167 0.0016792554910492667 0.06412817996894911
outer loop
vertex 0.6443002684633443 -0.38899776105123063 1.1640889336411828
vertex 0.645702425772874 -0.6273366603460319 1.1456025461517234
vertex 0.6457024257728714 -0.38964483002365935 1.139378366525263
endloop
endfacet
facet normal 0.9988847777491744 0.0012359292446272353 0.047198233652172406
outer loop
vertex 0.645702425772874 -0.6273366603460319 1.1456025461517234
vertex 0.6443002684633443 -0.38899776105123063 1.1640889336411828
vertex 0.6443002684633454 -0.6163386450583531 1.1700420641992646
endloop
endfacet
facet normal 0.9987932719822765 0.001285605296496095 0.0490952855370025
outer loop
vertex 0.6457024257728714 -0.38964483002365935 1.139378366525263
vertex 0.6467321109712153 -0.6363233029561016 1.121092037184371
vertex 0.6467321109712132 -0.39029237842675 1.1146494906910507
endloop
endfacet
facet normal 0.9994714779422399 0.0008509581081185654 0.03249677907505421
outer loop
vertex 0.6467321109712153 -0.6363233029561016 1.121092037184371
vertex 0.6457024257728714 -0.38964483002365935 1.139378366525263
vertex 0.6457105888272534 -0.6274239466331445 1.1454086538299486
endloop
endfacet
facet normal 0.9991348157603991 0.0010886652399474017 0.0415744482035419
outer loop
vertex 0.6457105888272534 -0.6274239466331445 1.1454086538299486
vertex 0.6457024257728714 -0.38964483002365935 1.139378366525263
vertex 0.645702425772874 -0.6273366603460319 1.1456025461517234
endloop
endfacet
facet normal 0.9994196901786803 0.0008916634360142541 0.03405125283257583
outer loop
vertex 0.6467321109712132 -0.39029237842675 1.1146494906910507
vertex 0.6473890904531718 -0.6436941799597832 1.096526510732579
vertex 0.6473890904531715 -0.3909402593508628 1.0899079163912089
endloop
endfacet
facet normal 0.9998416531032802 0.00046582371916772285 0.017789090138698095
outer loop
vertex 0.6473890904531718 -0.6436941799597832 1.096526510732579
vertex 0.6467321109712132 -0.39029237842675 1.1146494906910507
vertex 0.6468459519209223 -0.637879068692076 1.1168426337360176
endloop
endfacet
facet normal 0.9996478790794897 0.0006946110583293762 0.02652612612795036
outer loop
vertex 0.6468459519209223 -0.637879068692076 1.1168426337360176
vertex 0.6467321109712132 -0.39029237842675 1.1146494906910507
vertex 0.6467321109712153 -0.6363233029561016 1.121092037184371
endloop
endfacet
facet normal 0.9998193695203105 0.0004975192833944888 0.01899949490306858
outer loop
vertex 0.6473890904531715 -0.3909402593508628 1.0899079163912089
vertex 0.6476732151694693 -0.649538303247899 1.0719139146372612
vertex 0.6476732151694676 -0.39158832581092445 1.065159256759322
endloop
endfacet
facet normal 0.9999952590041811 8.06061697265632e-05 0.0030782254313758786
outer loop
vertex 0.6476732151694693 -0.649538303247899 1.0719139146372612
vertex 0.6473890904531715 -0.3909402593508628 1.0899079163912089
vertex 0.647492163616532 -0.6462475621252339 1.087609037770691
endloop
endfacet
facet normal 0.9999341517744743 0.0003003992899461028 0.01147178605663266
outer loop
vertex 0.647492163616532 -0.6462475621252339 1.087609037770691
vertex 0.6473890904531715 -0.3909402593508628 1.0899079163912089
vertex 0.6473890904531718 -0.6436941799597832 1.096526510732579
endloop
endfacet
facet normal 0.9999922193317121 0.00010326225832012059 0.003943426548459369
outer loop
vertex 0.6476732151694676 -0.39158832581092445 1.065159256759322
vertex 0.6475844206605899 -0.6539202203870912 1.0472615577270055
vertex 0.6475844206605884 -0.39223643077976855 1.0404091265364197
endloop
endfacet
facet normal 0.9999322902021939 -0.0003046157959369279 -0.01163280792467398
outer loop
vertex 0.6475844206605899 -0.6539202203870912 1.0472615577270055
vertex 0.6476732151694676 -0.39158832581092445 1.065159256759322
vertex 0.6476225561606832 -0.6524857548758316 1.057860979256064
endloop
endfacet
facet normal 0.9999935688985225 -9.388063017920267e-05 -0.0035851566246830873
outer loop
vertex 0.6476225561606832 -0.6524857548758316 1.057860979256064
vertex 0.6476732151694676 -0.39158832581092445 1.065159256759322
vertex 0.6476732151694693 -0.649538303247899 1.0719139146372612
endloop
endfacet
facet normal 0.9999382003983601 -0.0002910181939155896 -0.011113536453344949
outer loop
vertex 0.6475844206605884 -0.39223643077976855 1.0404091265364197
vertex 0.6471227270713997 -0.6568841256478812 1.0225762161949379
vertex 0.6471227270713871 -0.39288442722148836 1.0156631407971697
endloop
endfacet
facet normal 0.99982611697164 -0.0004881392515564091 -0.01864128593964805
outer loop
vertex 0.6471227270713997 -0.6568841256478812 1.0225762161949379
vertex 0.6475844206605884 -0.39223643077976855 1.0404091265364197
vertex 0.6472194238183694 -0.6565610923680779 1.0277540911621679
endloop
endfacet
facet normal 0.99982611697164 -0.0004881392515564091 -0.01864128593964805
outer loop
vertex 0.6472194238183694 -0.6565610923680779 1.0277540911621679
vertex 0.6475844206605884 -0.39223643077976855 1.0404091265364197
vertex 0.6475844206605899 -0.6539202203870912 1.0472615577270055
endloop
endfacet
facet normal 0.000945339460048235 -0.9980602302287659 0.06224855957376297
outer loop
vertex 0.6471227270713997 -0.6568841256478812 1.0225762161949379
vertex 0.3773900238312817 -0.656376133079709 1.0348174014175735
vertex 0.3772152493279852 -0.6566991128397782 1.029641570287253
endloop
endfacet
facet normal 0.0018849368369485374 -0.9951780135730219 0.09806716226125341
outer loop
vertex 0.3773900238312817 -0.656376133079709 1.0348174014175735
vertex 0.6471227270713997 -0.6568841256478812 1.0225762161949379
vertex 0.6472194238183694 -0.6565610923680779 1.0277540911621679
endloop
endfacet
facet normal 0.0018849368369484114 -0.9951780135730225 0.0980671622612486
outer loop
vertex 0.6472194238183694 -0.6565610923680779 1.0277540911621679
vertex 0.3780497372528472 -0.6537354631173632 1.054317153201751
vertex 0.3773900238312817 -0.656376133079709 1.0348174014175735
endloop
endfacet
facet normal 0.0028310868088227176 -0.990963598357991 0.13410119938637216
outer loop
vertex 0.3780497372528472 -0.6537354631173632 1.054317153201751
vertex 0.6472194238183694 -0.6565610923680779 1.0277540911621679
vertex 0.3785681599965381 -0.6523013268274069 1.0649040022764586
endloop
endfacet
facet normal 0.003755719589436891 -0.9855604794763378 0.16928211915242775
outer loop
vertex 0.3785681599965381 -0.6523013268274069 1.0649040022764586
vertex 0.6472194238183694 -0.6565610923680779 1.0277540911621679
vertex 0.6476225561606832 -0.6524857548758316 1.057860979256064
endloop
endfacet
facet normal 0.003755719589436902 -0.9855604794763377 0.16928211915242816
outer loop
vertex 0.6476225561606832 -0.6524857548758316 1.057860979256064
vertex 0.6472194238183694 -0.6565610923680779 1.0277540911621679
vertex 0.6475844206605899 -0.6539202203870912 1.0472615577270055
endloop
endfacet
facet normal 0.003755719589436902 -0.9855604794763377 0.16928211915242816
outer loop
vertex 0.6476225561606832 -0.6524857548758316 1.057860979256064
vertex 0.3792568301926715 -0.6493543125354185 1.0789402364717844
vertex 0.3785681599965381 -0.6523013268274069 1.0649040022764586
endloop
endfacet
facet normal 0.004702065170206831 -0.9786973867900587 0.20525427078003886
outer loop
vertex 0.3792568301926715 -0.6493543125354185 1.0789402364717844
vertex 0.6476225561606832 -0.6524857548758316 1.057860979256064
vertex 0.38026327971934787 -0.6460643854061684 1.0946042744508397
endloop
endfacet
facet normal 0.00560734874464366 -0.9708476115111513 0.23963195292604172
outer loop
vertex 0.38026327971934787 -0.6460643854061684 1.0946042744508397
vertex 0.6476225561606832 -0.6524857548758316 1.057860979256064
vertex 0.647492163616532 -0.6462475621252339 1.087609037770691
endloop
endfacet
facet normal 0.00560734874464368 -0.9708476115111513 0.2396319529260425
outer loop
vertex 0.647492163616532 -0.6462475621252339 1.087609037770691
vertex 0.6476225561606832 -0.6524857548758316 1.057860979256064
vertex 0.6476732151694693 -0.649538303247899 1.0719139146372612
endloop
endfacet
facet normal 0.00560734874464368 -0.9708476115111513 0.2396319529260425
outer loop
vertex 0.647492163616532 -0.6462475621252339 1.087609037770691
vertex 0.3808362542936685 -0.6435114666494783 1.1035040505460467
vertex 0.38026327971934787 -0.6460643854061684 1.0946042744508397
endloop
endfacet
facet normal 0.0065485141738248 -0.9613255849170903 0.27533658809887507
outer loop
vertex 0.3808362542936685 -0.6435114666494783 1.1035040505460467
vertex 0.647492163616532 -0.6462475621252339 1.087609037770691
vertex 0.38244951452102294 -0.6376978335230731 1.123763725610619
endloop
endfacet
facet normal 0.00743037587667638 -0.9511117316069606 0.3087576128841851
outer loop
vertex 0.38244951452102294 -0.6376978335230731 1.123763725610619
vertex 0.647492163616532 -0.6462475621252339 1.087609037770691
vertex 0.6468459519209223 -0.637879068692076 1.1168426337360176
endloop
endfacet
facet normal 0.007430375876676235 -0.9511117316069624 0.3087576128841795
outer loop
vertex 0.6468459519209223 -0.637879068692076 1.1168426337360176
vertex 0.647492163616532 -0.6462475621252339 1.087609037770691
vertex 0.6473890904531718 -0.6436941799597832 1.096526510732579
endloop
endfacet
facet normal 0.007430375876676235 -0.9511117316069624 0.3087576128841795
outer loop
vertex 0.6468459519209223 -0.637879068692076 1.1168426337360176
vertex 0.382787651231082 -0.6361423776031003 1.1280012976631386
vertex 0.38244951452102294 -0.6376978335230731 1.123763725610619
endloop
endfacet
facet normal 0.008360801412090219 -0.9389388165666622 0.34398255151118295
outer loop
vertex 0.382787651231082 -0.6361423776031003 1.1280012976631386
vertex 0.6468459519209223 -0.637879068692076 1.1168426337360176
vertex 0.385092162778708 -0.6272453011681944 1.1522308488967012
endloop
endfacet
facet normal 0.00921547753245065 -0.9264498203259159 0.37630546819296573
outer loop
vertex 0.385092162778708 -0.6272453011681944 1.1522308488967012
vertex 0.6468459519209223 -0.637879068692076 1.1168426337360176
vertex 0.6457105888272534 -0.6274239466331445 1.1454086538299486
endloop
endfacet
facet normal 0.009215477532452072 -0.9264498203258941 0.3763054681930195
outer loop
vertex 0.6457105888272534 -0.6274239466331445 1.1454086538299486
vertex 0.6468459519209223 -0.637879068692076 1.1168426337360176
vertex 0.6467321109712153 -0.6363233029561016 1.121092037184371
endloop
endfacet
facet normal 0.010946026875097804 -0.8971220485078291 0.4416471607253534
outer loop
vertex 0.6440737928480129 -0.6149367249150727 1.1731585536565736
vertex 0.39086883059107586 -0.6032966978933184 1.2009962615289267
vertex 0.38819564289514125 -0.6147613287553999 1.1798566627610034
endloop
endfacet
facet normal 0.011845301343950568 -0.8796130748879274 0.4755423507136632
outer loop
vertex 0.39086883059107586 -0.6032966978933184 1.2009962615289267
vertex 0.6440737928480129 -0.6149367249150727 1.1731585536565736
vertex 0.3916502560439784 -0.6003109775769193 1.2064994988417972
endloop
endfacet
facet normal 0.01262853835589396 -0.8630102983276783 0.5050284595934822
outer loop
vertex 0.3916502560439784 -0.6003109775769193 1.2064994988417972
vertex 0.6440737928480129 -0.6149367249150727 1.1731585536565736
vertex 0.6420376115289639 -0.6004826099753505 1.199945121980322
endloop
endfacet
facet normal 0.012628538355893858 -0.8630102983276806 0.5050284595934784
outer loop
vertex 0.6420376115289639 -0.6004826099753505 1.199945121980322
vertex 0.6440737928480129 -0.6149367249150727 1.1731585536565736
vertex 0.6425259571507799 -0.6034692006785739 1.1944086459356666
endloop
endfacet
facet normal 0.009215477532452072 -0.9264498203258941 0.3763054681930195
outer loop
vertex 0.6457105888272534 -0.6274239466331445 1.1454086538299486
vertex 0.385110578290497 -0.6271580330998247 1.1524240454727241
vertex 0.385092162778708 -0.6272453011681944 1.1522308488967012
endloop
endfacet
facet normal 0.01012947268978403 -0.9116538672426637 0.4108340542415182
outer loop
vertex 0.385110578290497 -0.6271580330998247 1.1524240454727241
vertex 0.6457105888272534 -0.6274239466331445 1.1454086538299486
vertex 0.3878045084682668 -0.6161628255470595 1.1767563404498451
endloop
endfacet
facet normal 0.01012947268978403 -0.9116538672426637 0.4108340542415182
outer loop
vertex 0.3878045084682668 -0.6161628255470595 1.1767563404498451
vertex 0.6457105888272534 -0.6274239466331445 1.1454086538299486
vertex 0.38819564289514125 -0.6147613287553999 1.1798566627610034
endloop
endfacet
facet normal 0.010946026875097915 -0.897122048507827 0.44164716072535765
outer loop
vertex 0.38819564289514125 -0.6147613287553999 1.1798566627610034
vertex 0.6457105888272534 -0.6274239466331445 1.1454086538299486
vertex 0.6440737928480129 -0.6149367249150727 1.1731585536565736
endloop
endfacet
facet normal 0.010946026875097804 -0.8971220485078291 0.4416471607253534
outer loop
vertex 0.6440737928480129 -0.6149367249150727 1.1731585536565736
vertex 0.6457105888272534 -0.6274239466331445 1.1454086538299486
vertex 0.6443002684633454 -0.6163386450583531 1.1700420641992646
endloop
endfacet
facet normal 0.01012947268978403 -0.9116538672426637 0.4108340542415182
outer loop
vertex 0.6443002684633454 -0.6163386450583531 1.1700420641992646
vertex 0.6457105888272534 -0.6274239466331445 1.1454086538299486
vertex 0.645702425772874 -0.6273366603460319 1.1456025461517234
endloop
endfacet
facet normal 0.012628538355893858 -0.8630102983276806 0.5050284595934784
outer loop
vertex 0.6420376115289639 -0.6004826099753505 1.199945121980322
vertex 0.3943028494546003 -0.5883811552587696 1.2251335588985326
vertex 0.3916502560439784 -0.6003109775769193 1.2064994988417972
endloop
endfacet
facet normal 0.013499336376800538 -0.8429835873471835 0.5377698758583076
outer loop
vertex 0.3943028494546003 -0.5883811552587696 1.2251335588985326
vertex 0.6420376115289639 -0.6004826099753505 1.199945121980322
vertex 0.39539113855240354 -0.5839695989612169 1.232021595099848
endloop
endfacet
facet normal 0.014246370244931902 -0.8244048644426869 0.5658212265531218
outer loop
vertex 0.39539113855240354 -0.5839695989612169 1.232021595099848
vertex 0.6420376115289639 -0.6004826099753505 1.199945121980322
vertex 0.639659508981125 -0.5841370369941663 1.2256273945938867
endloop
endfacet
facet normal 0.014246370244931987 -0.8244048644426849 0.5658212265531251
outer loop
vertex 0.639659508981125 -0.5841370369941663 1.2256273945938867
vertex 0.6420376115289639 -0.6004826099753505 1.199945121980322
vertex 0.6403798943740896 -0.5885498330793291 1.2186920128139198
endloop
endfacet
facet normal 0.014246370244931987 -0.8244048644426849 0.5658212265531251
outer loop
vertex 0.639659508981125 -0.5841370369941663 1.2256273945938867
vertex 0.39810578598123886 -0.5711591327063256 1.2491559364249571
vertex 0.39539113855240354 -0.5839695989612169 1.232021595099848
endloop
endfacet
facet normal 0.015082949150572879 -0.8019564904034655 0.5971920060957595
outer loop
vertex 0.39810578598123886 -0.5711591327063256 1.2491559364249571
vertex 0.639659508981125 -0.5841370369941663 1.2256273945938867
vertex 0.39934870292814023 -0.5658224069832023 1.2562911206447072
endloop
endfacet
facet normal 0.015791106695368515 -0.7814971247119535 0.6237089746157938
outer loop
vertex 0.39934870292814023 -0.5658224069832023 1.2562911206447072
vertex 0.639659508981125 -0.5841370369941663 1.2256273945938867
vertex 0.637001963455188 -0.565985310573203 1.2500700835286935
endloop
endfacet
facet normal 0.01579110669536848 -0.7814971247119545 0.6237089746157927
outer loop
vertex 0.637001963455188 -0.565985310573203 1.2500700835286935
vertex 0.639659508981125 -0.5841370369941663 1.2256273945938867
vertex 0.6378625670116294 -0.5713234781913006 1.2428798355614623
endloop
endfacet
facet normal 0.01579110669536848 -0.7814971247119545 0.6237089746157927
outer loop
vertex 0.637001963455188 -0.565985310573203 1.2500700835286935
vertex 0.4022767773968314 -0.551286853696489 1.2730488397208433
vertex 0.39934870292814023 -0.5658224069832023 1.2562911206447072
endloop
endfacet
facet normal 0.01658787840072288 -0.7567458109368973 0.6534987528064768
outer loop
vertex 0.4022767773968314 -0.551286853696489 1.2730488397208433
vertex 0.637001963455188 -0.565985310573203 1.2500700835286935
vertex 0.4034460762251735 -0.5459640319214822 1.2791829400180594
endloop
endfacet
facet normal 0.017254666418039712 -0.734500655394895 0.6783885787004909
outer loop
vertex 0.4034460762251735 -0.5459640319214822 1.2791829400180594
vertex 0.637001963455188 -0.565985310573203 1.2500700835286935
vertex 0.634135066062738 -0.5461221617301589 1.2731442062558853
endloop
endfacet
facet normal 0.01725466641803968 -0.7345006553948958 0.6783885787004899
outer loop
vertex 0.634135066062738 -0.5461221617301589 1.2731442062558853
vertex 0.637001963455188 -0.565985310573203 1.2500700835286935
vertex 0.6349745461707412 -0.5514463604578709 1.2669575222562928
endloop
endfacet
facet normal 0.01725466641803968 -0.7345006553948958 0.6783885787004899
outer loop
vertex 0.634135066062738 -0.5461221617301589 1.2731442062558853
vertex 0.40681487742643324 -0.5282964110739704 1.2967944775534597
vertex 0.4034460762251735 -0.5459640319214822 1.2791829400180594
endloop
endfacet
facet normal 0.01800627333261626 -0.707587400406813 0.70639637945434
outer loop
vertex 0.40681487742643324 -0.5282964110739704 1.2967944775534597
vertex 0.634135066062738 -0.5461221617301589 1.2731442062558853
vertex 0.4075995475290876 -0.5244980266305606 1.300579264774169
endloop
endfacet
facet normal 0.018629344298063184 -0.6836504021406742 0.7295718437439309
outer loop
vertex 0.4075995475290876 -0.5244980266305606 1.300579264774169
vertex 0.634135066062738 -0.5461221617301589 1.2731442062558853
vertex 0.6311361086698405 -0.5246512536817074 1.2947277597682685
endloop
endfacet
facet normal 0.018629344298063195 -0.6836504021406739 0.7295718437439314
outer loop
vertex 0.6311361086698405 -0.5246512536817074 1.2947277597682685
vertex 0.634135066062738 -0.5461221617301589 1.2731442062558853
vertex 0.6317164870581883 -0.5284505738215171 1.2909072397437718
endloop
endfacet
facet normal 0.018629344298063184 -0.6836504021406742 0.7295718437439309
outer loop
vertex 0.4075995475290876 -0.5244980266305606 1.300579264774169
vertex 0.6280891288315006 -0.501684641025956 1.3147063583932714
vertex 0.41171905650897384 -0.5015363263700913 1.3203702665918307
endloop
endfacet
facet normal 0.01933073457694425 -0.6547377044801507 0.7556089339286419
outer loop
vertex 0.6280891288315006 -0.501684641025956 1.3147063583932714
vertex 0.4075995475290876 -0.5244980266305606 1.300579264774169
vertex 0.6311361086698405 -0.5246512536817074 1.2947277597682685
endloop
endfacet
facet normal 2.4470605841134134e-17 -8.569533971325425e-16 1.0
outer loop
vertex 0.5165079689941445 -0.28793770614664405 1.2545707972177245
vertex 0.5294489212492705 -0.47004469016760453 1.2528670885321775
vertex 0.5294489212492702 -0.28793770614664377 1.2528670885321778
endloop
endfacet
facet normal 0.2588190451025153 -3.67761376907083e-16 0.9659258262890699
outer loop
vertex 0.5294489212492705 -0.47004469016760453 1.2528670885321775
vertex 0.5165079689941445 -0.28793770614664405 1.2545707972177245
vertex 0.5165079689941448 -0.4700446901676054 1.254570797217724
endloop
endfacet
facet normal -0.965925826289071 2.9230090570209204e-16 0.2588190451025114
outer loop
vertex 0.46821167767969146 -0.47004469016760453 1.217511749472851
vertex 0.466507968994145 -0.28793770614664366 1.2045707972177249
vertex 0.4665079689941448 -0.4700446901676047 1.204570797217725
endloop
endfacet
facet normal -1.0 6.210998241778037e-19 2.6869993795577703e-15
outer loop
vertex 0.466507968994145 -0.28793770614664366 1.2045707972177249
vertex 0.46821167767969146 -0.47004469016760453 1.217511749472851
vertex 0.4682116776796912 -0.28793770614664377 1.2175117494728505
endloop
endfacet
facet normal -0.2588190451025075 -3.642919299551295e-16 0.965925826289072
outer loop
vertex 0.5035670167390189 -0.47004469016760464 1.2528670885321775
vertex 0.5165079689941445 -0.28793770614664405 1.2545707972177245
vertex 0.5035670167390186 -0.2879377061466438 1.2528670885321775
endloop
endfacet
facet normal 2.4470605841134134e-17 -8.569533971325425e-16 1.0
outer loop
vertex 0.5165079689941445 -0.28793770614664405 1.2545707972177245
vertex 0.5035670167390189 -0.47004469016760464 1.2528670885321775
vertex 0.5165079689941448 -0.4700446901676054 1.254570797217724
endloop
endfacet
facet normal 1.0 -1.7596522852990717e-19 2.742926035251432e-15
outer loop
vertex 0.566507968994144 -0.2879377061466437 1.2045707972177246
vertex 0.5648042603085973 -0.4700446901676044 1.217511749472851
vertex 0.5665079689941437 -0.4700446901676048 1.2045707972177246
endloop
endfacet
facet normal 0.9659258262890701 4.822531263215525e-16 0.25881904510251413
outer loop
vertex 0.5648042603085973 -0.4700446901676044 1.217511749472851
vertex 0.566507968994144 -0.2879377061466437 1.2045707972177246
vertex 0.5648042603085972 -0.28793770614664377 1.2175117494728507
endloop
endfacet
facet normal -0.8660254037844387 2.584737979205443e-16 0.5000000000000002
outer loop
vertex 0.4732066988049228 -0.4700446901676048 1.229570797217725
vertex 0.4682116776796912 -0.28793770614664377 1.2175117494728505
vertex 0.46821167767969146 -0.47004469016760453 1.217511749472851
endloop
endfacet
facet normal -0.965925826289071 2.9056618222611524e-16 0.2588190451025108
outer loop
vertex 0.4682116776796912 -0.28793770614664377 1.2175117494728505
vertex 0.4732066988049228 -0.4700446901676048 1.229570797217725
vertex 0.47320669880492283 -0.2879377061466437 1.2295707972177248
endloop
endfacet
facet normal -0.25881904510254145 -1.249000902703301e-16 -0.9659258262890629
outer loop
vertex 0.5035670167390186 -0.47004469016760553 1.156274505903272
vertex 0.49150796899414445 -0.28793770614664366 1.1612695270285036
vertex 0.5035670167390189 -0.28793770614664366 1.1562745059032722
endloop
endfacet
facet normal -0.49999999999999084 -1.1102230246251565e-16 -0.866025403784444
outer loop
vertex 0.49150796899414445 -0.28793770614664366 1.1612695270285036
vertex 0.5035670167390186 -0.47004469016760553 1.156274505903272
vertex 0.4915079689941445 -0.47004469016760553 1.1612695270285034
endloop
endfacet
facet normal 0.7071067811865448 -4.926614671774132e-16 -0.7071067811865505
outer loop
vertex 0.5518633080534716 -0.28793770614664377 1.1692154581583976
vertex 0.5598092391833662 -0.4700446901676044 1.1795707972177247
vertex 0.5518633080534718 -0.470044690167605 1.1692154581583976
endloop
endfacet
facet normal 0.8660254037844429 -2.5673907444456745e-16 -0.4999999999999927
outer loop
vertex 0.5598092391833662 -0.4700446901676044 1.1795707972177247
vertex 0.5518633080534716 -0.28793770614664377 1.1692154581583976
vertex 0.559809239183366 -0.2879377061466437 1.1795707972177247
endloop
endfacet
facet normal 2.4101651486216464e-17 -1.3530843112619095e-16 -1.0
outer loop
vertex 0.5165079689941448 -0.47004469016760464 1.1545707972177246
vertex 0.5035670167390189 -0.28793770614664366 1.1562745059032722
vertex 0.5165079689941446 -0.28793770614664377 1.1545707972177246
endloop
endfacet
facet normal -0.2588190451025387 -1.283695372222837e-16 -0.9659258262890634
outer loop
vertex 0.5035670167390189 -0.28793770614664366 1.1562745059032722
vertex 0.5165079689941448 -0.47004469016760464 1.1545707972177246
vertex 0.5035670167390186 -0.47004469016760553 1.156274505903272
endloop
endfacet
facet normal -0.4999999999999981 1.2143064331837647e-16 0.8660254037844397
outer loop
vertex 0.4915079689941449 -0.47004469016760453 1.2478720674069468
vertex 0.5035670167390186 -0.2879377061466438 1.2528670885321775
vertex 0.49150796899414506 -0.28793770614664377 1.2478720674069468
endloop
endfacet
facet normal -0.25881904510251147 -3.642919299551294e-16 0.9659258262890708
outer loop
vertex 0.5035670167390186 -0.2879377061466438 1.2528670885321775
vertex 0.4915079689941449 -0.47004469016760453 1.2478720674069468
vertex 0.5035670167390189 -0.47004469016760464 1.2528670885321775
endloop
endfacet
facet normal -0.7071067811865417 9.367506770274758e-17 0.7071067811865535
outer loop
vertex 0.48115262993481744 -0.4700446901676048 1.239926136277052
vertex 0.49150796899414506 -0.28793770614664377 1.2478720674069468
vertex 0.48115262993481744 -0.28793770614664366 1.239926136277052
endloop
endfacet
facet normal -0.499999999999998 1.2490009027033009e-16 0.8660254037844398
outer loop
vertex 0.49150796899414506 -0.28793770614664377 1.2478720674069468
vertex 0.48115262993481744 -0.4700446901676048 1.239926136277052
vertex 0.4915079689941449 -0.47004469016760453 1.2478720674069468
endloop
endfacet
facet normal -0.8660254037844398 -7.546047120499111e-16 -0.49999999999999795
outer loop
vertex 0.4732066988049228 -0.4700446901676048 1.1795707972177254
vertex 0.4811526299348172 -0.28793770614664377 1.1692154581583976
vertex 0.48115262993481744 -0.470044690167605 1.1692154581583976
endloop
endfacet
facet normal -0.7071067811865481 -4.0245584642661925e-16 -0.707106781186547
outer loop
vertex 0.4811526299348172 -0.28793770614664377 1.1692154581583976
vertex 0.4732066988049228 -0.4700446901676048 1.1795707972177254
vertex 0.47320669880492267 -0.28793770614664366 1.1795707972177252
endloop
endfacet
facet normal -0.965925826289068 -4.822531263215525e-16 -0.2588190451025223
outer loop
vertex 0.46821167767969146 -0.4700446901676056 1.1916298449625984
vertex 0.47320669880492267 -0.28793770614664366 1.1795707972177252
vertex 0.4732066988049228 -0.4700446901676048 1.1795707972177254
endloop
endfacet
facet normal -0.8660254037844383 -7.528699885739343e-16 -0.5000000000000007
outer loop
vertex 0.47320669880492267 -0.28793770614664366 1.1795707972177252
vertex 0.46821167767969146 -0.4700446901676056 1.1916298449625984
vertex 0.46821167767969124 -0.28793770614664405 1.1916298449625984
endloop
endfacet
facet normal 0.5000000000000022 1.1449174941446927e-16 0.8660254037844375
outer loop
vertex 0.5415079689941449 -0.28793770614664377 1.2478720674069463
vertex 0.5518633080534717 -0.4700446901676048 1.2399261362770522
vertex 0.551863308053472 -0.28793770614664366 1.239926136277052
endloop
endfacet
facet normal 0.7071067811865505 4.0245584642661925e-16 0.7071067811865447
outer loop
vertex 0.5518633080534717 -0.4700446901676048 1.2399261362770522
vertex 0.5415079689941449 -0.28793770614664377 1.2478720674069463
vertex 0.5415079689941447 -0.47004469016760464 1.2478720674069463
endloop
endfacet
facet normal 0.4999999999999869 -9.749145934989654e-16 -0.8660254037844461
outer loop
vertex 0.5415079689941442 -0.28793770614664366 1.1612695270285032
vertex 0.5294489212492703 -0.47004469016760553 1.1562745059032724
vertex 0.5294489212492705 -0.2879377061466436 1.1562745059032726
endloop
endfacet
facet normal 0.2588190451025378 -5.863365348801608e-16 -0.9659258262890638
outer loop
vertex 0.5294489212492703 -0.47004469016760553 1.1562745059032724
vertex 0.5415079689941442 -0.28793770614664366 1.1612695270285032
vertex 0.5415079689941444 -0.4700446901676048 1.1612695270285032
endloop
endfacet
facet normal 0.2588190451025378 -5.898059818321144e-16 -0.9659258262890638
outer loop
vertex 0.5294489212492705 -0.2879377061466436 1.1562745059032726
vertex 0.5165079689941448 -0.47004469016760464 1.1545707972177246
vertex 0.5165079689941446 -0.28793770614664377 1.1545707972177246
endloop
endfacet
facet normal 2.4101651486216464e-17 -1.3530843112619095e-16 -1.0
outer loop
vertex 0.5165079689941448 -0.47004469016760464 1.1545707972177246
vertex 0.5294489212492705 -0.2879377061466436 1.1562745059032726
vertex 0.5294489212492703 -0.47004469016760553 1.1562745059032724
endloop
endfacet
facet normal -0.7071067811865417 9.367506770274758e-17 0.7071067811865535
outer loop
vertex 0.48115262993481744 -0.4700446901676048 1.239926136277052
vertex 0.47320669880492283 -0.2879377061466437 1.2295707972177248
vertex 0.4732066988049228 -0.4700446901676048 1.229570797217725
endloop
endfacet
facet normal -0.866025403784439 2.5847379792054426e-16 0.4999999999999996
outer loop
vertex 0.47320669880492283 -0.2879377061466437 1.2295707972177248
vertex 0.48115262993481744 -0.4700446901676048 1.239926136277052
vertex 0.48115262993481744 -0.28793770614664366 1.239926136277052
endloop
endfacet
facet normal 0.2588190451025184 -3.642919299551294e-16 0.965925826289069
outer loop
vertex 0.5294489212492702 -0.28793770614664377 1.2528670885321778
vertex 0.5415079689941447 -0.47004469016760464 1.2478720674069463
vertex 0.5415079689941449 -0.28793770614664377 1.2478720674069463
endloop
endfacet
facet normal 0.5000000000000027 1.1449174941446927e-16 0.8660254037844372
outer loop
vertex 0.5415079689941447 -0.47004469016760464 1.2478720674069463
vertex 0.5294489212492702 -0.28793770614664377 1.2528670885321778
vertex 0.5294489212492705 -0.47004469016760453 1.2528670885321775
endloop
endfacet
facet normal 0.96592582628907 -2.905661822261152e-16 -0.2588190451025146
outer loop
vertex 0.5648042603085972 -0.28793770614664405 1.1916298449625984
vertex 0.5665079689941437 -0.4700446901676048 1.2045707972177246
vertex 0.5648042603085974 -0.47004469016760553 1.1916298449625986
endloop
endfacet
facet normal 1.0 -1.2299490409742727e-19 -1.8190544774116064e-15
outer loop
vertex 0.5665079689941437 -0.4700446901676048 1.2045707972177246
vertex 0.5648042603085972 -0.28793770614664405 1.1916298449625984
vertex 0.566507968994144 -0.2879377061466437 1.2045707972177246
endloop
endfacet
facet normal 0.7071067811865448 -4.926614671774132e-16 -0.7071067811865505
outer loop
vertex 0.5518633080534716 -0.28793770614664377 1.1692154581583976
vertex 0.5415079689941444 -0.4700446901676048 1.1612695270285032
vertex 0.5415079689941442 -0.28793770614664366 1.1612695270285032
endloop
endfacet
facet normal 0.4999999999999859 -9.749145934989656e-16 -0.8660254037844468
outer loop
vertex 0.5415079689941444 -0.4700446901676048 1.1612695270285032
vertex 0.5518633080534716 -0.28793770614664377 1.1692154581583976
vertex 0.5518633080534718 -0.470044690167605 1.1692154581583976
endloop
endfacet
facet normal -0.4999999999999893 -1.1796119636642288e-16 -0.8660254037844449
outer loop
vertex 0.4915079689941445 -0.47004469016760553 1.1612695270285034
vertex 0.4811526299348172 -0.28793770614664377 1.1692154581583976
vertex 0.49150796899414445 -0.28793770614664366 1.1612695270285036
endloop
endfacet
facet normal -0.7071067811865481 -4.0245584642661925e-16 -0.707106781186547
outer loop
vertex 0.4811526299348172 -0.28793770614664377 1.1692154581583976
vertex 0.4915079689941445 -0.47004469016760553 1.1612695270285034
vertex 0.48115262993481744 -0.470044690167605 1.1692154581583976
endloop
endfacet
facet normal 0.8660254037844414 -2.567390744445674e-16 -0.4999999999999953
outer loop
vertex 0.559809239183366 -0.2879377061466437 1.1795707972177247
vertex 0.5648042603085974 -0.47004469016760553 1.1916298449625986
vertex 0.5598092391833662 -0.4700446901676044 1.1795707972177247
endloop
endfacet
facet normal 0.9659258262890703 -2.905661822261152e-16 -0.2588190451025132
outer loop
vertex 0.5648042603085974 -0.47004469016760553 1.1916298449625986
vertex 0.559809239183366 -0.2879377061466437 1.1795707972177247
vertex 0.5648042603085972 -0.28793770614664405 1.1916298449625984
endloop
endfacet
facet normal -1.0 4.835885415787935e-19 -1.5972358485977075e-15
outer loop
vertex 0.4665079689941448 -0.4700446901676047 1.204570797217725
vertex 0.46821167767969124 -0.28793770614664405 1.1916298449625984
vertex 0.46821167767969146 -0.4700446901676056 1.1916298449625984
endloop
endfacet
facet normal -0.9659258262890681 -4.813857645835641e-16 -0.2588190451025222
outer loop
vertex 0.46821167767969124 -0.28793770614664405 1.1916298449625984
vertex 0.4665079689941448 -0.4700446901676047 1.204570797217725
vertex 0.466507968994145 -0.28793770614664366 1.2045707972177249
endloop
endfacet
facet normal 0.8660254037844453 7.563394355258879e-16 0.4999999999999887
outer loop
vertex 0.5598092391833662 -0.2879377061466437 1.2295707972177246
vertex 0.5518633080534717 -0.4700446901676048 1.2399261362770522
vertex 0.559809239183366 -0.47004469016760486 1.229570797217725
endloop
endfacet
facet normal 0.7071067811865505 4.0245584642661925e-16 0.7071067811865447
outer loop
vertex 0.5518633080534717 -0.4700446901676048 1.2399261362770522
vertex 0.5598092391833662 -0.2879377061466437 1.2295707972177246
vertex 0.551863308053472 -0.28793770614664366 1.239926136277052
endloop
endfacet
facet normal 0.9659258262890703 4.822531263215525e-16 0.2588190451025137
outer loop
vertex 0.5648042603085972 -0.28793770614664377 1.2175117494728507
vertex 0.559809239183366 -0.47004469016760486 1.229570797217725
vertex 0.5648042603085973 -0.4700446901676044 1.217511749472851
endloop
endfacet
facet normal 0.8660254037844447 7.528699885739343e-16 0.4999999999999897
outer loop
vertex 0.559809239183366 -0.47004469016760486 1.229570797217725
vertex 0.5648042603085972 -0.28793770614664377 1.2175117494728507
vertex 0.5598092391833662 -0.2879377061466437 1.2295707972177246
endloop
endfacet
endsolid aibo-ers7
