solid aibo-ers7
facet normal 0.9998075895030376 -0.0005134846934518001 -0.019609189315092722
outer loop
vertex -0.39868250772239155 -0.47304774085069623 0.6475589771482846
vertex -0.39633089305048225 -0.5938676813507002 0.770623798844559
vertex -0.398682507722393 -0.5970052491476672 0.6508049187384594
endloop
endfacet
facet normal 0.9998075895030376 -0.0005134846934518001 -0.019609189315092722
outer loop
vertex -0.39633089305048225 -0.5938676813507002 0.770623798844559
vertex -0.39868250772239155 -0.47304774085069623 0.6475589771482846
vertex -0.3963308930504815 -0.4699101730537323 0.7673778572543832
endloop
endfacet
facet normal -0.9998075895030379 0.0005134846934512442 0.019609189315072446
outer loop
vertex -0.5663068894682619 -0.5937928484757949 0.7734815510419043
vertex -0.5686606264643107 -0.47297573961992834 0.650308593218815
vertex -0.5686606264643115 -0.5969332479168963 0.6535545348089906
endloop
endfacet
facet normal -0.9998075895030379 0.0005134846934512442 0.019609189315072446
outer loop
vertex -0.5686606264643107 -0.47297573961992834 0.650308593218815
vertex -0.5663068894682619 -0.5937928484757949 0.7734815510419043
vertex -0.5663068894682601 -0.4698353401788266 0.7702356094517282
endloop
endfacet
facet normal 0.9998075895030246 -0.0005134846934693276 -0.01960918931576254
outer loop
vertex -0.3963308930504815 -0.4699101730537323 0.7673778572543832
vertex -0.39632877072633693 -0.5938648497065644 0.7707319349713727
vertex -0.39633089305048225 -0.5938676813507002 0.770623798844559
endloop
endfacet
facet normal 0.9998075895030246 -0.0005134846934693276 -0.01960918931576254
outer loop
vertex -0.39632877072633693 -0.5938648497065644 0.7707319349713727
vertex -0.3963308930504815 -0.4699101730537323 0.7673778572543832
vertex -0.3963287707263348 -0.4699073414095953 0.7674859933811969
endloop
endfacet
facet normal -7.1402068067321e-15 -0.9996573249755574 0.026176948307873378
outer loop
vertex -0.398682507722393 -0.5970052491476672 0.6508049187384594
vertex -0.5663068894682619 -0.5937928484757949 0.7734815510419043
vertex -0.5686606264643115 -0.5969332479168963 0.6535545348089906
endloop
endfacet
facet normal -7.1402068067321e-15 -0.9996573249755574 0.026176948307873378
outer loop
vertex -0.5663068894682619 -0.5937928484757949 0.7734815510419043
vertex -0.398682507722393 -0.5970052491476672 0.6508049187384594
vertex -0.39633089305048225 -0.5938676813507002 0.770623798844559
endloop
endfacet
facet normal -0.016179721188820353 -0.026173521738631335 -0.9995264695754934
outer loop
vertex -0.398682507722393 -0.5970052491476672 0.6508049187384594
vertex -0.5686606264643107 -0.47297573961992834 0.650308593218815
vertex -0.39868250772239155 -0.47304774085069623 0.6475589771482846
endloop
endfacet
facet normal -0.016179721188820353 -0.026173521738631335 -0.9995264695754934
outer loop
vertex -0.5686606264643107 -0.47297573961992834 0.650308593218815
vertex -0.398682507722393 -0.5970052491476672 0.6508049187384594
vertex -0.5686606264643115 -0.5969332479168963 0.6535545348089906
endloop
endfacet
facet normal 6.611276036824746e-15 0.9996573249755574 -0.026176948307873274
outer loop
vertex -0.5663068894682601 -0.4698353401788266 0.7702356094517282
vertex -0.39868250772239155 -0.47304774085069623 0.6475589771482846
vertex -0.5686606264643107 -0.47297573961992834 0.650308593218815
endloop
endfacet
facet normal 6.611276036824746e-15 0.9996573249755574 -0.026176948307873274
outer loop
vertex -0.39868250772239155 -0.47304774085069623 0.6475589771482846
vertex -0.5663068894682601 -0.4698353401788266 0.7702356094517282
vertex -0.3963308930504815 -0.4699101730537323 0.7673778572543832
endloop
endfacet
facet normal 0.01681606608460236 0.026173246886433497 0.9995159733935521
outer loop
vertex -0.5663068894682619 -0.5937928484757949 0.7734815510419043
vertex -0.3963308930504815 -0.4699101730537323 0.7673778572543832
vertex -0.5663068894682601 -0.4698353401788266 0.7702356094517282
endloop
endfacet
facet normal 0.01681606608460236 0.026173246886433497 0.9995159733935521
outer loop
vertex -0.3963308930504815 -0.4699101730537323 0.7673778572543832
vertex -0.5663068894682619 -0.5937928484757949 0.7734815510419043
vertex -0.39633089305048225 -0.5938676813507002 0.770623798844559
endloop
endfacet
facet normal -0.017452406437284178 -0.0261729614318548 -0.9995050723230146
outer loop
vertex -0.3463383912511836 -0.39945717423349136 0.7646600590597364
vertex -0.6162972689434095 -0.6642430156519 0.7763074853633625
vertex -0.6162972689434063 -0.3993338245333769 0.7693705940617772
endloop
endfacet
facet normal -0.017452406437284178 -0.0261729614318548 -0.9995050723230146
outer loop
vertex -0.6162972689434095 -0.6642430156519 0.7763074853633625
vertex -0.3463383912511836 -0.39945717423349136 0.7646600590597364
vertex -0.346338391251185 -0.6643663653520133 0.7715969503613219
endloop
endfacet
facet normal -0.9998476951563912 0.0004568507411670024 0.017446425933482834
outer loop
vertex -0.6115795964202537 -0.6571680336750317 1.0464901466141743
vertex -0.6162972689434063 -0.3993338245333769 0.7693705940617772
vertex -0.6162972689434095 -0.6642430156519 0.7763074853633625
endloop
endfacet
facet normal -0.9998476951563912 0.0004568507411670024 0.017446425933482834
outer loop
vertex -0.6162972689434063 -0.3993338245333769 0.7693705940617772
vertex -0.6115795964202537 -0.6571680336750317 1.0464901466141743
vertex -0.6111402053519166 -0.39159989815670176 1.0647173267035972
endloop
endfacet
facet normal -0.9997748879392574 0.0005554039350961396 0.02121002056845845
outer loop
vertex -0.6111402053519166 -0.39159989815670176 1.0647173267035972
vertex -0.6115795964202537 -0.6571680336750317 1.0464901466141743
vertex -0.6111402053519188 -0.6555995965831254 1.071630402100882
endloop
endfacet
facet normal 0.00031518455546806655 -0.9990216170451673 0.04422340257324446
outer loop
vertex -0.3416207187280273 -0.657291383375146 1.0417796116121338
vertex -0.6111402053519188 -0.6555995965831254 1.071630402100882
vertex -0.6115795964202537 -0.6571680336750317 1.0464901466141743
endloop
endfacet
facet normal 0.0006302663046836 -0.9980600502643217 0.06225543213860804
outer loop
vertex -0.6111402053519188 -0.6555995965831254 1.071630402100882
vertex -0.3416207187280273 -0.657291383375146 1.0417796116121338
vertex -0.34118132765968323 -0.655722946283208 1.0669198670993243
endloop
endfacet
facet normal 0.9998476951563914 -0.0004568507411630816 -0.017446425933480864
outer loop
vertex -0.3463383912511836 -0.39945717423349136 0.7646600590597364
vertex -0.3416207187280273 -0.657291383375146 1.0417796116121338
vertex -0.346338391251185 -0.6643663653520133 0.7715969503613219
endloop
endfacet
facet normal 0.9998476951563914 -0.0004568507411630816 -0.017446425933480864
outer loop
vertex -0.3416207187280273 -0.657291383375146 1.0417796116121338
vertex -0.3463383912511836 -0.39945717423349136 0.7646600590597364
vertex -0.3411813276596917 -0.39172324785681517 1.0600067917015559
endloop
endfacet
facet normal 0.9998476951563914 -0.0004568507411630816 -0.017446425933480864
outer loop
vertex -0.3416207187280273 -0.657291383375146 1.0417796116121338
vertex -0.3411813276596917 -0.39172324785681517 1.0600067917015559
vertex -0.34118132765968323 -0.655722946283208 1.0669198670993243
endloop
endfacet
facet normal -8.301740049075142e-15 -0.9996573249755574 0.02617694830787363
outer loop
vertex -0.6162972689434095 -0.6642430156519 0.7763074853633625
vertex -0.3416207187280273 -0.657291383375146 1.0417796116121338
vertex -0.6115795964202537 -0.6571680336750317 1.0464901466141743
endloop
endfacet
facet normal 0.00031518455546806655 -0.9990216170451673 0.04422340257324446
outer loop
vertex -0.3416207187280273 -0.657291383375146 1.0417796116121338
vertex -0.6162972689434095 -0.6642430156519 0.7763074853633625
vertex -0.346338391251185 -0.6643663653520133 0.7715969503613219
endloop
endfacet
facet normal 8.780139399332682e-15 0.9996573249755574 -0.026176948307873198
outer loop
vertex -0.6105216847615874 -0.3909519912919061 1.0894598916381373
vertex -0.6162972689434063 -0.3993338245333769 0.7693705940617772
vertex -0.6111402053519166 -0.39159989815670176 1.0647173267035972
endloop
endfacet
facet normal 8.780139399332682e-15 0.9996573249755574 -0.026176948307873198
outer loop
vertex -0.6162972689434063 -0.3993338245333769 0.7693705940617772
vertex -0.6105216847615874 -0.3909519912919061 1.0894598916381373
vertex -0.3463383912511836 -0.39945717423349136 0.7646600590597364
endloop
endfacet
facet normal 8.780139399332682e-15 0.9996573249755574 -0.026176948307873198
outer loop
vertex -0.3463383912511836 -0.39945717423349136 0.7646600590597364
vertex -0.6105216847615874 -0.3909519912919061 1.0894598916381373
vertex -0.6095304391664291 -0.390304401787821 1.1141903370560864
endloop
endfacet
facet normal 8.780139399332682e-15 0.9996573249755574 -0.026176948307873198
outer loop
vertex -0.3463383912511836 -0.39945717423349136 0.7646600590597364
vertex -0.6095304391664291 -0.390304401787821 1.1141903370560864
vertex -0.608166693450826 -0.38965727656340726 1.1389030523486894
endloop
endfacet
facet normal 8.780139399332682e-15 0.9996573249755574 -0.026176948307873198
outer loop
vertex -0.3463383912511836 -0.39945717423349136 0.7646600590597364
vertex -0.608166693450826 -0.38965727656340726 1.1389030523486894
vertex -0.6064307570084714 -0.38901076243229393 1.16359243092962
endloop
endfacet
facet normal 8.780139399332682e-15 0.9996573249755574 -0.026176948307873198
outer loop
vertex -0.3463383912511836 -0.39945717423349136 0.7646600590597364
vertex -0.6064307570084714 -0.38901076243229393 1.16359243092962
vertex -0.6043230236721495 -0.38836500606947466 1.1882528715069673
endloop
endfacet
facet normal 8.780139399332682e-15 0.9996573249755574 -0.026176948307873198
outer loop
vertex -0.3463383912511836 -0.39945717423349136 0.7646600590597364
vertex -0.6043230236721495 -0.38836500606947466 1.1882528715069673
vertex -0.6018439716243985 -0.3877201539780206 1.212878779354002
endloop
endfacet
facet normal 8.780139399332682e-15 0.9996573249755574 -0.026176948307873198
outer loop
vertex -0.3463383912511836 -0.39945717423349136 0.7646600590597364
vertex -0.6018439716243985 -0.3877201539780206 1.212878779354002
vertex -0.598994163289017 -0.38707635245585925 1.2374645675784555
endloop
endfacet
facet normal 8.780139399332682e-15 0.9996573249755574 -0.026176948307873198
outer loop
vertex -0.3463383912511836 -0.39945717423349136 0.7646600590597364
vertex -0.598994163289017 -0.38707635245585925 1.2374645675784555
vertex -0.5957742452034801 -0.3864337475625667 1.2620046583900135
endloop
endfacet
facet normal 8.780139399332682e-15 0.9996573249755574 -0.026176948307873198
outer loop
vertex -0.3463383912511836 -0.39945717423349136 0.7646600590597364
vertex -0.5957742452034801 -0.3864337475625667 1.2620046583900135
vertex -0.5921849478722397 -0.3857924850862449 1.2864934843657636
endloop
endfacet
facet normal 8.780139399332682e-15 0.9996573249755574 -0.026176948307873198
outer loop
vertex -0.3463383912511836 -0.39945717423349136 0.7646600590597364
vertex -0.5921849478722397 -0.3857924850862449 1.2864934843657636
vertex -0.5882270856010188 -0.38515271051043704 1.3109254897132623
endloop
endfacet
facet normal 8.780139399332682e-15 0.9996573249755574 -0.026176948307873198
outer loop
vertex -0.3463383912511836 -0.39945717423349136 0.7646600590597364
vertex -0.5882270856010188 -0.38515271051043704 1.3109254897132623
vertex -0.5839015563120434 -0.3845145689811281 1.3352951315310027
endloop
endfacet
facet normal 8.780139399332682e-15 0.9996573249755574 -0.026176948307873198
outer loop
vertex -0.3463383912511836 -0.39945717423349136 0.7646600590597364
vertex -0.5839015563120434 -0.3845145689811281 1.3352951315310027
vertex -0.5792093413403552 -0.3838782052738138 1.3595968810659096
endloop
endfacet
facet normal 8.780139399332682e-15 0.9996573249755574 -0.026176948307873198
outer loop
vertex -0.3463383912511836 -0.39945717423349136 0.7646600590597364
vertex -0.5792093413403552 -0.3838782052738138 1.3595968810659096
vertex -0.5330037014761123 -0.38389931757013734 1.3587906349971295
endloop
endfacet
facet normal 8.780139399332682e-15 0.9996573249755574 -0.026176948307873198
outer loop
vertex -0.3463383912511836 -0.39945717423349136 0.7646600590597364
vertex -0.5330037014761123 -0.38389931757013734 1.3587906349971295
vertex -0.4090225872767198 -0.3839559670620408 1.3566272781813762
endloop
endfacet
facet normal 8.780139399332682e-15 0.9996573249755574 -0.026176948307873198
outer loop
vertex -0.3463383912511836 -0.39945717423349136 0.7646600590597364
vertex -0.4090225872767198 -0.3839559670620408 1.3566272781813762
vertex -0.3627980644882712 -0.38397708798635655 1.3558207026228715
endloop
endfacet
facet normal 8.780139399332682e-15 0.9996573249755574 -0.026176948307873198
outer loop
vertex -0.3463383912511836 -0.39945717423349136 0.7646600590597364
vertex -0.3627980644882712 -0.38397708798635655 1.3558207026228715
vertex -0.3589571174436848 -0.3846173506688953 1.3313700572313072
endloop
endfacet
facet normal 8.780139399332682e-15 0.9996573249755574 -0.026176948307873198
outer loop
vertex -0.3463383912511836 -0.39945717423349136 0.7646600590597364
vertex -0.3589571174436848 -0.3846173506688953 1.3313700572313072
vertex -0.35548500292552104 -0.3852590551002032 1.3068643536755717
endloop
endfacet
facet normal 8.780139399332682e-15 0.9996573249755574 -0.026176948307873198
outer loop
vertex -0.3463383912511836 -0.39945717423349136 0.7646600590597364
vertex -0.35548500292552104 -0.3852590551002032 1.3068643536755717
vertex -0.35238250865417065 -0.3859020556964693 1.2823091515771248
endloop
endfacet
facet normal 8.780139399332682e-15 0.9996573249755574 -0.026176948307873198
outer loop
vertex -0.3463383912511836 -0.39945717423349136 0.7646600590597364
vertex -0.35238250865417065 -0.3859020556964693 1.2823091515771248
vertex -0.3496503384940913 -0.3865462065798195 1.2577100217871904
endloop
endfacet
facet normal 8.780139399332682e-15 0.9996573249755574 -0.026176948307873198
outer loop
vertex -0.3463383912511836 -0.39945717423349136 0.7646600590597364
vertex -0.3496503384940913 -0.3865462065798195 1.2577100217871904
vertex -0.34728911229411874 -0.38719136161141277 1.2330725451228952
endloop
endfacet
facet normal 8.780139399332682e-15 0.9996573249755574 -0.026176948307873198
outer loop
vertex -0.3463383912511836 -0.39945717423349136 0.7646600590597364
vertex -0.34728911229411874 -0.38719136161141277 1.2330725451228952
vertex -0.3452993657468439 -0.38783737442459915 1.2084023111011275
endloop
endfacet
facet normal 8.780139399332682e-15 0.9996573249755574 -0.026176948307873198
outer loop
vertex -0.3463383912511836 -0.39945717423349136 0.7646600590597364
vertex -0.3452993657468439 -0.38783737442459915 1.2084023111011275
vertex -0.3436815502670846 -0.38848409845812504 1.1837049166704587
endloop
endfacet
facet normal 8.780139399332682e-15 0.9996573249755574 -0.026176948307873198
outer loop
vertex -0.3463383912511836 -0.39945717423349136 0.7646600590597364
vertex -0.3436815502670846 -0.38848409845812504 1.1837049166704587
vertex -0.34243603288946517 -0.38913138698937744 1.158985964941365
endloop
endfacet
facet normal 8.780139399332682e-15 0.9996573249755574 -0.026176948307873198
outer loop
vertex -0.3463383912511836 -0.39945717423349136 0.7646600590597364
vertex -0.34243603288946517 -0.38913138698937744 1.158985964941365
vertex -0.3415630961851404 -0.3897790931676738 1.134251063915022
endloop
endfacet
facet normal 8.780139399332682e-15 0.9996573249755574 -0.026176948307873198
outer loop
vertex -0.3463383912511836 -0.39945717423349136 0.7646600590597364
vertex -0.3415630961851404 -0.3897790931676738 1.134251063915022
vertex -0.34106293819771455 -0.3904270700475855 1.1095058252110457
endloop
endfacet
facet normal 8.780139399332682e-15 0.9996573249755574 -0.026176948307873198
outer loop
vertex -0.3463383912511836 -0.39945717423349136 0.7646600590597364
vertex -0.34106293819771455 -0.3904270700475855 1.1095058252110457
vertex -0.34093567239827854 -0.3910751706222692 1.084755862794358
endloop
endfacet
facet normal 8.780139399332682e-15 0.9996573249755574 -0.026176948307873198
outer loop
vertex -0.3463383912511836 -0.39945717423349136 0.7646600590597364
vertex -0.34093567239827854 -0.3910751706222692 1.084755862794358
vertex -0.3411813276596917 -0.39172324785681517 1.0600067917015559
endloop
endfacet
facet normal -0.9818773892917113 0.004960983557137072 0.18945231864466316
outer loop
vertex -0.5831508005297731 -0.5233918429757286 1.3428227142517684
vertex -0.5839015563120434 -0.3845145689811281 1.3352951315310027
vertex -0.5839015563120445 -0.5271904027942682 1.3390312297250502
endloop
endfacet
facet normal -0.9832768194834647 0.004767274092128458 0.1820548526247313
outer loop
vertex -0.5839015563120434 -0.3845145689811281 1.3352951315310027
vertex -0.5831508005297731 -0.5233918429757286 1.3428227142517684
vertex -0.5792093413403552 -0.3838782052738138 1.3595968810659096
endloop
endfacet
facet normal -0.9818773892917113 0.004960983557137072 0.18945231864466316
outer loop
vertex -0.5792093413403552 -0.3838782052738138 1.3595968810659096
vertex -0.5831508005297731 -0.5233918429757286 1.3428227142517684
vertex -0.5792093413403554 -0.5004292219978522 1.3626488768486562
endloop
endfacet
facet normal -0.9943946884344126 0.0027677346353864422 0.10569552146810979
outer loop
vertex -0.6018439716243987 -0.6150610379851428 1.2188319099120843
vertex -0.598994163289017 -0.38707635245585925 1.2374645675784555
vertex -0.6018439716243985 -0.3877201539780206 1.212878779354002
endloop
endfacet
facet normal -0.9924585418746766 0.0032087902114277035 0.12253875438150134
outer loop
vertex -0.598994163289017 -0.38707635245585925 1.2374645675784555
vertex -0.6018439716243987 -0.6150610379851428 1.2188319099120843
vertex -0.6014802180419462 -0.613659454970772 1.2219355249357406
endloop
endfacet
facet normal -0.9924585418746766 0.0032087902114277035 0.12253875438150134
outer loop
vertex -0.598994163289017 -0.38707635245585925 1.2374645675784555
vertex -0.6014802180419462 -0.613659454970772 1.2219355249357406
vertex -0.5989941632890184 -0.6021942348240997 1.243097627574279
endloop
endfacet
facet normal -0.9864488311199836 0.004294831062522342 0.1640129812184475
outer loop
vertex -0.588227085601019 -0.5501818578135156 1.3152469300211713
vertex -0.5839015563120434 -0.3845145689811281 1.3352951315310027
vertex -0.5882270856010188 -0.38515271051043704 1.3109254897132623
endloop
endfacet
facet normal -0.9832768194834647 0.004767274092128458 0.1820548526247313
outer loop
vertex -0.5839015563120434 -0.3845145689811281 1.3352951315310027
vertex -0.588227085601019 -0.5501818578135156 1.3152469300211713
vertex -0.5871125583106188 -0.5448587751816962 1.3213909920381546
endloop
endfacet
facet normal -0.9832768194834647 0.004767274092128458 0.1820548526247313
outer loop
vertex -0.5839015563120434 -0.3845145689811281 1.3352951315310027
vertex -0.5871125583106188 -0.5448587751816962 1.3213909920381546
vertex -0.5839015563120445 -0.5271904027942682 1.3390312297250502
endloop
endfacet
facet normal -0.9871401888700453 0.004184567366886957 0.1598021805657339
outer loop
vertex -0.591005541443349 -0.5647180628956064 1.2984643198837884
vertex -0.5921849478722397 -0.3857924850862449 1.2864934843657636
vertex -0.5921849478722409 -0.5700550652945893 1.291318569839234
endloop
endfacet
facet normal -0.9883160947974955 0.003989842404261018 0.15236593425637243
outer loop
vertex -0.5921849478722397 -0.3857924850862449 1.2864934843657636
vertex -0.591005541443349 -0.5647180628956064 1.2984643198837884
vertex -0.5882270856010188 -0.38515271051043704 1.3109254897132623
endloop
endfacet
facet normal -0.9859082938991827 0.004379054987414005 0.1672293631460102
outer loop
vertex -0.5882270856010188 -0.38515271051043704 1.3109254897132623
vertex -0.591005541443349 -0.5647180628956064 1.2984643198837884
vertex -0.588227085601019 -0.5501818578135156 1.3152469300211713
endloop
endfacet
facet normal -0.990851395165886 0.003532774133000679 0.13491120118338035
outer loop
vertex -0.595774245203483 -0.5872779321821364 1.2672639484560908
vertex -0.5921849478722397 -0.3857924850862449 1.2864934843657636
vertex -0.5957742452034801 -0.3864337475625667 1.2620046583900135
endloop
endfacet
facet normal -0.9883160947974955 0.003989842404261018 0.15236593425637243
outer loop
vertex -0.5921849478722397 -0.3857924850862449 1.2864934843657636
vertex -0.595774245203483 -0.5872779321821364 1.2672639484560908
vertex -0.5947470933888251 -0.5828661342605964 1.2741612119052164
endloop
endfacet
facet normal -0.9883160947974955 0.003989842404261018 0.15236593425637243
outer loop
vertex -0.5921849478722397 -0.3857924850862449 1.2864934843657636
vertex -0.5947470933888251 -0.5828661342605964 1.2741612119052164
vertex -0.5921849478722409 -0.5700550652945893 1.291318569839234
endloop
endfacet
facet normal -0.991507227264521 0.003404353972286555 0.13000703310303216
outer loop
vertex -0.5982614573697168 -0.599208341564813 1.248607469309569
vertex -0.598994163289017 -0.38707635245585925 1.2374645675784555
vertex -0.5989941632890184 -0.6021942348240997 1.243097627574279
endloop
endfacet
facet normal -0.9924585418746766 0.0032087902114277035 0.12253875438150134
outer loop
vertex -0.598994163289017 -0.38707635245585925 1.2374645675784555
vertex -0.5982614573697168 -0.599208341564813 1.248607469309569
vertex -0.5957742452034801 -0.3864337475625667 1.2620046583900135
endloop
endfacet
facet normal -0.9904996759193816 0.0035997246435270237 0.13746793802953042
outer loop
vertex -0.5957742452034801 -0.3864337475625667 1.2620046583900135
vertex -0.5982614573697168 -0.599208341564813 1.248607469309569
vertex -0.595774245203483 -0.5872779321821364 1.2672639484560908
endloop
endfacet
facet normal -0.9958745970120729 0.0023753019763299485 0.09070912284088478
outer loop
vertex -0.6043230236721523 -0.6260568363918454 1.1944770511334257
vertex -0.6018439716243985 -0.3877201539780206 1.212878779354002
vertex -0.6043230236721495 -0.38836500606947466 1.1882528715069673
endloop
endfacet
facet normal -0.9941922482544647 0.0028171277994571055 0.10758177030377652
outer loop
vertex -0.6018439716243985 -0.3877201539780206 1.212878779354002
vertex -0.6043230236721523 -0.6260568363918454 1.1944770511334257
vertex -0.6018439716243987 -0.6150610379851428 1.2188319099120843
endloop
endfacet
facet normal -0.9963697872075392 0.002228463633365913 0.08510159275735169
outer loop
vertex -0.6043397331886847 -0.6261441084721681 1.194283701347101
vertex -0.6064307570084714 -0.38901076243229393 1.16359243092962
vertex -0.6064307570084745 -0.6350416869616463 1.1700349774229402
endloop
endfacet
facet normal -0.9969826601514228 0.002031974607503195 0.07759797959088274
outer loop
vertex -0.6064307570084714 -0.38901076243229393 1.16359243092962
vertex -0.6043397331886847 -0.6261441084721681 1.194283701347101
vertex -0.6043230236721495 -0.38836500606947466 1.1882528715069673
endloop
endfacet
facet normal -0.9957004017318967 0.0024248262642659947 0.09260037909494749
outer loop
vertex -0.6043230236721495 -0.38836500606947466 1.1882528715069673
vertex -0.6043397331886847 -0.6261441084721681 1.194283701347101
vertex -0.6043230236721523 -0.6260568363918454 1.1944770511334257
endloop
endfacet
facet normal -0.9981138101930969 0.0016070220024474102 0.06136969432955204
outer loop
vertex -0.6081666934508283 -0.6424111971723259 1.1455216466900622
vertex -0.6064307570084714 -0.38901076243229393 1.16359243092962
vertex -0.608166693450826 -0.38965727656340726 1.1389030523486894
endloop
endfacet
facet normal -0.9969826601514228 0.002031974607503195 0.07759797959088274
outer loop
vertex -0.6064307570084714 -0.38901076243229393 1.16359243092962
vertex -0.6081666934508283 -0.6424111971723259 1.1455216466900622
vertex -0.6067315588731466 -0.6365972158606776 1.1657946184126142
endloop
endfacet
facet normal -0.9969826601514228 0.002031974607503195 0.07759797959088274
outer loop
vertex -0.6064307570084714 -0.38901076243229393 1.16359243092962
vertex -0.6067315588731466 -0.6365972158606776 1.1657946184126142
vertex -0.6064307570084745 -0.6350416869616463 1.1700349774229402
endloop
endfacet
facet normal -0.9989091687640739 0.0012223464854224971 0.04667952900508611
outer loop
vertex -0.6095304391664311 -0.6482543792247941 1.120944994934026
vertex -0.608166693450826 -0.38965727656340726 1.1389030523486894
vertex -0.6095304391664291 -0.390304401787821 1.1141903370560864
endloop
endfacet
facet normal -0.99803873260642 0.0016386619556249937 0.06257797539363322
outer loop
vertex -0.608166693450826 -0.38965727656340726 1.1389030523486894
vertex -0.6095304391664311 -0.6482543792247941 1.120944994934026
vertex -0.6086614254359777 -0.6449642378816144 1.1366172134130093
endloop
endfacet
facet normal -0.99803873260642 0.0016386619556249937 0.06257797539363322
outer loop
vertex -0.608166693450826 -0.38965727656340726 1.1389030523486894
vertex -0.6086614254359777 -0.6449642378816144 1.1366172134130093
vertex -0.6081666934508283 -0.6424111971723259 1.1455216466900622
endloop
endfacet
facet normal -0.9991982325436308 0.001048023828487191 0.0400224153161615
outer loop
vertex -0.6100959642191538 -0.6512015367699716 1.1069032901201188
vertex -0.6105216847615874 -0.3909519912919061 1.0894598916381373
vertex -0.6105216847615922 -0.6526357808992272 1.0963123228287224
endloop
endfacet
facet normal -0.9994714126253275 0.0008510106750326899 0.03249878652447917
outer loop
vertex -0.6105216847615874 -0.3909519912919061 1.0894598916381373
vertex -0.6100959642191538 -0.6512015367699716 1.1069032901201188
vertex -0.6095304391664291 -0.390304401787821 1.1141903370560864
endloop
endfacet
facet normal -0.9988683795051928 0.001244977539673544 0.04754377409920115
outer loop
vertex -0.6095304391664291 -0.390304401787821 1.1141903370560864
vertex -0.6100959642191538 -0.6512015367699716 1.1069032901201188
vertex -0.6095304391664311 -0.6482543792247941 1.120944994934026
endloop
endfacet
facet normal -0.9997767214153654 0.000553137757864108 0.021123478751472687
outer loop
vertex -0.6111402053519188 -0.6555995965831254 1.071630402100882
vertex -0.6105216847615874 -0.3909519912919061 1.0894598916381373
vertex -0.6111402053519166 -0.39159989815670176 1.0647173267035972
endloop
endfacet
facet normal -0.9994714126253275 0.0008510106750326899 0.03249878652447917
outer loop
vertex -0.6105216847615874 -0.3909519912919061 1.0894598916381373
vertex -0.6111402053519188 -0.6555995965831254 1.071630402100882
vertex -0.6110106628795446 -0.6552765820642119 1.07680756061791
endloop
endfacet
facet normal -0.9994714126253275 0.0008510106750326899 0.03249878652447917
outer loop
vertex -0.6105216847615874 -0.3909519912919061 1.0894598916381373
vertex -0.6110106628795446 -0.6552765820642119 1.07680756061791
vertex -0.6105216847615922 -0.6526357808992272 1.0963123228287224
endloop
endfacet
facet normal 0.01745240643728919 0.026172961431858602 0.9995050723230143
outer loop
vertex -0.5792093413403554 -0.5004292219978522 1.3626488768486562
vertex -0.5330037014761123 -0.38389931757013734 1.3587906349971295
vertex -0.5792093413403552 -0.3838782052738138 1.3595968810659096
endloop
endfacet
facet normal 0.01745240643728919 0.026172961431858602 0.9995050723230143
outer loop
vertex -0.5330037014761123 -0.38389931757013734 1.3587906349971295
vertex -0.5792093413403554 -0.5004292219978522 1.3626488768486562
vertex -0.5330037014761123 -0.46887137805243456 1.361015706708492
endloop
endfacet
facet normal 0.01745240643728919 0.026172961431858602 0.9995050723230143
outer loop
vertex -0.4090225872767201 -0.4689280275443374 1.358852349892739
vertex -0.3627980644882712 -0.38397708798635655 1.3558207026228715
vertex -0.4090225872767198 -0.3839559670620408 1.3566272781813762
endloop
endfacet
facet normal 0.01745240643728919 0.026172961431858602 0.9995050723230143
outer loop
vertex -0.3627980644882712 -0.38397708798635655 1.3558207026228715
vertex -0.4090225872767201 -0.4689280275443374 1.358852349892739
vertex -0.3627980644882704 -0.5005281047103949 1.3588726984056172
endloop
endfacet
facet normal 0.01745240643728919 0.026172961431858602 0.9995050723230143
outer loop
vertex -0.3627980644882704 -0.5005281047103949 1.3588726984056172
vertex -0.4090225872767201 -0.4689280275443374 1.358852349892739
vertex -0.5330037014761123 -0.46887137805243456 1.361015706708492
endloop
endfacet
facet normal 0.01745240643728919 0.026172961431858602 0.9995050723230143
outer loop
vertex -0.3627980644882704 -0.5005281047103949 1.3588726984056172
vertex -0.5330037014761123 -0.46887137805243456 1.361015706708492
vertex -0.5792093413403554 -0.5004292219978522 1.3626488768486562
endloop
endfacet
facet normal 0.017452406437286395 0.02617296143186112 0.9995050723230144
outer loop
vertex -0.5330037014761123 -0.46887137805243456 1.361015706708492
vertex -0.4090225872767198 -0.3839559670620408 1.3566272781813762
vertex -0.5330037014761123 -0.38389931757013734 1.3587906349971295
endloop
endfacet
facet normal 0.017452406437286395 0.02617296143186112 0.9995050723230144
outer loop
vertex -0.4090225872767198 -0.3839559670620408 1.3566272781813762
vertex -0.5330037014761123 -0.46887137805243456 1.361015706708492
vertex -0.4090225872767201 -0.4689280275443374 1.358852349892739
endloop
endfacet
facet normal 0.9878933131575695 0.004060955273147885 0.1550816251553675
outer loop
vertex -0.3627980644882712 -0.38397708798635655 1.3558207026228715
vertex -0.3589571174436843 -0.5272931844820362 1.3351061554253576
vertex -0.3589571174436848 -0.3846173506688953 1.3313700572313072
endloop
endfacet
facet normal 0.9895592559826124 0.0037727947461223574 0.14407721859802203
outer loop
vertex -0.3589571174436843 -0.5272931844820362 1.3351061554253576
vertex -0.3627980644882712 -0.38397708798635655 1.3558207026228715
vertex -0.3595716701060227 -0.5234940008263059 1.338921463333148
endloop
endfacet
facet normal 0.9878933131575695 0.004060955273147885 0.1550816251553675
outer loop
vertex -0.3595716701060227 -0.5234940008263059 1.338921463333148
vertex -0.3627980644882712 -0.38397708798635655 1.3558207026228715
vertex -0.3627980644882704 -0.5005281047103949 1.3588726984056172
endloop
endfacet
facet normal 0.9890336345152966 0.0038660853440172726 0.1476398427985342
outer loop
vertex -0.3589571174436848 -0.3846173506688953 1.3313700572313072
vertex -0.3554850029255206 -0.5502882024032825 1.3111857939834815
vertex -0.35548500292552104 -0.3852590551002032 1.3068643536755717
endloop
endfacet
facet normal 0.9915738457763257 0.003391032283626704 0.12949829833785045
outer loop
vertex -0.3554850029255206 -0.5502882024032825 1.3111857939834815
vertex -0.3589571174436848 -0.3846173506688953 1.3313700572313072
vertex -0.3563796371141631 -0.5449642017447335 1.317364914026902
endloop
endfacet
facet normal 0.9901178594363408 0.003670996136589001 0.14018968654135605
outer loop
vertex -0.3563796371141631 -0.5449642017447335 1.317364914026902
vertex -0.3589571174436848 -0.3846173506688953 1.3313700572313072
vertex -0.3589571174436843 -0.5272931844820362 1.3351061554253576
endloop
endfacet
facet normal 0.9911459264251649 0.003475698716017016 0.1327315789450172
outer loop
vertex -0.35548500292552104 -0.3852590551002032 1.3068643536755717
vertex -0.3523825086541688 -0.5701646359048151 1.2871342370505965
vertex -0.35238250865417065 -0.3859020556964693 1.2823091515771248
endloop
endfacet
facet normal 0.9933734755225816 0.003008543229440386 0.11489163066047801
outer loop
vertex -0.3523825086541688 -0.5701646359048151 1.2871342370505965
vertex -0.35548500292552104 -0.3852590551002032 1.3068643536755717
vertex -0.3533070233134687 -0.5648266721815078 1.294316698589925
endloop
endfacet
facet normal 0.9921177771714218 0.0032802041592646775 0.125265943021679
outer loop
vertex -0.3533070233134687 -0.5648266721815078 1.294316698589925
vertex -0.35548500292552104 -0.3852590551002032 1.3068643536755717
vertex -0.3554850029255206 -0.5502882024032825 1.3111857939834815
endloop
endfacet
facet normal 0.9930333565532632 0.003084523554476332 0.11779320221049189
outer loop
vertex -0.35238250865417065 -0.3859020556964693 1.2823091515771248
vertex -0.3496503384940883 -0.5873903911993896 1.262969311853269
vertex -0.3496503384940913 -0.3865462065798195 1.2577100217871904
endloop
endfacet
facet normal 0.9949577422698931 0.0026254175619676574 0.10026065170256154
outer loop
vertex -0.3496503384940883 -0.5873903911993896 1.262969311853269
vertex -0.35238250865417065 -0.3859020556964693 1.2823091515771248
vertex -0.3504322056059177 -0.5829777667003194 1.2698981410247212
endloop
endfacet
facet normal 0.9938926126404605 0.0028886680003493196 0.11031378035360608
outer loop
vertex -0.3504322056059177 -0.5829777667003194 1.2698981410247212
vertex -0.35238250865417065 -0.3859020556964693 1.2823091515771248
vertex -0.3523825086541688 -0.5701646359048151 1.2871342370505965
endloop
endfacet
facet normal 0.9946954966973545 0.0026926486055032766 0.10282810167211354
outer loop
vertex -0.3496503384940913 -0.3865462065798195 1.2577100217871904
vertex -0.34728911229411613 -0.6023092439796534 1.2387056051187217
vertex -0.34728911229411874 -0.38719136161141277 1.2330725451228952
endloop
endfacet
facet normal 0.996326312142046 0.002241743438584787 0.08560872805845124
outer loop
vertex -0.34728911229411613 -0.6023092439796534 1.2387056051187217
vertex -0.3496503384940913 -0.3865462065798195 1.2577100217871904
vertex -0.34782641925894414 -0.599322770425657 1.2442376074148886
endloop
endfacet
facet normal 0.9954419631856226 0.002496476487851121 0.0953365907419561
outer loop
vertex -0.34782641925894414 -0.599322770425657 1.2442376074148886
vertex -0.3496503384940913 -0.3865462065798195 1.2577100217871904
vertex -0.3496503384940883 -0.5873903911993896 1.262969311853269
endloop
endfacet
facet normal 0.9961319697668569 0.0023001627739675894 0.08783967246987445
outer loop
vertex -0.34728911229411874 -0.38719136161141277 1.2330725451228952
vertex -0.3452993657468428 -0.6151782584317216 1.2143554416592095
vertex -0.3452993657468439 -0.38783737442459915 1.2084023111011275
endloop
endfacet
facet normal 0.9974789150264992 0.001857607086520093 0.07093915261313923
outer loop
vertex -0.3452993657468428 -0.6151782584317216 1.2143554416592095
vertex -0.34728911229411874 -0.38719136161141277 1.2330725451228952
vertex -0.3455533398214362 -0.6137763931650246 1.2174698354643434
endloop
endfacet
facet normal 0.9967654773049655 0.0021037185984587956 0.08033777206932663
outer loop
vertex -0.3455533398214362 -0.6137763931650246 1.2174698354643434
vertex -0.34728911229411874 -0.38719136161141277 1.2330725451228952
vertex -0.34728911229411613 -0.6023092439796534 1.2387056051187217
endloop
endfacet
facet normal 0.9973424498683928 0.0019071551033305561 0.07283131503635129
outer loop
vertex -0.3452993657468439 -0.38783737442459915 1.2084023111011275
vertex -0.34368155026708197 -0.6261759287804975 1.1899290962969193
vertex -0.3436815502670846 -0.38848409845812504 1.1837049166704587
endloop
endfacet
facet normal 0.9984347250278016 0.001464061498120489 0.0559102529290289
outer loop
vertex -0.34368155026708197 -0.6261759287804975 1.1899290962969193
vertex -0.3452993657468439 -0.38783737442459915 1.2084023111011275
vertex -0.3452993657468428 -0.6151782584317216 1.2143554416592095
endloop
endfacet
facet normal 0.9983266623797243 0.0015137147554428738 0.05780643432524869
outer loop
vertex -0.3436815502670846 -0.38848409845812504 1.1837049166704587
vertex -0.34243603288946295 -0.6351623115187289 1.1654285114346852
vertex -0.34243603288946517 -0.38913138698937744 1.158985964941365
endloop
endfacet
facet normal 0.9991497396241633 0.0010792390424452492 0.04121447624386676
outer loop
vertex -0.34243603288946295 -0.6351623115187289 1.1654285114346852
vertex -0.3436815502670846 -0.38848409845812504 1.1837049166704587
vertex -0.3436716761559451 -0.6262632130074194 1.1897352826506562
endloop
endfacet
facet normal 0.9987338465046381 0.001316860218002929 0.05028886283479184
outer loop
vertex -0.3436716761559451 -0.6262632130074194 1.1897352826506562
vertex -0.3436815502670846 -0.38848409845812504 1.1837049166704587
vertex -0.34368155026708197 -0.6261759287804975 1.1899290962969193
endloop
endfacet
facet normal 0.9990843840120578 0.0011199309903172441 0.042768439038898126
outer loop
vertex -0.34243603288946517 -0.38913138698937744 1.158985964941365
vertex -0.34156309618514 -0.6425330137765941 1.1408696582563924
vertex -0.3415630961851404 -0.3897790931676738 1.134251063915022
endloop
endfacet
facet normal 0.9996482918561156 0.0006942038788499596 0.026510576570962768
outer loop
vertex -0.34156309618514 -0.6425330137765941 1.1408696582563924
vertex -0.34243603288946517 -0.38913138698937744 1.158985964941365
vertex -0.3422847710218052 -0.6367180469748692 1.1611802643265425
endloop
endfacet
facet normal 0.999378255020046 0.000922938241902134 0.03524558948421427
outer loop
vertex -0.3422847710218052 -0.6367180469748692 1.1611802643265425
vertex -0.34243603288946517 -0.38913138698937744 1.158985964941365
vertex -0.34243603288946295 -0.6351623115187289 1.1654285114346852
endloop
endfacet
facet normal 0.999615442860699 0.0007258931458772397 0.027720740854986957
outer loop
vertex -0.3415630961851404 -0.3897790931676738 1.134251063915022
vertex -0.3410629381977127 -0.64837704748456 1.1162604830889848
vertex -0.34106293819771455 -0.3904270700475855 1.1095058252110457
endloop
endfacet
facet normal 0.9999303107972006 0.0003090360861336118 0.011801611996301144
outer loop
vertex -0.3410629381977127 -0.64837704748456 1.1162604830889848
vertex -0.3415630961851404 -0.3897790931676738 1.134251063915022
vertex -0.3413816516891615 -0.645086363444663 1.1319534263194526
endloop
endfacet
facet normal 0.9997959340810956 0.0005288068783315169 0.020194319948812343
outer loop
vertex -0.3413816516891615 -0.645086363444663 1.1319534263194526
vertex -0.3415630961851404 -0.3897790931676738 1.134251063915022
vertex -0.34156309618514 -0.6425330137765941 1.1408696582563924
endloop
endfacet
facet normal 0.9999197184440569 0.0003316906176879888 0.012666753652457253
outer loop
vertex -0.34106293819771455 -0.3904270700475855 1.1095058252110457
vertex -0.3409356723982771 -0.6527589602295919 1.0916082939849436
vertex -0.34093567239827854 -0.3910751706222692 1.084755862794358
endloop
endfacet
facet normal 0.9999957647541223 -7.618559567745818e-05 -0.002909410519861716
outer loop
vertex -0.3409356723982771 -0.6527589602295919 1.0916082939849436
vertex -0.34106293819771455 -0.3904270700475855 1.1095058252110457
vertex -0.3409903305631479 -0.6513244966055379 1.1022076434445243
endloop
endfacet
facet normal 0.9999867889287275 0.00013455554407281253 0.0051384689177001435
outer loop
vertex -0.3409903305631479 -0.6513244966055379 1.1022076434445243
vertex -0.34106293819771455 -0.3904270700475855 1.1095058252110457
vertex -0.3410629381977127 -0.64837704748456 1.1162604830889848
endloop
endfacet
facet normal 0.9999971417309746 -6.258716132098241e-05 -0.0023901072629361774
outer loop
vertex -0.34093567239827854 -0.3910751706222692 1.084755862794358
vertex -0.34118132765968323 -0.655722946283208 1.0669198670993243
vertex -0.3411813276596917 -0.39172324785681517 1.0600067917015559
endloop
endfacet
facet normal 0.9999507762636037 -0.00025972631686913786 -0.009918547880436765
outer loop
vertex -0.34118132765968323 -0.655722946283208 1.0669198670993243
vertex -0.34093567239827854 -0.3910751706222692 1.084755862794358
vertex -0.3411298778124035 -0.6553998960822179 1.0720983882606074
endloop
endfacet
facet normal 0.9999507762636037 -0.00025972631686913786 -0.009918547880436765
outer loop
vertex -0.3411298778124035 -0.6553998960822179 1.0720983882606074
vertex -0.34093567239827854 -0.3910751706222692 1.084755862794358
vertex -0.3409356723982771 -0.6527589602295919 1.0916082939849436
endloop
endfacet
facet normal 0.0006302663046835622 -0.9980600502643218 0.062255432138606626
outer loop
vertex -0.34118132765968323 -0.655722946283208 1.0669198670993243
vertex -0.6110106628795446 -0.6552765820642119 1.07680756061791
vertex -0.6111402053519188 -0.6555995965831254 1.071630402100882
endloop
endfacet
facet normal 0.0012567043109861483 -0.9951776547372554 0.09808086564631774
outer loop
vertex -0.6110106628795446 -0.6552765820642119 1.07680756061791
vertex -0.34118132765968323 -0.655722946283208 1.0669198670993243
vertex -0.3411298778124035 -0.6553998960822179 1.0720983882606074
endloop
endfacet
facet normal 0.0012567043109860641 -0.9951776547372557 0.09808086564631291
outer loop
vertex -0.3411298778124035 -0.6553998960822179 1.0720983882606074
vertex -0.6105216847615922 -0.6526357808992272 1.0963123228287224
vertex -0.6110106628795446 -0.6552765820642119 1.07680756061791
endloop
endfacet
facet normal 0.00188751099118296 -0.990963059403483 0.13412178122865498
outer loop
vertex -0.6105216847615922 -0.6526357808992272 1.0963123228287224
vertex -0.3411298778124035 -0.6553998960822179 1.0720983882606074
vertex -0.6100959642191538 -0.6512015367699716 1.1069032901201188
endloop
endfacet
facet normal 0.002503971966798692 -0.9855597644993203 0.16930942302315574
outer loop
vertex -0.6100959642191538 -0.6512015367699716 1.1069032901201188
vertex -0.3411298778124035 -0.6553998960822179 1.0720983882606074
vertex -0.3409903305631479 -0.6513244966055379 1.1022076434445243
endloop
endfacet
facet normal 0.002503971966798699 -0.9855597644993203 0.16930942302315616
outer loop
vertex -0.3409903305631479 -0.6513244966055379 1.1022076434445243
vertex -0.3411298778124035 -0.6553998960822179 1.0720983882606074
vertex -0.3409356723982771 -0.6527589602295919 1.0916082939849436
endloop
endfacet
facet normal 0.002503971966798699 -0.9855597644993203 0.16930942302315616
outer loop
vertex -0.3409903305631479 -0.6513244966055379 1.1022076434445243
vertex -0.6095304391664311 -0.6482543792247941 1.120944994934026
vertex -0.6100959642191538 -0.6512015367699716 1.1069032901201188
endloop
endfacet
facet normal 0.0031349090612023452 -0.9786964916570619 0.2052884545300511
outer loop
vertex -0.6095304391664311 -0.6482543792247941 1.120944994934026
vertex -0.3409903305631479 -0.6513244966055379 1.1022076434445243
vertex -0.6086614254359777 -0.6449642378816144 1.1366172134130093
endloop
endfacet
facet normal 0.003738469747354545 -0.9708465440391566 0.23967271803685564
outer loop
vertex -0.6086614254359777 -0.6449642378816144 1.1366172134130093
vertex -0.3409903305631479 -0.6513244966055379 1.1022076434445243
vertex -0.3413816516891615 -0.645086363444663 1.1319534263194526
endloop
endfacet
facet normal 0.0037384697473545575 -0.9708465440391564 0.23967271803685636
outer loop
vertex -0.3413816516891615 -0.645086363444663 1.1319534263194526
vertex -0.3409903305631479 -0.6513244966055379 1.1022076434445243
vertex -0.3410629381977127 -0.64837704748456 1.1162604830889848
endloop
endfacet
facet normal 0.0037384697473545575 -0.9708465440391564 0.23967271803685636
outer loop
vertex -0.3413816516891615 -0.645086363444663 1.1319534263194526
vertex -0.6081666934508283 -0.6424111971723259 1.1455216466900622
vertex -0.6086614254359777 -0.6449642378816144 1.1366172134130093
endloop
endfacet
facet normal 0.004365953188189846 -0.9613243382752626 0.2753841954295618
outer loop
vertex -0.6081666934508283 -0.6424111971723259 1.1455216466900622
vertex -0.3413816516891615 -0.645086363444663 1.1319534263194526
vertex -0.6067315588731466 -0.6365972158606776 1.1657946184126142
endloop
endfacet
facet normal 0.004953898302289071 -0.9511103170849611 0.3088116312999809
outer loop
vertex -0.6067315588731466 -0.6365972158606776 1.1657946184126142
vertex -0.3413816516891615 -0.645086363444663 1.1319534263194526
vertex -0.3422847710218052 -0.6367180469748692 1.1611802643265425
endloop
endfacet
facet normal 0.004953898302288974 -0.9511103170849629 0.3088116312999754
outer loop
vertex -0.3422847710218052 -0.6367180469748692 1.1611802643265425
vertex -0.3413816516891615 -0.645086363444663 1.1319534263194526
vertex -0.34156309618514 -0.6425330137765941 1.1408696582563924
endloop
endfacet
facet normal 0.004953898302288974 -0.9511103170849629 0.3088116312999754
outer loop
vertex -0.3422847710218052 -0.6367180469748692 1.1611802643265425
vertex -0.6064307570084745 -0.6350416869616463 1.1700349774229402
vertex -0.6067315588731466 -0.6365972158606776 1.1657946184126142
endloop
endfacet
facet normal 0.0055742213595335625 -0.9389372249193852 0.34404333406842635
outer loop
vertex -0.6064307570084745 -0.6350416869616463 1.1700349774229402
vertex -0.3422847710218052 -0.6367180469748692 1.1611802643265425
vertex -0.6043397331886847 -0.6261441084721681 1.194283701347101
endloop
endfacet
facet normal 0.006144041601730525 -0.9264480659737914 0.37637246419765863
outer loop
vertex -0.6043397331886847 -0.6261441084721681 1.194283701347101
vertex -0.3422847710218052 -0.6367180469748692 1.1611802643265425
vertex -0.3436716761559451 -0.6262632130074194 1.1897352826506562
endloop
endfacet
facet normal 0.006144041601731473 -0.9264480659737695 0.3763724641977125
outer loop
vertex -0.3436716761559451 -0.6262632130074194 1.1897352826506562
vertex -0.3422847710218052 -0.6367180469748692 1.1611802643265425
vertex -0.34243603288946295 -0.6351623115187289 1.1654285114346852
endloop
endfacet
facet normal 0.007297814384273314 -0.8971199647107132 0.44172673772668725
outer loop
vertex -0.3455533398214362 -0.6137763931650246 1.2174698354643434
vertex -0.5989941632890184 -0.6021942348240997 1.243097627574279
vertex -0.6014802180419462 -0.613659454970772 1.2219355249357406
endloop
endfacet
facet normal 0.007897368745786632 -0.8796108198957682 0.4756284653899383
outer loop
vertex -0.5989941632890184 -0.6021942348240997 1.243097627574279
vertex -0.3455533398214362 -0.6137763931650246 1.2174698354643434
vertex -0.5982614573697168 -0.599208341564813 1.248607469309569
endloop
endfacet
facet normal 0.00841955989306596 -0.8630078942305475 0.5051202683588961
outer loop
vertex -0.5982614573697168 -0.599208341564813 1.248607469309569
vertex -0.3455533398214362 -0.6137763931650246 1.2174698354643434
vertex -0.34782641925894414 -0.599322770425657 1.2442376074148886
endloop
endfacet
facet normal 0.00841955989306589 -0.8630078942305497 0.5051202683588922
outer loop
vertex -0.34782641925894414 -0.599322770425657 1.2442376074148886
vertex -0.3455533398214362 -0.6137763931650246 1.2174698354643434
vertex -0.34728911229411613 -0.6023092439796534 1.2387056051187217
endloop
endfacet
facet normal 0.006144041601731473 -0.9264480659737695 0.3763724641977125
outer loop
vertex -0.3436716761559451 -0.6262632130074194 1.1897352826506562
vertex -0.6043230236721523 -0.6260568363918454 1.1944770511334257
vertex -0.6043397331886847 -0.6261441084721681 1.194283701347101
endloop
endfacet
facet normal 0.006753410378406916 -0.9116519388931158 0.41090769493973184
outer loop
vertex -0.6043230236721523 -0.6260568363918454 1.1944770511334257
vertex -0.3436716761559451 -0.6262632130074194 1.1897352826506562
vertex -0.6018439716243987 -0.6150610379851428 1.2188319099120843
endloop
endfacet
facet normal 0.006753410378406916 -0.9116519388931158 0.41090769493973184
outer loop
vertex -0.6018439716243987 -0.6150610379851428 1.2188319099120843
vertex -0.3436716761559451 -0.6262632130074194 1.1897352826506562
vertex -0.6014802180419462 -0.613659454970772 1.2219355249357406
endloop
endfacet
facet normal 0.007297814384273389 -0.8971199647107111 0.44172673772669147
outer loop
vertex -0.6014802180419462 -0.613659454970772 1.2219355249357406
vertex -0.3436716761559451 -0.6262632130074194 1.1897352826506562
vertex -0.3455533398214362 -0.6137763931650246 1.2174698354643434
endloop
endfacet
facet normal 0.007297814384273314 -0.8971199647107132 0.44172673772668725
outer loop
vertex -0.3455533398214362 -0.6137763931650246 1.2174698354643434
vertex -0.3436716761559451 -0.6262632130074194 1.1897352826506562
vertex -0.3452993657468428 -0.6151782584317216 1.2143554416592095
endloop
endfacet
facet normal 0.006753410378406916 -0.9116519388931158 0.41090769493973184
outer loop
vertex -0.3452993657468428 -0.6151782584317216 1.2143554416592095
vertex -0.3436716761559451 -0.6262632130074194 1.1897352826506562
vertex -0.34368155026708197 -0.6261759287804975 1.1899290962969193
endloop
endfacet
facet normal 0.00841955989306589 -0.8630078942305497 0.5051202683588922
outer loop
vertex -0.34782641925894414 -0.599322770425657 1.2442376074148886
vertex -0.595774245203483 -0.5872779321821364 1.2672639484560908
vertex -0.5982614573697168 -0.599208341564813 1.248607469309569
endloop
endfacet
facet normal 0.009000128751089544 -0.842981017476076 0.5378680152764835
outer loop
vertex -0.595774245203483 -0.5872779321821364 1.2672639484560908
vertex -0.34782641925894414 -0.599322770425657 1.2442376074148886
vertex -0.5947470933888251 -0.5828661342605964 1.2741612119052164
endloop
endfacet
facet normal 0.00949818293738005 -0.8244021523586068 0.5659247968656121
outer loop
vertex -0.5947470933888251 -0.5828661342605964 1.2741612119052164
vertex -0.34782641925894414 -0.599322770425657 1.2442376074148886
vertex -0.3504322056059177 -0.5829777667003194 1.2698981410247212
endloop
endfacet
facet normal 0.009498182937380107 -0.8244021523586049 0.5659247968656154
outer loop
vertex -0.3504322056059177 -0.5829777667003194 1.2698981410247212
vertex -0.34782641925894414 -0.599322770425657 1.2442376074148886
vertex -0.3496503384940883 -0.5873903911993896 1.262969311853269
endloop
endfacet
facet normal 0.009498182937380107 -0.8244021523586049 0.5659247968656154
outer loop
vertex -0.3504322056059177 -0.5829777667003194 1.2698981410247212
vertex -0.5921849478722409 -0.5700550652945893 1.291318569839234
vertex -0.5947470933888251 -0.5828661342605964 1.2741612119052164
endloop
endfacet
facet normal 0.010055937604058101 -0.801953619059708 0.5973016582899636
outer loop
vertex -0.5921849478722409 -0.5700550652945893 1.291318569839234
vertex -0.3504322056059177 -0.5829777667003194 1.2698981410247212
vertex -0.591005541443349 -0.5647180628956064 1.2984643198837884
endloop
endfacet
facet normal 0.010528072596572997 -0.7814941185561161 0.6238237750756224
outer loop
vertex -0.591005541443349 -0.5647180628956064 1.2984643198837884
vertex -0.3504322056059177 -0.5829777667003194 1.2698981410247212
vertex -0.3533070233134687 -0.5648266721815078 1.294316698589925
endloop
endfacet
facet normal 0.010528072596572976 -0.781494118556117 0.6238237750756211
outer loop
vertex -0.3533070233134687 -0.5648266721815078 1.294316698589925
vertex -0.3504322056059177 -0.5829777667003194 1.2698981410247212
vertex -0.3523825086541688 -0.5701646359048151 1.2871342370505965
endloop
endfacet
facet normal 0.010528072596572976 -0.781494118556117 0.6238237750756211
outer loop
vertex -0.3533070233134687 -0.5648266721815078 1.294316698589925
vertex -0.588227085601019 -0.5501818578135156 1.3152469300211713
vertex -0.591005541443349 -0.5647180628956064 1.2984643198837884
endloop
endfacet
facet normal 0.011059287445455429 -0.7567426530994861 0.6536193457519061
outer loop
vertex -0.588227085601019 -0.5501818578135156 1.3152469300211713
vertex -0.3533070233134687 -0.5648266721815078 1.294316698589925
vertex -0.5871125583106188 -0.5448587751816962 1.3213909920381546
endloop
endfacet
facet normal 0.01150384100261035 -0.7344973706209282 0.6785140191574006
outer loop
vertex -0.5871125583106188 -0.5448587751816962 1.3213909920381546
vertex -0.3533070233134687 -0.5648266721815078 1.294316698589925
vertex -0.3563796371141631 -0.5449642017447335 1.317364914026902
endloop
endfacet
facet normal 0.011503841002610333 -0.7344973706209293 0.6785140191573996
outer loop
vertex -0.3563796371141631 -0.5449642017447335 1.317364914026902
vertex -0.3533070233134687 -0.5648266721815078 1.294316698589925
vertex -0.3554850029255206 -0.5502882024032825 1.3111857939834815
endloop
endfacet
facet normal 0.011503841002610333 -0.7344973706209293 0.6785140191573996
outer loop
vertex -0.3563796371141631 -0.5449642017447335 1.317364914026902
vertex -0.5839015563120445 -0.5271904027942682 1.3390312297250502
vertex -0.5871125583106188 -0.5448587751816962 1.3213909920381546
endloop
endfacet
facet normal 0.012004944080019852 -0.7075839725493022 0.706527284051355
outer loop
vertex -0.5839015563120445 -0.5271904027942682 1.3390312297250502
vertex -0.3563796371141631 -0.5449642017447335 1.317364914026902
vertex -0.5831508005297731 -0.5233918429757286 1.3428227142517684
endloop
endfacet
facet normal 0.012420351086229046 -0.6836468556690308 0.729707278031912
outer loop
vertex -0.5831508005297731 -0.5233918429757286 1.3428227142517684
vertex -0.3563796371141631 -0.5449642017447335 1.317364914026902
vertex -0.3595716701060227 -0.5234940008263059 1.338921463333148
endloop
endfacet
facet normal 0.012420351086229056 -0.6836468556690305 0.7297072780319125
outer loop
vertex -0.3595716701060227 -0.5234940008263059 1.338921463333148
vertex -0.3563796371141631 -0.5449642017447335 1.317364914026902
vertex -0.3589571174436843 -0.5272931844820362 1.3351061554253576
endloop
endfacet
facet normal 0.012420351086229046 -0.6836468556690308 0.729707278031912
outer loop
vertex -0.5831508005297731 -0.5233918429757286 1.3428227142517684
vertex -0.3627980644882704 -0.5005281047103949 1.3588726984056172
vertex -0.5792093413403554 -0.5004292219978522 1.3626488768486562
endloop
endfacet
facet normal 0.012887974281807164 -0.6547340244847132 0.7557494672846038
outer loop
vertex -0.3627980644882704 -0.5005281047103949 1.3588726984056172
vertex -0.5831508005297731 -0.5233918429757286 1.3428227142517684
vertex -0.3595716701060227 -0.5234940008263059 1.338921463333148
endloop
endfacet
facet normal -0.008723545132608484 -9.963964239106948e-07 0.99996194915573
outer loop
vertex -0.47389920745696945 -0.28680660442754174 1.2977658291784722
vertex -0.46090228613475187 -0.4689106258451021 1.2961752577522836
vertex -0.4609438855740412 -0.2868036465755964 1.296175076301536
endloop
endfacet
facet normal 0.2503828925259589 5.816064247772881e-05 0.9681468916170077
outer loop
vertex -0.46090228613475187 -0.4689106258451021 1.2961752577522836
vertex -0.47389920745696945 -0.28680660442754174 1.2977658291784722
vertex -0.47385760801768023 -0.46891358369704805 1.2977660106292197
endloop
endfacet
facet normal -0.9681468664144983 -0.00022090825288182455 0.25038289927894714
outer loop
vertex -0.5218287740817744 -0.46892457928987014 1.2602870581353818
vertex -0.5234611263535472 -0.28681797631115263 1.2473315544640557
vertex -0.5234195269142583 -0.4689249555806586 1.2473317359148035
endloop
endfacet
facet normal -0.9999619230641713 -0.00022843406864796225 -0.008723545132605797
outer loop
vertex -0.5234611263535472 -0.28681797631115263 1.2473315544640557
vertex -0.5218287740817744 -0.46892457928987014 1.2602870581353818
vertex -0.5218703735210638 -0.28681760002036444 1.2602868766846338
endloop
endfacet
facet normal -0.2672354876067208 -6.008553255495985e-05 0.9636312523747489
outer loop
vertex -0.4867832051413863 -0.4689165381538538 1.2959494757901704
vertex -0.47389920745696945 -0.28680660442754174 1.2977658291784722
vertex -0.4868248045806756 -0.28680955888434806 1.2959492943394226
endloop
endfacet
facet normal -0.008723545132608484 -9.963964239106948e-07 0.99996194915573
outer loop
vertex -0.47389920745696945 -0.28680660442754174 1.2977658291784722
vertex -0.4867832051413863 -0.4689165381538538 1.2959494757901704
vertex -0.47385760801768023 -0.46891358369704805 1.2977660106292197
endloop
endfacet
facet normal 0.9999619230641713 0.00022843406864796266 0.008723545132611223
outer loop
vertex -0.42346493404713104 -0.2867951329042879 1.2482039089773163
vertex -0.4252398694024388 -0.46890251425321894 1.26112968788942
vertex -0.4234233346078423 -0.46890211217379385 1.248204090428064
endloop
endfacet
facet normal 0.9636312271722368 0.00022039248014108122 0.26723549435971955
outer loop
vertex -0.4252398694024388 -0.46890251425321894 1.26112968788942
vertex -0.42346493404713104 -0.2867951329042879 1.2482039089773163
vertex -0.42528146884172807 -0.2867955349837133 1.2611295064386723
endloop
endfacet
facet normal -0.8703542007570172 -0.0001983279047502434 0.492426162881966
outer loop
vertex -0.5169391407989007 -0.4689234502724638 1.2723892213155321
vertex -0.5218703735210638 -0.28681760002036444 1.2602868766846338
vertex -0.5218287740817744 -0.46892457928987014 1.2602870581353818
endloop
endfacet
facet normal -0.9681468664144985 -0.00022090825288182634 0.2503828992789466
outer loop
vertex -0.5218703735210638 -0.28681760002036444 1.2602868766846338
vertex -0.5169391407989007 -0.4689234502724638 1.2723892213155321
vertex -0.5169807402381897 -0.28681647100295776 1.2723890398647846
endloop
endfacet
facet normal -0.25038289252598506 -5.8160642478224944e-05 -0.968146891617001
outer loop
vertex -0.4859405753873481 -0.46891644190935083 1.1993605685905842
vertex -0.4980843376921486 -0.28681222231420567 1.2042500205530384
vertex -0.48598217482663697 -0.28680946263984414 1.1993603871398366
endloop
endfacet
facet normal -0.4924261498361775 -0.00011335412970948575 -0.8703542233529747
outer loop
vertex -0.4980843376921486 -0.28681222231420567 1.2042500205530384
vertex -0.4859405753873481 -0.46891644190935083 1.1993605685905842
vertex -0.4980427382528593 -0.4689192015837125 1.204250202003786
endloop
endfacet
facet normal 0.7132483346462679 0.00016223183766201144 -0.7009113972572827
outer loop
vertex -0.4378006134680258 -0.2867984430158372 1.2127221618578221
vertex -0.4299037207231994 -0.4689036174819884 1.2231466050273354
vertex -0.43775901402873646 -0.46890542228534327 1.21272234330857
endloop
endfacet
facet normal 0.8703542007570213 0.00019832790475024682 -0.4924261628819585
outer loop
vertex -0.4299037207231994 -0.4689036174819884 1.2231466050273354
vertex -0.4378006134680258 -0.2867984430158372 1.2127221618578221
vertex -0.4299453201624887 -0.2867966382124827 1.2231464235765879
endloop
endfacet
facet normal 0.008723545132608531 9.963964229219027e-07 -0.99996194915573
outer loop
vertex -0.4729852535044194 -0.4689134840574049 1.1977698157136472
vertex -0.48598217482663697 -0.28680946263984414 1.1993603871398366
vertex -0.4730268529437086 -0.28680650478789915 1.1977696342628994
endloop
endfacet
facet normal -0.2503828925259824 -5.8160642478228414e-05 -0.9681468916170016
outer loop
vertex -0.48598217482663697 -0.28680946263984414 1.1993603871398366
vertex -0.4729852535044194 -0.4689134840574049 1.1977698157136472
vertex -0.4859405753873481 -0.46891644190935083 1.1993605685905842
endloop
endfacet
facet normal -0.5075357732279829 -0.00011507993893846574 0.8616306782203622
outer loop
vertex -0.4987982194224489 -0.4689192878741729 1.2908494470824519
vertex -0.4868248045806756 -0.28680955888434806 1.2959492943394226
vertex -0.4988398188617379 -0.2868123086046672 1.290849265631704
endloop
endfacet
facet normal -0.2672354876067248 -6.008553255496679e-05 0.9636312523747478
outer loop
vertex -0.4868248045806756 -0.28680955888434806 1.2959492943394226
vertex -0.4987982194224489 -0.4689192878741729 1.2908494470824519
vertex -0.4867832051413863 -0.4689165381538538 1.2959494757901704
endloop
endfacet
facet normal -0.7132483346462649 -0.0001622318376624035 0.7009113972572858
outer loop
vertex -0.5090838474933633 -0.46892164546910947 1.2828134830342979
vertex -0.4988398188617379 -0.2868123086046672 1.290849265631704
vertex -0.5091254469326524 -0.28681466619960333 1.2828133015835494
endloop
endfacet
facet normal -0.5075357732279828 -0.00011507993893846227 0.8616306782203623
outer loop
vertex -0.4988398188617379 -0.2868123086046672 1.290849265631704
vertex -0.5090838474933633 -0.46892164546910947 1.2828134830342979
vertex -0.4987982194224489 -0.4689192878741729 1.2908494470824519
endloop
endfacet
facet normal -0.8616306556244099 -0.00019733150832820096 -0.5075357862737617
outer loop
vertex -0.5165029635422703 -0.4689234004526427 1.2223911238577463
vertex -0.5085085991407271 -0.28681459574373663 1.2121053140658966
vertex -0.5084669997014378 -0.4689215750132428 1.2121054955166444
endloop
endfacet
facet normal -0.7009113788077626 -0.00016082272032791334 -0.7132483530957882
outer loop
vertex -0.5085085991407271 -0.28681459574373663 1.2121053140658966
vertex -0.5165029635422703 -0.4689234004526427 1.2223911238577463
vertex -0.5165445629815595 -0.2868164211831366 1.222390942406998
endloop
endfacet
facet normal -0.9636312271722346 -0.00022039248014108035 -0.2672354943597277
outer loop
vertex -0.5216029921196614 -0.4689245535012341 1.2344061384534473
vertex -0.5165445629815595 -0.2868164211831366 1.222390942406998
vertex -0.5165029635422703 -0.4689234004526427 1.2223911238577463
endloop
endfacet
facet normal -0.8616306556244082 -0.00019733150832819749 -0.5075357862737646
outer loop
vertex -0.5165445629815595 -0.2868164211831366 1.222390942406998
vertex -0.5216029921196614 -0.4689245535012341 1.2344061384534473
vertex -0.5216445915589508 -0.2868175742317276 1.2344059570026995
endloop
endfacet
facet normal 0.4924261498361889 0.00011335412970948919 0.8703542233529682
outer loop
vertex -0.4488417227085295 -0.28680088690123484 1.2912854428883342
vertex -0.43837586182066207 -0.4689054927412099 1.2834303308262234
vertex -0.43841746125995096 -0.2867985134717038 1.283430149375475
endloop
endfacet
facet normal 0.7009113788077649 0.0001608227203279168 0.7132483530957858
outer loop
vertex -0.43837586182066207 -0.4689054927412099 1.2834303308262234
vertex -0.4488417227085295 -0.28680088690123484 1.2912854428883342
vertex -0.4488001232692405 -0.4689078661707406 1.291285624339082
endloop
endfacet
facet normal 0.5075357732279718 0.00011507993893761226 -0.8616306782203688
outer loop
vertex -0.4480862415389402 -0.28680080061077323 1.2046861978096686
vertex -0.46005965638071356 -0.4689105296005992 1.1995863505526974
vertex -0.4601012558200025 -0.2868035503310924 1.1995861691019498
endloop
endfacet
facet normal 0.26723548760675103 6.008553255401618e-05 -0.9636312523747406
outer loop
vertex -0.46005965638071356 -0.4689105296005992 1.1995863505526974
vertex -0.4480862415389402 -0.28680080061077323 1.2046861978096686
vertex -0.44804464209965084 -0.4689077798802794 1.204686379260416
endloop
endfacet
facet normal 0.26723548760675103 6.008553255401271e-05 -0.9636312523747406
outer loop
vertex -0.4601012558200025 -0.2868035503310924 1.1995861691019498
vertex -0.4729852535044194 -0.4689134840574049 1.1977698157136472
vertex -0.4730268529437086 -0.28680650478789915 1.1977696342628994
endloop
endfacet
facet normal 0.008723545132608531 9.963964229219027e-07 -0.99996194915573
outer loop
vertex -0.4729852535044194 -0.4689134840574049 1.1977698157136472
vertex -0.4601012558200025 -0.2868035503310924 1.1995861691019498
vertex -0.46005965638071356 -0.4689105296005992 1.1995863505526974
endloop
endfacet
facet normal -0.7132483346462649 -0.0001622318376624035 0.7009113972572858
outer loop
vertex -0.5090838474933633 -0.46892164546910947 1.2828134830342979
vertex -0.5169807402381897 -0.28681647100295776 1.2723890398647846
vertex -0.5169391407989007 -0.4689234502724638 1.2723892213155321
endloop
endfacet
facet normal -0.8703542007570172 -0.0001983279047502433 0.4924261628819654
outer loop
vertex -0.5169807402381897 -0.28681647100295776 1.2723890398647846
vertex -0.5090838474933633 -0.46892164546910947 1.2828134830342979
vertex -0.5091254469326524 -0.28681466619960333 1.2828133015835494
endloop
endfacet
facet normal 0.250382892525962 5.816064247772881e-05 0.9681468916170068
outer loop
vertex -0.4609438855740412 -0.2868036465755964 1.296175076301536
vertex -0.4488001232692405 -0.4689078661707406 1.291285624339082
vertex -0.4488417227085295 -0.28680088690123484 1.2912854428883342
endloop
endfacet
facet normal 0.4924261498361894 0.00011335412970948575 0.8703542233529681
outer loop
vertex -0.4488001232692405 -0.4689078661707406 1.291285624339082
vertex -0.4609438855740412 -0.2868036465755964 1.296175076301536
vertex -0.46090228613475187 -0.4689106258451021 1.2961752577522836
endloop
endfacet
facet normal 0.9681468664144975 0.00022090825288182628 -0.25038289927895035
outer loop
vertex -0.42505568687961504 -0.28679550919507646 1.2352485867567378
vertex -0.4234233346078423 -0.46890211217379385 1.248204090428064
vertex -0.42501408744032565 -0.46890248846458293 1.235248768207486
endloop
endfacet
facet normal 0.9999619230641713 0.00022843406864796263 0.008723545132606664
outer loop
vertex -0.4234233346078423 -0.46890211217379385 1.248204090428064
vertex -0.42505568687961504 -0.28679550919507646 1.2352485867567378
vertex -0.42346493404713104 -0.2867951329042879 1.2482039089773163
endloop
endfacet
facet normal 0.7132483346462679 0.00016223183766201144 -0.7009113972572827
outer loop
vertex -0.4378006134680258 -0.2867984430158372 1.2127221618578221
vertex -0.44804464209965084 -0.4689077798802794 1.204686379260416
vertex -0.4480862415389402 -0.28680080061077323 1.2046861978096686
endloop
endfacet
facet normal 0.5075357732279708 0.00011507993893761229 -0.8616306782203694
outer loop
vertex -0.44804464209965084 -0.4689077798802794 1.204686379260416
vertex -0.4378006134680258 -0.2867984430158372 1.2127221618578221
vertex -0.43775901402873646 -0.46890542228534327 1.21272234330857
endloop
endfacet
facet normal -0.49242614983617594 -0.00011335412970948575 -0.8703542233529757
outer loop
vertex -0.4980427382528593 -0.4689192015837125 1.204250202003786
vertex -0.5085085991407271 -0.28681459574373663 1.2121053140658966
vertex -0.4980843376921486 -0.28681222231420567 1.2042500205530384
endloop
endfacet
facet normal -0.7009113788077626 -0.00016082272032791334 -0.7132483530957882
outer loop
vertex -0.5085085991407271 -0.28681459574373663 1.2121053140658966
vertex -0.4980427382528593 -0.4689192015837125 1.204250202003786
vertex -0.5084669997014378 -0.4689215750132428 1.2121054955166444
endloop
endfacet
facet normal 0.8703542007570197 0.00019832790475024677 -0.49242616288196106
outer loop
vertex -0.4299453201624887 -0.2867966382124827 1.2231464235765879
vertex -0.42501408744032565 -0.46890248846458293 1.235248768207486
vertex -0.4299037207231994 -0.4689036174819884 1.2231466050273354
endloop
endfacet
facet normal 0.9681468664144978 0.00022090825288182623 -0.2503828992789489
outer loop
vertex -0.42501408744032565 -0.46890248846458293 1.235248768207486
vertex -0.4299453201624887 -0.2867966382124827 1.2231464235765879
vertex -0.42505568687961504 -0.28679550919507646 1.2352485867567378
endloop
endfacet
facet normal -0.9999619230641713 -0.00022843406864796222 -0.008723545132610087
outer loop
vertex -0.5234195269142583 -0.4689249555806586 1.2473317359148035
vertex -0.5216445915589508 -0.2868175742317276 1.2344059570026995
vertex -0.5216029921196614 -0.4689245535012341 1.2344061384534473
endloop
endfacet
facet normal -0.9636312271722347 -0.00022039248014107948 -0.2672354943597276
outer loop
vertex -0.5216445915589508 -0.2868175742317276 1.2344059570026995
vertex -0.5234195269142583 -0.4689249555806586 1.2473317359148035
vertex -0.5234611263535472 -0.28681797631115263 1.2473315544640557
endloop
endfacet
facet normal 0.8616306556244153 0.00019733150832820096 0.5075357862737526
outer loop
vertex -0.4303814974191191 -0.28679668803230385 1.2731445210343741
vertex -0.43837586182066207 -0.4689054927412099 1.2834303308262234
vertex -0.43033989797982997 -0.46890366730181 1.2731447024851221
endloop
endfacet
facet normal 0.7009113788077649 0.0001608227203279168 0.7132483530957858
outer loop
vertex -0.43837586182066207 -0.4689054927412099 1.2834303308262234
vertex -0.4303814974191191 -0.28679668803230385 1.2731445210343741
vertex -0.43841746125995096 -0.2867985134717038 1.283430149375475
endloop
endfacet
facet normal 0.963631227172237 0.00022039248014108122 0.2672354943597191
outer loop
vertex -0.42528146884172807 -0.2867955349837133 1.2611295064386723
vertex -0.43033989797982997 -0.46890366730181 1.2731447024851221
vertex -0.4252398694024388 -0.46890251425321894 1.26112968788942
endloop
endfacet
facet normal 0.8616306556244147 0.00019733150832819917 0.5075357862737535
outer loop
vertex -0.43033989797982997 -0.46890366730181 1.2731447024851221
vertex -0.42528146884172807 -0.2867955349837133 1.2611295064386723
vertex -0.4303814974191191 -0.28679668803230385 1.2731445210343741
endloop
endfacet
endsolid aibo-ers7
