<?xml version="1.0" encoding="UTF-8" standalone="no"?>
<!-- Created with Inkscape (http://www.inkscape.org/) -->

<svg
   xmlns:dc="http://purl.org/dc/elements/1.1/"
   xmlns:cc="http://creativecommons.org/ns#"
   xmlns:rdf="http://www.w3.org/1999/02/22-rdf-syntax-ns#"
   xmlns:svg="http://www.w3.org/2000/svg"
   xmlns="http://www.w3.org/2000/svg"
   xmlns:sodipodi="http://sodipodi.sourceforge.net/DTD/sodipodi-0.dtd"
   xmlns:inkscape="http://www.inkscape.org/namespaces/inkscape"
   id="svg3534"
   version="1.1"
   inkscape:version="0.48.3.1 r9886"
   width="989.88014"
   height="252.8125"
   xml:space="preserve"
   sodipodi:docname="Aprenentatge-per-demostracio.pdf"><metadata
     id="metadata3540"><rdf:RDF><cc:Work
         rdf:about=""><dc:format>image/svg+xml</dc:format><dc:type
           rdf:resource="http://purl.org/dc/dcmitype/StillImage" /><dc:title></dc:title></cc:Work></rdf:RDF></metadata><defs
     id="defs3538" /><sodipodi:namedview
     pagecolor="#ffffff"
     bordercolor="#666666"
     borderopacity="1"
     objecttolerance="10"
     gridtolerance="10"
     guidetolerance="10"
     inkscape:pageopacity="0"
     inkscape:pageshadow="2"
     inkscape:window-width="1301"
     inkscape:window-height="744"
     id="namedview3536"
     showgrid="false"
     inkscape:zoom="0.89101698"
     inkscape:cx="534.50592"
     inkscape:cy="176.95367"
     inkscape:window-x="65"
     inkscape:window-y="24"
     inkscape:window-maximized="1"
     inkscape:current-layer="g3544" /><g
     id="g3542"
     inkscape:groupmode="layer"
     inkscape:label="Aprenentatge-per-demostracio"
     transform="matrix(1.25,0,0,-1.25,0,252.8125)"><g
       id="g3544"><g
         id="g3546"
         transform="matrix(1,0,0,-1,0,202.25)"><path
           d="m 244.359,22.402 c -1.843,1.848 0.188,-0.554 -0.785,2.36 -0.117,0.351 -0.621,0.457 -0.789,0.789 -0.117,0.234 0.117,0.551 0,0.785 -0.164,0.332 -0.578,0.48 -0.785,0.789 -0.324,0.484 -0.461,1.082 -0.785,1.57 -0.207,0.309 -0.621,0.457 -0.789,0.789 -0.117,0.235 0.187,0.602 0,0.786 -0.184,0.187 -0.524,0 -0.785,0 -1.079,0 -2.547,0.414 -3.149,-0.786 -0.058,-0.121 0.344,-2.703 -0.785,-1.574 -0.187,0.184 0.117,0.551 0,0.785 -0.602,1.207 -1.402,0.617 -2.359,1.575 -0.188,0.187 0.183,0.601 0,0.785 -0.371,0.371 -1.106,-0.235 -1.575,0 -0.332,0.168 -0.453,0.621 -0.785,0.789 -0.047,0.023 -3.676,0.129 -3.933,0 -0.332,-0.168 -0.524,-0.524 -0.789,-0.789 -0.262,-0.262 -0.621,-0.453 -0.786,-0.785 -0.089,-0.176 0,-2.961 0,-3.145 0,-0.266 0.118,-0.555 0,-0.789 -0.253,-0.512 -0.921,-1.113 -1.574,-0.785 -0.332,0.164 -0.523,0.523 -0.785,0.785 -0.523,0.523 -0.98,1.129 -1.574,1.574 -0.469,0.352 -1.156,0.371 -1.574,0.785 -0.414,0.414 -0.461,1.086 -0.785,1.575 -0.223,0.332 -2.036,2.199 -2.36,2.359 -0.234,0.117 -0.551,0.117 -0.789,0 -0.328,-0.164 -0.617,-0.453 -0.785,-0.785 -0.117,-0.239 0,-2.606 0,-3.149 0,-0.261 0.187,-0.601 0,-0.785 -0.184,-0.187 -0.602,-0.187 -0.785,0 -0.188,0.184 0.117,0.551 0,0.785 -0.168,0.332 -0.621,0.457 -0.789,0.789 -0.418,0.836 0.781,1.051 -0.785,1.571 -0.004,0.004 -2.36,0 -2.36,0 -0.187,0.187 0.184,0.601 0,0.789 -0.187,0.183 -0.601,0.183 -0.789,0 -0.184,-0.188 0.117,-0.555 0,-0.789 -0.164,-0.328 -0.617,-0.453 -0.785,-0.785 -0.117,-0.235 0,-0.524 0,-0.786 l 0,-2.359 c 0,-0.266 0.262,-0.789 0,-0.789 -0.523,0 0.234,1.105 0,1.574 -0.164,0.332 -0.621,0.453 -0.785,0.785 -0.235,0.473 0.515,1.575 -0.789,1.575 -0.262,0 0,-0.524 0,-0.786 l 0,-3.933 0,1.574 c 0,0.262 0.148,0.566 0,0.785 -0.41,0.617 -1.125,0.981 -1.571,1.574 -3.625,4.828 1.539,-1.507 -0.789,3.145 -0.332,0.664 -1.129,0.98 -1.574,1.574 -0.351,0.469 -0.461,1.086 -0.785,1.574 -0.973,1.457 -0.785,0.071 -0.785,1.571 0,0.265 -0.262,0.789 0,0.789 0.262,0 0.117,-0.551 0,-0.789 -0.168,-0.328 -0.621,-0.453 -0.789,-0.786 -0.117,-0.234 0,-0.523 0,-0.785 l 0,-4.722 c 0,-0.524 0.527,-1.571 0,-1.571 -0.524,0 0.168,1.075 0,1.571 -0.117,0.355 -0.668,0.437 -0.785,0.789 -0.168,0.496 0.289,1.136 0,1.574 -0.325,0.484 -1.161,0.371 -1.575,0.785 -0.949,0.949 -1.738,2.692 -2.359,3.934 -0.262,0.523 -0.434,1.105 -0.785,1.574 -0.445,0.59 -1.051,1.047 -1.574,1.57 -0.262,0.262 -0.621,0.457 -0.786,0.789 -0.117,0.235 0.184,0.602 0,0.785 -0.187,0.188 -0.601,0.188 -0.789,0 -0.183,-0.183 0.118,-0.55 0,-0.785 -0.164,-0.332 -0.668,-0.437 -0.785,-0.789 -0.168,-0.496 0.164,-1.074 0,-1.57 -0.117,-0.352 -0.621,-0.457 -0.789,-0.789 -0.117,-0.234 0,-0.524 0,-0.785 l 0,-4.719 c 0,-0.266 0.266,-0.789 0,-0.789 -0.262,0 0,0.523 0,0.789 0,0.523 0.168,1.074 0,1.57 -0.117,0.352 -0.562,0.492 -0.785,0.789 -0.566,0.754 -1.008,1.602 -1.574,2.36 -0.637,0.851 -1.606,1.605 -2.36,2.359 -0.261,0.262 -0.414,0.785 -0.785,0.785 -0.261,0 0,-0.523 0,-0.785 l 0,-7.078 c 0,-0.266 0.262,-0.789 0,-0.789 -0.332,0 0.203,0.957 0,1.574 -0.187,0.555 -0.601,1.016 -0.789,1.574 -0.082,0.246 0,0.524 0,0.785 l 0,1.575 c 0,0.523 0.129,1.062 0,1.574 -0.949,3.797 -0.371,-0.039 -1.57,2.359 -0.531,1.059 -0.668,3.145 -1.574,3.145 -0.262,0 0.117,-0.551 0,-0.785 -0.168,-0.332 -0.668,-0.434 -0.789,-0.789 -0.094,-0.286 0,-4.582 0,-4.719 l 0,-2.36 c 0,-0.261 0.265,-0.785 0,-0.785 -0.262,0 0,0.524 0,0.785 l 0,11.801 c 0,1.047 0.207,2.117 0,3.145 -0.114,0.574 -0.524,1.051 -0.786,1.574 -0.261,0.262 -0.667,0.434 -0.785,0.785 -0.168,0.5 0,1.051 0,1.574 l 0,0.789 c 0,0.262 -0.261,0.786 0,0.786 0.262,0 0,-0.524 0,-0.786 l 0,-11.8 c 0,-0.188 0.293,-2.653 -0.789,-1.575 -0.183,0.188 0.188,0.602 0,0.786 -0.183,0.187 -0.601,-0.184 -0.785,0 -0.051,0.05 -1.476,3 -1.574,3.148 -0.41,0.617 -1.242,0.91 -1.574,1.574 -0.118,0.235 -0.262,0.785 0,0.785 0.265,0 0.265,-0.785 0,-0.785 -0.262,0 0,0.524 0,0.785 l 0,0.79 c 0,0.64 0.172,3.421 0,3.929 -0.184,0.559 -0.645,1.008 -0.786,1.574 -0.124,0.508 0.168,1.079 0,1.575 -0.117,0.351 -0.667,0.433 -0.785,0.785 -0.168,0.5 0.125,1.066 0,1.574 -0.144,0.57 -0.601,1.016 -0.789,1.574 -0.164,0.496 0.371,1.203 0,1.574 -0.183,0.184 -0.55,-0.117 -0.785,0 -0.332,0.165 -0.523,0.524 -0.785,0.786 -0.266,0.261 -0.582,0.476 -0.789,0.785 -0.324,0.488 -0.461,1.086 -0.785,1.574 -0.207,0.309 -0.582,0.477 -0.789,0.785 -0.325,0.488 -0.524,1.051 -0.785,1.574 -0.262,0.262 -0.582,0.481 -0.786,0.789 -0.48,0.719 -0.672,1.907 -1.574,2.36 -0.234,0.117 -0.523,0 -0.785,0 -0.266,0 -0.555,0.117 -0.789,0 -0.332,-0.168 -0.453,-0.621 -0.785,-0.789 -0.235,-0.117 -0.672,0.234 -0.789,0 -0.145,-0.293 0,-4.25 0,-4.719 l 0,-1.574 c 0,-0.262 0.265,-0.785 0,-0.785 -0.262,0 0.187,0.601 0,0.785 -0.184,0.187 -0.551,-0.117 -0.785,0 -0.332,0.168 -0.454,0.621 -0.786,0.789 -0.242,0.117 -2.007,0 -2.359,0 -0.266,0 -0.602,0.183 -0.789,0 -0.184,-0.188 0,-0.528 0,-0.789 l 0,-1.571 c 0,-0.265 0.117,0.551 0,0.786 -0.164,0.332 -0.621,0.453 -0.785,0.785 -0.117,0.234 0.082,0.539 0,0.789 -0.953,2.851 -0.375,0.558 -1.574,2.359 -0.325,0.488 -0.524,1.047 -0.786,1.574 -0.261,0.524 -0.601,1.016 -0.789,1.571 -0.082,0.25 -0.261,0.789 0,0.789 0.262,0 0,-0.528 0,-0.789 l 0,-2.36 c 0,-0.785 -0.351,-1.656 0,-2.359 0.118,-0.234 0.602,0.187 0.789,0 0.184,-0.184 0.184,-0.602 0,-0.785 -0.57,-0.571 -2.117,1.207 -2.359,1.57 -0.48,0.719 -0.672,1.91 -1.574,2.363 -1.086,0.539 -0.703,-0.953 -1.574,0.786 -0.118,0.234 -0.262,0.785 0,0.785 0.261,0 0,-0.524 0,-0.785 0,-0.258 0.429,-3.579 -0.786,-2.36 -0.371,0.371 0.372,1.203 0,1.574 -0.671,0.668 -3.035,-2.078 -2.363,1.571 -0.144,0.218 0.188,0.601 0,0.789 -0.183,0.183 -0.597,0.183 -0.785,0 -0.184,-0.188 0,-0.528 0,-0.789 l 0,-5.504 c 0,-0.262 0.117,0.551 0,0.785 -0.332,0.664 -1.34,0.871 -1.574,1.574 -0.164,0.496 0.168,1.074 0,1.574 -0.117,0.352 -0.524,0.524 -0.785,0.786 -0.524,0.523 -1.129,0.98 -1.575,1.574 -0.574,0.765 -0.609,1.879 -1.574,2.359 -0.234,0.117 -0.551,-0.117 -0.785,0 -0.332,0.164 -0.414,0.785 -0.785,0.785 -1.16,0 -0.789,-2.05 -0.789,-2.359 l 0,-5.508 c 0,-0.785 -0.152,-1.586 0,-2.359 0.117,-0.574 0.601,-1.016 0.789,-1.571 0.183,-0.558 -0.512,-2.363 0.785,-2.363 0.262,0 0,0.528 0,0.789 0,0.524 0.168,1.074 0,1.574 -0.117,0.352 -0.621,0.454 -0.785,0.786 -0.793,1.586 -0.543,2.558 -1.574,3.933 -0.446,0.594 -1.129,0.981 -1.575,1.574 -0.351,0.469 -0.433,1.102 -0.785,1.571 -0.445,0.593 -1.129,0.98 -1.574,1.574 -0.351,0.469 -0.371,1.16 -0.785,1.574 -0.078,0.078 -2.281,0.078 -2.359,0 -0.188,-0.187 0.082,-0.539 0,-0.789 -0.188,-0.555 -0.528,-1.047 -0.789,-1.57 0,-0.528 0.128,-1.067 0,-1.574 -0.141,-0.571 -0.645,-1.004 -0.786,-1.575 -0.129,-0.507 0,-1.047 0,-1.574 l 0,-5.504 c 0,-0.261 0.262,-0.789 0,-0.789 -0.261,0 0,0.528 0,0.789 l 0,3.934 c 0,0.523 0.125,1.062 0,1.57 -0.285,1.141 -1.203,2.035 -1.574,3.149 -0.082,0.25 0.082,0.539 0,0.785 -0.183,0.558 -0.644,1.004 -0.785,1.574 -0.129,0.508 0.164,1.074 0,1.574 -0.117,0.352 -0.621,0.453 -0.789,0.785 -0.117,0.235 -0.262,0.789 0,0.789 0.262,0 0,-0.527 0,-0.789 l 0,-2.359 c 0,-3.074 -0.234,-0.082 0.789,-3.145 0.082,-0.25 0,-0.527 0,-0.789 l 0,-1.574 c 0,-1.168 -0.117,-1.004 0.785,-2.359 0.207,-0.309 0.621,-0.453 0.785,-0.785 0.117,-0.235 0.266,-0.786 0,-0.786 -0.261,0 0,0.524 0,0.786 0,2.16 0.235,1.105 -0.785,3.144 -0.523,1.051 -1.203,2.035 -1.574,3.149 -3.246,9.738 2.016,-1.977 -2.359,7.867 -0.477,1.07 -1.11,2.066 -1.575,3.144 -0.324,0.762 -0.414,1.621 -0.785,2.36 -0.844,1.691 -2.172,3.101 -3.144,4.722 -0.082,0.137 -1.547,3.117 -1.575,3.145 -0.578,0.578 -1.421,-0.633 -1.574,-0.785 l -0.785,-0.789 c -0.266,-0.262 -0.621,-0.454 -0.789,-0.786 -0.117,-0.234 0.082,-0.539 0,-0.785 -0.184,-0.558 -0.602,-1.019 -0.785,-1.574 -0.195,-0.59 0.394,-1.969 0,-2.359 -0.262,-0.262 -0.621,0.453 -0.789,0.785 -0.117,0.234 0.086,0.539 0,0.789 -0.184,0.555 -0.524,1.047 -0.785,1.57 0,0.528 0.129,1.067 0,1.574 -0.141,0.571 -0.672,1 -0.786,1.575 -0.156,0.769 0.129,1.582 0,2.359 -0.136,0.816 -0.527,1.574 -0.789,2.359 -0.261,0.786 -0.414,1.618 -0.785,2.36 -0.422,0.847 -1.086,1.551 -1.574,2.359 -0.301,0.504 -0.602,1.02 -0.785,1.574 -0.324,0.977 0.644,0.856 -0.789,1.575 -0.235,0.117 -0.598,0.183 -0.785,0 -0.184,-0.188 0,-0.524 0,-0.789 l 0,-7.864 c 0,-0.789 -0.153,-1.59 0,-2.359 0.117,-0.578 0.672,-1 0.785,-1.574 0.207,-1.032 0,-2.098 0,-3.149 0,-0.261 -0.184,-0.601 0,-0.785 0.187,-0.187 0.672,-0.234 0.789,0 0.469,0.938 -0.254,2.129 0,3.145 0.14,0.57 0.672,1 0.785,1.574 0.156,0.773 0,1.574 0,2.359 l 0,2.36 c 0,1.05 0.148,2.109 0,3.148 -0.117,0.82 -0.648,1.543 -0.785,2.359 -0.129,0.778 0.129,1.586 0,2.36 -0.274,1.636 -1.172,3.113 -1.574,4.719 -0.176,0.707 0.64,3.148 -0.786,3.148 -0.261,0 0,-0.523 0,-0.785 l 0,-13.375 c 0,-0.262 0.082,0.539 0,0.789 -0.371,1.109 -1.14,2.055 -1.574,3.144 -0.308,0.77 -0.48,1.59 -0.785,2.36 -0.219,0.547 -0.601,1.019 -0.789,1.574 -0.34,1.027 -0.445,2.121 -0.785,3.145 -0.367,1.101 -1.82,3.218 -2.359,3.933 -0.223,0.297 -0.672,0.438 -0.79,0.789 -0.14,0.422 0.54,3.145 -0.785,3.145 -0.261,0 0,-0.524 0,-0.785 l 0,-12.586 c 0,-0.262 0.262,-0.789 0,-0.789 -0.261,0 0.117,0.554 0,0.789 -0.168,0.332 -0.582,0.476 -0.785,0.785 -0.328,0.488 -0.527,1.051 -0.789,1.574 l -3.144,6.293 -1.575,3.145 c -0.261,0.527 -0.601,1.019 -0.785,1.574 -0.344,1.027 -0.445,2.121 -0.789,3.148 -0.184,0.555 -0.672,0.996 -0.785,1.574 -0.379,1.891 0.82,4.684 -0.789,6.293 -0.184,0.184 0,-0.527 0,-0.789 0,-1.047 0.207,-2.117 0,-3.144 -0.16,-0.813 -0.621,-1.547 -0.785,-2.36 -0.102,-0.515 0,-1.05 0,-1.574 l 0,-10.226 0,1.574 c 0,3.035 0.289,0.203 -1.575,3.93 -0.371,0.742 -0.523,1.574 -0.785,2.363 l -0.785,2.359 -0.789,2.36 c -0.262,0.785 -0.625,1.546 -0.785,2.359 -0.723,3.598 1.039,-0.504 -0.789,3.148 -0.125,0.508 0.234,1.102 0,1.571 -0.117,0.234 -0.668,0.234 -0.785,0 -0.235,-0.469 0,-1.047 0,-1.571 l 0,-13.375 c 0,-0.261 0.261,-0.785 0,-0.785 -0.262,0 0,0.524 0,0.785 l 0,6.293 c 0,0.789 0.109,1.582 0,2.36 -0.153,1.07 -0.653,2.074 -0.785,3.148 -0.133,1.039 0.171,2.109 0,3.145 -0.098,0.578 -0.571,1.031 -0.789,1.574 -0.309,0.769 -0.649,1.543 -0.786,2.359 -0.179,1.067 0,4.203 0,5.508 l 0,-20.453 c 0,-0.262 0.262,-0.785 0,-0.785 -0.261,0 0.118,0.551 0,0.785 -1.343,2.687 -0.789,-2.434 -0.789,3.148 -0.133,0.817 -0.523,1.571 -0.785,2.36 l -2.359,7.078 c -0.559,1.68 -1.328,3.777 -1.574,5.508 -0.223,1.554 0.308,3.175 0,4.718 -0.114,0.575 -0.645,1.004 -0.786,1.575 -0.129,0.507 0,1.047 0,1.57 0,0.266 -0.261,0.789 0,0.789 0.262,0 0,-0.523 0,-0.789 l 0,-20.449 0,2.359 c 0,1.047 0.204,2.117 0,3.145 -0.164,0.812 -0.652,1.543 -0.789,2.359 -0.214,1.293 0.258,2.648 0,3.934 -0.16,0.812 -0.523,1.574 -0.785,2.359 -0.262,0.527 -0.644,1.008 -0.785,1.574 -0.18,0.715 0,3.02 0,3.934 0,0.262 -0.262,0.785 0,0.785 0.262,0 0,-0.523 0,-0.785 l 0,-2.36 c 0,-3.605 -0.168,0.829 0.785,-3.933 0.207,-1.027 -0.254,-2.129 0,-3.145 0.141,-0.57 0.785,-0.988 0.785,-1.574 0,-0.371 -0.617,0.453 -0.785,0.785 -0.117,0.235 0,0.524 0,0.789 0,1.895 0.336,3.035 -0.785,4.719 -1.344,2.012 -0.789,-1.008 -0.789,3.145 -0.262,0.527 -1.309,0.261 -1.57,0.789 -0.485,0.961 0.777,3.937 -0.789,4.718 -0.332,0.164 -0.524,-0.523 -0.786,-0.785 -0.261,-0.265 -0.621,-0.457 -0.789,-0.789 -0.109,-0.222 0,-3.512 0,-3.933 l 0,-0.786 c 0,-0.261 0.266,-0.785 0,-0.785 -0.261,0 0.118,0.551 0,0.785 -0.328,0.664 -1.238,0.911 -1.57,1.575 -0.371,0.742 -0.359,1.648 -0.789,2.359 -0.379,0.637 -1.047,1.047 -1.57,1.574 -0.266,0.262 -0.481,0.578 -0.789,0.785 -0.489,0.325 -1.157,0.371 -1.575,0.786 -0.414,0.414 -0.597,1.019 -0.785,1.574 -0.082,0.25 0.188,0.601 0,0.785 -0.183,0.187 -0.601,0.187 -0.785,0 -0.371,-0.367 0.164,-1.074 0,-1.57 -0.187,-0.559 -0.644,-1.004 -0.789,-1.575 -0.125,-0.507 0,-1.05 0,-1.574 l 0,-2.359 c 0,-0.262 0.262,-0.785 0,-0.785 -0.262,0 0.117,0.55 0,0.785 -0.422,0.847 -1.852,1.019 -1.57,2.359 -0.457,1.133 -0.785,2.879 -1.575,3.934 -0.445,0.594 -1.128,0.98 -1.574,1.574 -0.351,0.469 -0.523,1.047 -0.785,1.574 -0.262,0.524 -0.601,1.016 -0.789,1.571 -0.324,0.976 0.648,0.859 -0.785,1.574 -0.234,0.117 -0.524,0 -0.785,0 -0.266,0 -0.602,0.187 -0.789,0 -0.11,-0.11 0.082,-3.52 0,-3.934 -0.325,-1.625 -1.172,-3.109 -1.575,-4.719 -0.187,-0.761 0.192,-1.597 0,-2.359 -0.14,-0.57 -0.644,-1.004 -0.785,-1.574 -0.129,-0.508 0,-1.047 0,-1.574 0,-0.262 0.262,-0.786 0,-0.786 -0.261,0 0,0.524 0,0.786 l 0,1.574 c 0,2.183 0.117,-1.254 -0.785,2.359 -0.129,0.508 0.125,1.067 0,1.574 -0.144,0.571 -0.601,1.016 -0.789,1.575 -0.082,0.246 0.082,0.535 0,0.785 -0.371,1.113 -1.203,2.035 -1.574,3.148 -0.082,0.246 0,0.524 0,0.785 0,0.262 -0.262,0.786 0,0.786 0.265,0 0,-0.524 0,-0.786 l 0,-11.011 0,0.785 c 0,2.531 0.187,-1.344 -0.785,1.574 -0.164,0.496 0,1.047 0,1.574 l 0,16.52 c 0,0.703 0.523,3.144 -0.785,3.144 -0.262,0 0,-0.523 0,-0.785 l 0,-3.148 c 0,-3.606 0.164,0.828 -0.789,-3.934 -0.254,-1.285 0.257,-2.648 0,-3.933 -0.114,-0.575 -0.524,-1.047 -0.786,-1.571 -0.261,-0.527 -0.371,-1.16 -0.785,-1.574 -0.187,-0.187 0.117,0.551 0,0.785 -0.168,0.332 -0.621,0.457 -0.789,0.789 -0.117,0.235 0.117,0.551 0,0.785 -0.332,0.664 -1.242,0.911 -1.574,1.575 -0.234,0.468 0.234,1.101 0,1.574 -0.164,0.328 -0.578,0.476 -0.785,0.785 -0.324,0.488 -0.461,1.086 -0.785,1.574 -0.207,0.309 -0.7,0.426 -0.789,0.785 -0.192,0.762 0.191,1.598 0,2.36 -0.18,0.718 -1.243,0.91 -1.571,1.574 -0.117,0.234 -0.265,0.785 0,0.785 0.262,0 0,-0.523 0,-0.785 l 0,-5.508 c 0,-0.262 0.117,0.555 0,0.789 -0.168,0.332 -0.621,0.453 -0.789,0.785 -0.117,0.235 0.117,0.551 0,0.785 -0.105,0.211 -2.148,2.258 -2.359,2.364 -0.235,0.117 -0.602,0.183 -0.785,0 -0.246,-0.246 0.242,-3.692 0,-3.934 -0.188,-0.187 -0.602,-0.187 -0.789,0 -0.184,0.184 0.187,0.602 0,0.785 -0.414,0.414 -1.157,0.371 -1.571,0.785 -0.187,0.188 0.184,0.602 0,0.79 -0.187,0.183 -0.601,-0.188 -0.789,0 -0.183,0.183 -0.262,0.785 0,0.785 0.262,0 0,-0.524 0,-0.785 l 0,-1.575 c 0,-0.261 0.188,-0.601 0,-0.785 -0.183,-0.187 -0.601,-0.187 -0.785,0 -0.414,0.414 -0.461,1.086 -0.789,1.57 -0.203,0.309 -0.578,0.481 -0.785,0.79 -0.324,0.488 -0.371,1.156 -0.785,1.574 -0.188,0.183 0,-0.528 0,-0.789 l 0,-5.504 c 0,-0.528 0.371,-1.203 0,-1.574 -0.262,-0.262 -0.621,0.453 -0.789,0.785 -0.118,0.234 0.117,0.551 0,0.789 -0.164,0.328 -0.579,0.476 -0.786,0.785 -0.968,1.453 -1.39,3.266 -2.359,4.719 -0.207,0.308 -0.672,0.433 -0.789,0.789 -0.102,0.304 0.445,2.359 -0.785,2.359 -0.371,0 -0.621,-0.457 -0.785,-0.789 -0.149,-0.289 0,-4.035 0,-4.719 l 0,-0.785 c 0,-0.262 0.261,-0.789 0,-0.789 -0.262,0 0.117,0.555 0,0.789 -0.168,0.332 -0.457,0.621 -0.789,0.785 -1.391,0.696 -0.27,-1.172 -1.571,0.785 -0.328,0.489 -0.375,1.161 -0.789,1.575"
           style="fill:none;stroke:#00ff00;stroke-opacity:1;stroke-width:1.431671;stroke-linecap:butt;stroke-linejoin:miter;stroke-miterlimit:4;stroke-dasharray:none"
           id="path3548" /></g><g
         id="g3550"
         transform="matrix(1,0,0,-1,0,202.25)"><path
           d="m 273.34,187.133 251.988,0 0,13.855 -251.988,0 0,-13.855 z"
           style="fill:none;stroke:#7e7e7e;stroke-opacity:1;stroke-width:0.443434;stroke-linecap:round;stroke-linejoin:round;stroke-miterlimit:4;stroke-dasharray:none"
           id="path3552" /></g><g
         id="g3554"
         transform="matrix(1,0,0,-1,0,202.25)"><path
           d="m 273.066,173.234 251.992,0 0,13.855 -251.992,0 0,-13.855 z"
           style="fill:none;stroke:#7e7e7e;stroke-opacity:1;stroke-width:0.443434;stroke-linecap:round;stroke-linejoin:round;stroke-miterlimit:4;stroke-dasharray:none"
           id="path3556" /></g><g
         id="g3558"
         transform="matrix(1,0,0,-1,0,202.25)"><path
           d="m 273.145,159.344 251.992,0 0,13.855 -251.992,0 0,-13.855 z"
           style="fill:none;stroke:#7e7e7e;stroke-opacity:1;stroke-width:0.443434;stroke-linecap:round;stroke-linejoin:round;stroke-miterlimit:4;stroke-dasharray:none"
           id="path3560" /></g><g
         id="g3562"
         transform="matrix(1,0,0,-1,0,202.25)"><path
           d="m 272.875,145.445 251.988,0 0,13.855 -251.988,0 0,-13.855 z"
           style="fill:none;stroke:#7e7e7e;stroke-opacity:1;stroke-width:0.443434;stroke-linecap:round;stroke-linejoin:round;stroke-miterlimit:4;stroke-dasharray:none"
           id="path3564" /></g><g
         id="g3566"
         transform="matrix(1,0,0,-1,0,202.25)"><path
           d="m 273.754,131.574 251.988,0 0,13.855 -251.988,0 0,-13.855 z"
           style="fill:none;stroke:#7e7e7e;stroke-opacity:1;stroke-width:0.443434;stroke-linecap:round;stroke-linejoin:round;stroke-miterlimit:4;stroke-dasharray:none"
           id="path3568" /></g><g
         id="g3570"
         transform="matrix(1,0,0,-1,0,202.25)"><path
           d="m 273.832,117.684 251.988,0 0,13.855 -251.988,0 0,-13.855 z"
           style="fill:none;stroke:#7e7e7e;stroke-opacity:1;stroke-width:0.443434;stroke-linecap:round;stroke-linejoin:round;stroke-miterlimit:4;stroke-dasharray:none"
           id="path3572" /></g><g
         id="g3574"
         transform="matrix(1,0,0,-1,0,202.25)"><path
           d="m 273.562,103.785 251.988,0 0,13.855 -251.988,0 0,-13.855 z"
           style="fill:none;stroke:#7e7e7e;stroke-opacity:1;stroke-width:0.443434;stroke-linecap:round;stroke-linejoin:round;stroke-miterlimit:4;stroke-dasharray:none"
           id="path3576" /></g><g
         id="g3578"
         transform="matrix(1,0,0,-1,0,202.25)"><path
           d="m 273.781,89.914 251.988,0 0,13.855 -251.988,0 0,-13.855 z"
           style="fill:none;stroke:#7e7e7e;stroke-opacity:1;stroke-width:0.443434;stroke-linecap:round;stroke-linejoin:round;stroke-miterlimit:4;stroke-dasharray:none"
           id="path3580" /></g><g
         id="g3582"
         transform="matrix(1,0,0,-1,0,202.25)"><path
           d="m 273.859,76.02 251.988,0 0,13.855 -251.988,0 0,-13.855 z"
           style="fill:none;stroke:#7e7e7e;stroke-opacity:1;stroke-width:0.443434;stroke-linecap:round;stroke-linejoin:round;stroke-miterlimit:4;stroke-dasharray:none"
           id="path3584" /></g><g
         id="g3586"
         transform="matrix(1,0,0,-1,0,202.25)"><path
           d="m 273.59,62.125 251.988,0 0,13.852 -251.988,0 0,-13.852 z"
           style="fill:none;stroke:#7e7e7e;stroke-opacity:1;stroke-width:0.443434;stroke-linecap:round;stroke-linejoin:round;stroke-miterlimit:4;stroke-dasharray:none"
           id="path3588" /></g><g
         id="g3590"
         transform="matrix(1,0,0,-1,0,202.25)"><path
           d="m 274.469,48.254 251.988,0 0,13.855 -251.988,0 0,-13.855 z"
           style="fill:none;stroke:#7e7e7e;stroke-opacity:1;stroke-width:0.443434;stroke-linecap:round;stroke-linejoin:round;stroke-miterlimit:4;stroke-dasharray:none"
           id="path3592" /></g><g
         id="g3594"
         transform="matrix(1,0,0,-1,0,202.25)"><path
           d="m 274.547,34.359 251.988,0 0,13.855 -251.988,0 0,-13.855 z"
           style="fill:none;stroke:#7e7e7e;stroke-opacity:1;stroke-width:0.443434;stroke-linecap:round;stroke-linejoin:round;stroke-miterlimit:4;stroke-dasharray:none"
           id="path3596" /></g><g
         id="g3598"
         transform="matrix(1,0,0,-1,0,202.25)"><path
           d="m 274.273,20.465 251.992,0 0,13.852 -251.992,0 0,-13.852 z"
           style="fill:none;stroke:#7e7e7e;stroke-opacity:1;stroke-width:0.443434;stroke-linecap:round;stroke-linejoin:round;stroke-miterlimit:4;stroke-dasharray:none"
           id="path3600" /></g><g
         id="g3602"
         transform="matrix(1,0,0,-1,0,202.25)"><path
           d="m 272.781,6.5 251.988,0 0,13.855 -251.988,0 0,-13.855 z"
           style="fill:none;stroke:#7e7e7e;stroke-opacity:1;stroke-width:0.443434;stroke-linecap:round;stroke-linejoin:round;stroke-miterlimit:4;stroke-dasharray:none"
           id="path3604" /></g><g
         id="g3606"
         transform="matrix(1,0,0,-1,0,202.25)"><path
           d="m 273.141,2.293 252.371,0 0,198.332 -252.371,0 0,-198.332 z"
           style="fill:none;stroke:#000000;stroke-opacity:1;stroke-width:2.926665;stroke-linecap:butt;stroke-linejoin:miter;stroke-miterlimit:4;stroke-dasharray:none"
           id="path3608" /></g><g
         id="g3610"
         transform="matrix(1,0,0,-1,0,202.25)"><path
           d="m 538.023,186.312 251.988,0 0,13.855 -251.988,0 0,-13.855 z"
           style="fill:none;stroke:#7e7e7e;stroke-opacity:1;stroke-width:0.443434;stroke-linecap:round;stroke-linejoin:round;stroke-miterlimit:4;stroke-dasharray:none"
           id="path3612" /></g><g
         id="g3614"
         transform="matrix(1,0,0,-1,0,202.25)"><path
           d="m 537.754,172.418 251.988,0 0,13.852 -251.988,0 0,-13.852 z"
           style="fill:none;stroke:#7e7e7e;stroke-opacity:1;stroke-width:0.443434;stroke-linecap:round;stroke-linejoin:round;stroke-miterlimit:4;stroke-dasharray:none"
           id="path3616" /></g><g
         id="g3618"
         transform="matrix(1,0,0,-1,0,202.25)"><path
           d="m 537.832,158.523 251.988,0 0,13.855 -251.988,0 0,-13.855 z"
           style="fill:none;stroke:#7e7e7e;stroke-opacity:1;stroke-width:0.443434;stroke-linecap:round;stroke-linejoin:round;stroke-miterlimit:4;stroke-dasharray:none"
           id="path3620" /></g><g
         id="g3622"
         transform="matrix(1,0,0,-1,0,202.25)"><path
           d="m 537.562,144.625 251.988,0 0,13.855 -251.988,0 0,-13.855 z"
           style="fill:none;stroke:#7e7e7e;stroke-opacity:1;stroke-width:0.443434;stroke-linecap:round;stroke-linejoin:round;stroke-miterlimit:4;stroke-dasharray:none"
           id="path3624" /></g><g
         id="g3626"
         transform="matrix(1,0,0,-1,0,202.25)"><path
           d="m 538.438,130.758 251.992,0 0,13.852 -251.992,0 0,-13.852 z"
           style="fill:none;stroke:#7e7e7e;stroke-opacity:1;stroke-width:0.443434;stroke-linecap:round;stroke-linejoin:round;stroke-miterlimit:4;stroke-dasharray:none"
           id="path3628" /></g><g
         id="g3630"
         transform="matrix(1,0,0,-1,0,202.25)"><path
           d="m 538.516,116.863 251.992,0 0,13.855 -251.992,0 0,-13.855 z"
           style="fill:none;stroke:#7e7e7e;stroke-opacity:1;stroke-width:0.443434;stroke-linecap:round;stroke-linejoin:round;stroke-miterlimit:4;stroke-dasharray:none"
           id="path3632" /></g><g
         id="g3634"
         transform="matrix(1,0,0,-1,0,202.25)"><path
           d="m 538.246,102.965 251.988,0 0,13.855 -251.988,0 0,-13.855 z"
           style="fill:none;stroke:#7e7e7e;stroke-opacity:1;stroke-width:0.443434;stroke-linecap:round;stroke-linejoin:round;stroke-miterlimit:4;stroke-dasharray:none"
           id="path3636" /></g><g
         id="g3638"
         transform="matrix(1,0,0,-1,0,202.25)"><path
           d="m 538.469,89.094 251.988,0 0,13.855 -251.988,0 0,-13.855 z"
           style="fill:none;stroke:#7e7e7e;stroke-opacity:1;stroke-width:0.443434;stroke-linecap:round;stroke-linejoin:round;stroke-miterlimit:4;stroke-dasharray:none"
           id="path3640" /></g><g
         id="g3642"
         transform="matrix(1,0,0,-1,0,202.25)"><path
           d="m 538.547,75.203 251.988,0 0,13.852 -251.988,0 0,-13.852 z"
           style="fill:none;stroke:#7e7e7e;stroke-opacity:1;stroke-width:0.443434;stroke-linecap:round;stroke-linejoin:round;stroke-miterlimit:4;stroke-dasharray:none"
           id="path3644" /></g><g
         id="g3646"
         transform="matrix(1,0,0,-1,0,202.25)"><path
           d="m 538.273,61.305 251.992,0 0,13.855 -251.992,0 0,-13.855 z"
           style="fill:none;stroke:#7e7e7e;stroke-opacity:1;stroke-width:0.443434;stroke-linecap:round;stroke-linejoin:round;stroke-miterlimit:4;stroke-dasharray:none"
           id="path3648" /></g><g
         id="g3650"
         transform="matrix(1,0,0,-1,0,202.25)"><path
           d="m 539.152,47.434 251.992,0 0,13.855 -251.992,0 0,-13.855 z"
           style="fill:none;stroke:#7e7e7e;stroke-opacity:1;stroke-width:0.443434;stroke-linecap:round;stroke-linejoin:round;stroke-miterlimit:4;stroke-dasharray:none"
           id="path3652" /></g><g
         id="g3654"
         transform="matrix(1,0,0,-1,0,202.25)"><path
           d="m 539.23,33.539 251.988,0 0,13.855 -251.988,0 0,-13.855 z"
           style="fill:none;stroke:#7e7e7e;stroke-opacity:1;stroke-width:0.443434;stroke-linecap:round;stroke-linejoin:round;stroke-miterlimit:4;stroke-dasharray:none"
           id="path3656" /></g><g
         id="g3658"
         transform="matrix(1,0,0,-1,0,202.25)"><path
           d="m 538.961,19.645 251.988,0 0,13.852 -251.988,0 0,-13.852 z"
           style="fill:none;stroke:#7e7e7e;stroke-opacity:1;stroke-width:0.443434;stroke-linecap:round;stroke-linejoin:round;stroke-miterlimit:4;stroke-dasharray:none"
           id="path3660" /></g><g
         id="g3662"
         transform="matrix(1,0,0,-1,0,202.25)"><path
           d="m 537.469,5.68 251.988,0 0,13.855 -251.988,0 0,-13.855 z"
           style="fill:none;stroke:#7e7e7e;stroke-opacity:1;stroke-width:0.443434;stroke-linecap:round;stroke-linejoin:round;stroke-miterlimit:4;stroke-dasharray:none"
           id="path3664" /></g><g
         id="g3666"
         transform="matrix(1,0,0,-1,0,202.25)"><path
           d="m 537.824,1.473 252.375,0 0,198.332 -252.375,0 0,-198.332 z"
           style="fill:none;stroke:#000000;stroke-opacity:1;stroke-width:2.926665;stroke-linecap:butt;stroke-linejoin:miter;stroke-miterlimit:4;stroke-dasharray:none"
           id="path3668" /></g><g
         id="g3670"
         transform="matrix(1,0,0,-1,0,202.25)"><path
           d="M 538.641,159.34 C 626.836,148.852 635.781,60.543 669.121,64.906 724.934,54.18 693.988,24.613 774.297,22.539"
           style="fill:none;stroke:#ff0000;stroke-opacity:1;stroke-width:1.725883;stroke-linecap:round;stroke-linejoin:round;stroke-miterlimit:4;stroke-dasharray:none"
           id="path3672" /></g><g
         id="g3674"
         transform="matrix(1,0,0,-1,0,202.25)"><path
           d="M 273.625,153.5 C 375.383,153.961 403.172,23.07 506.168,22.668"
           style="fill:none;stroke:#ffff00;stroke-opacity:1;stroke-width:1.385565;stroke-linecap:butt;stroke-linejoin:miter;stroke-miterlimit:4;stroke-dasharray:none"
           id="path3676" /></g><g
         id="g3678"
         transform="matrix(1,0,0,-1,0,202.25)"><path
           d="m 391.211,159.109 c 6.793,21.407 12.957,46.383 28.57,0"
           style="fill:none;stroke:#0000ff;stroke-opacity:1;stroke-width:1.6;stroke-linecap:butt;stroke-linejoin:round;stroke-miterlimit:4;stroke-dasharray:none"
           id="path3680" /></g><g
         id="g3682"
         transform="matrix(1,0,0,-1,0,202.25)"><path
           d="m 434.07,158.539 c 8.207,-6.172 15.133,-17.074 29.141,0"
           style="fill:none;stroke:#0000ff;stroke-opacity:1;stroke-width:1.6;stroke-linecap:butt;stroke-linejoin:round;stroke-miterlimit:4;stroke-dasharray:none"
           id="path3684" /></g><g
         id="g3686"
         transform="matrix(1,0,0,-1,0,202.25)"><path
           d="m 413.211,158.25 c 7.371,7.426 13.043,21.527 29.144,0"
           style="fill:none;stroke:#0000ff;stroke-opacity:1;stroke-width:1.6;stroke-linecap:butt;stroke-linejoin:round;stroke-miterlimit:4;stroke-dasharray:none"
           id="path3688" /></g><g
         id="g3690"
         transform="matrix(1,0,0,-1,0,202.25)"><path
           d="m 452.07,157.961 c 7.086,5.117 11.91,11.215 29.141,0"
           style="fill:none;stroke:#0000ff;stroke-opacity:1;stroke-width:1.6;stroke-linecap:butt;stroke-linejoin:round;stroke-miterlimit:4;stroke-dasharray:none"
           id="path3692" /></g><g
         id="g3694"
         transform="matrix(1,0,0,-1,0,202.25)"><path
           d="m 472.641,157.961 c 10.13243,5.23898 19.27458,5.37133 29.14,0"
           style="fill:none;stroke:#0000ff;stroke-width:1.60000002;stroke-linecap:butt;stroke-linejoin:round;stroke-miterlimit:4;stroke-opacity:1;stroke-dasharray:none"
           id="path3696"
           inkscape:connector-curvature="0"
           sodipodi:nodetypes="cc" /></g><g
         id="g3698"
         transform="matrix(1,0,0,-1,0,202.25)"><path
           d="m 273.898,158.816 c 7.086,6.012 11.911,15.875 29.141,0"
           style="fill:none;stroke:#0000ff;stroke-opacity:1;stroke-width:1.6;stroke-linecap:butt;stroke-linejoin:round;stroke-miterlimit:4;stroke-dasharray:none"
           id="path3700" /></g><g
         id="g3702"
         transform="matrix(1,0,0,-1,0,202.25)"><path
           d="m 296.262,159.469 c 7.05,8.703 11.847,22.969 28.984,0"
           style="fill:none;stroke:#0000ff;stroke-opacity:1;stroke-width:1.6;stroke-linecap:butt;stroke-linejoin:round;stroke-miterlimit:4;stroke-dasharray:none"
           id="path3704" /></g><g
         id="g3706"
         transform="matrix(1,0,0,-1,0,202.25)"><path
           d="m 368.926,158.566 c 9.441,-27.394 17.785,-42.449 28.57,0"
           style="fill:none;stroke:#0000ff;stroke-opacity:1;stroke-width:1.6;stroke-linecap:butt;stroke-linejoin:round;stroke-miterlimit:4;stroke-dasharray:none"
           id="path3708" /></g><g
         id="g3710"
         transform="matrix(1,0,0,-1,0,202.25)"><path
           d="m 346.355,158.875 c 7.372,-7.484 13.043,-21.691 29.141,0"
           style="fill:none;stroke:#0000ff;stroke-opacity:1;stroke-width:1.6;stroke-linecap:butt;stroke-linejoin:round;stroke-miterlimit:4;stroke-dasharray:none"
           id="path3712" /></g><g
         id="g3714"
         transform="matrix(1,0,0,-1,0,202.25)"><path
           d="m 322.441,158.219 c 7.102,5.25 11.934,13.859 29.196,0"
           style="fill:none;stroke:#0000ff;stroke-opacity:1;stroke-width:1.6;stroke-linecap:butt;stroke-linejoin:round;stroke-miterlimit:4;stroke-dasharray:none"
           id="path3716" /></g><g
         id="g3718"
         transform="matrix(1,0,0,-1,0,202.25)"><path
           d="m 282.273,9.32 110.219,0 0,60.934 -110.219,0 0,-60.934 z"
           style="fill:#ffffff;fill-opacity:1;fill-rule:nonzero;stroke:#000000;stroke-opacity:1;stroke-width:0.287345;stroke-linecap:round;stroke-linejoin:round;stroke-miterlimit:4;stroke-dasharray:none"
           id="path3720" /></g><g
         id="g3722"
         transform="matrix(1,0,0,-1,0,202.25)"><path
           d="m 285.059,22.609 21.414,0"
           style="fill:none;stroke:#ffff00;stroke-opacity:1;stroke-width:0.8;stroke-linecap:butt;stroke-linejoin:miter;stroke-miterlimit:4;stroke-dasharray:none"
           id="path3724" /></g><text
         transform="matrix(1,0,0,-1,312.53292,182.06313)"
         id="text3726"><tspan
           style="fill:#000000;fill-opacity:1;fill-rule:nonzero;stroke:none;font-family:TeXGyrePagella;font-variant:normal;font-weight:normal;font-size:10.4;writing-mode:lr;-inkscape-font-specification:TeXGyrePagella"
           x="0 5.46 8.476 12.8752 16.2656 21.2368 30.42 35.62 38.22 44.564 47.58 53.6224 58.8224 68.0056 71.0216"
           y="0"
           sodipodi:role="line"
           id="tspan3728">Sistema dinàmic</tspan><tspan
           style="fill:#000000;fill-opacity:1;fill-rule:nonzero;stroke:none;font-family:TeXGyrePagella;font-variant:normal;font-weight:normal;font-size:10.4;writing-mode:lr;-inkscape-font-specification:TeXGyrePagella"
           x="0 7.5504 11.024 16.8064 20.28 25.6464 29.12 31.72 35.1936 37.7936 45.8432"
           y="13"
           sodipodi:role="line"
           id="tspan3730">K(g-x) - Dv</tspan></text>
<g
         id="g3732"
         transform="matrix(1,0,0,-1,0,202.25)"><path
           d="m 284.871,49.547 21.414,0"
           style="fill:none;stroke:#0000ff;stroke-opacity:1;stroke-width:0.8;stroke-linecap:butt;stroke-linejoin:miter;stroke-miterlimit:4;stroke-dasharray:none"
           id="path3734" /></g><text
         transform="matrix(1,0,0,-1,312.34586,155.12612)"
         id="text3736"><tspan
           style="fill:#000000;fill-opacity:1;fill-rule:nonzero;stroke:none;font-family:TeXGyrePagella;font-variant:normal;font-weight:normal;font-size:10.4;writing-mode:lr;-inkscape-font-specification:TeXGyrePagella"
           x="0 7.9456 13.1456 19.4064 23.8056 28.2048 31.2208 36.4208 42.4632 47.4344 51.8336"
           y="0"
           sodipodi:role="line"
           id="tspan3738">Gaussianes </tspan><tspan
           style="fill:#000000;fill-opacity:1;fill-rule:nonzero;stroke:none;font-family:TeXGyrePagella;font-variant:normal;font-weight:normal;font-size:10.4;writing-mode:lr;-inkscape-font-specification:TeXGyrePagella"
           x="0 3.4736 9.2664 12.74"
           y="13"
           sodipodi:role="line"
           id="tspan3740">(g-x</tspan></text>
<text
         transform="matrix(1,0,0,-1,330.4443,140.04612)"
         id="text3742"><tspan
           style="fill:#000000;fill-opacity:1;fill-rule:nonzero;stroke:none;font-family:TeXGyrePagella;font-variant:normal;font-weight:normal;font-size:6.760095;writing-mode:lr;-inkscape-font-specification:TeXGyrePagella"
           x="0"
           y="0"
           id="tspan3744">0</tspan></text>
<text
         transform="matrix(1,0,0,-1,333.82434,142.12612)"
         id="text3746"><tspan
           style="fill:#000000;fill-opacity:1;fill-rule:nonzero;stroke:none;font-family:TeXGyrePagella;font-variant:normal;font-weight:normal;font-size:10.4;writing-mode:lr;-inkscape-font-specification:TeXGyrePagella"
           x="0 3.4736 6.9472 10.4208 14.82"
           y="0"
           sodipodi:role="line"
           id="tspan3748">)f(s)</tspan></text>
<g
         id="g3750"
         transform="matrix(1,0,0,-1,0,202.25)"><path
           d="m 548.535,12.332 110.309,0 0,29.496 -110.309,0 0,-29.496 z"
           style="fill:#ffffff;fill-opacity:1;fill-rule:nonzero;stroke:#000000;stroke-opacity:1;stroke-width:0.2;stroke-linecap:round;stroke-linejoin:round;stroke-miterlimit:4;stroke-dasharray:none"
           id="path3752" /></g><g
         id="g3754"
         transform="matrix(1,0,0,-1,0,202.25)"><path
           d="m 551.363,25.668 21.418,0"
           style="fill:none;stroke:#ff0000;stroke-opacity:1;stroke-width:0.8;stroke-linecap:butt;stroke-linejoin:miter;stroke-miterlimit:4;stroke-dasharray:none"
           id="path3756" /></g><text
         transform="matrix(1,0,0,-1,578.84051,179.00684)"
         id="text3758"><tspan
           style="fill:#000000;fill-opacity:1;fill-rule:nonzero;stroke:none;font-family:TeXGyrePagella;font-variant:normal;font-weight:normal;font-size:10.4;writing-mode:lr;-inkscape-font-specification:TeXGyrePagella"
           x="0 6.3648 10.4728 15.6728 18.1064 23.0776 27.6952 31.0856 36.764 40.872 43.888 49.088"
           y="0"
           sodipodi:role="line"
           id="tspan3760">Trajectòria </tspan><tspan
           style="fill:#000000;fill-opacity:1;fill-rule:nonzero;stroke:none;font-family:TeXGyrePagella;font-variant:normal;font-weight:normal;font-size:10.4;writing-mode:lr;-inkscape-font-specification:TeXGyrePagella"
           x="0 5.2 11.44 15.548 20.5192 24.9184"
           y="13"
           sodipodi:role="line"
           id="tspan3762">apresa</tspan></text>
<g
         id="g3764"
         transform="matrix(1,0,0,-1,0,202.25)"><path
           d="m 403.41,96.996 0.024,33.141"
           style="fill:none;stroke:#000000;stroke-opacity:1;stroke-width:2.88;stroke-linecap:butt;stroke-linejoin:miter;stroke-miterlimit:4;stroke-dasharray:none"
           id="path3766" /></g><g
         id="g3768"
         transform="matrix(1,0,0,-1,0,202.25)"><path
           d="m 388.266,113.363 29.91,0.004"
           style="fill:none;stroke:#000000;stroke-opacity:1;stroke-width:2.88;stroke-linecap:butt;stroke-linejoin:miter;stroke-miterlimit:4;stroke-dasharray:none"
           id="path3770" /></g><g
         id="g3772"
         transform="matrix(1,0,0,-1,0,202.25)"><path
           d="m 8.535,173.035 251.988,0 0,13.855 -251.988,0 0,-13.855 z"
           style="fill:none;stroke:#7e7e7e;stroke-opacity:1;stroke-width:0.443434;stroke-linecap:round;stroke-linejoin:round;stroke-miterlimit:4;stroke-dasharray:none"
           id="path3774" /></g><g
         id="g3776"
         transform="matrix(1,0,0,-1,0,202.25)"><path
           d="m 8.613,159.145 251.988,0 0,13.855 -251.988,0 0,-13.855 z"
           style="fill:none;stroke:#7e7e7e;stroke-opacity:1;stroke-width:0.443434;stroke-linecap:round;stroke-linejoin:round;stroke-miterlimit:4;stroke-dasharray:none"
           id="path3778" /></g><g
         id="g3780"
         transform="matrix(1,0,0,-1,0,202.25)"><path
           d="m 8.344,145.246 251.988,0 0,13.855 -251.988,0 0,-13.855 z"
           style="fill:none;stroke:#7e7e7e;stroke-opacity:1;stroke-width:0.443434;stroke-linecap:round;stroke-linejoin:round;stroke-miterlimit:4;stroke-dasharray:none"
           id="path3782" /></g><g
         id="g3784"
         transform="matrix(1,0,0,-1,0,202.25)"><path
           d="m 9.219,131.375 251.992,0 0,13.855 -251.992,0 0,-13.855 z"
           style="fill:none;stroke:#7e7e7e;stroke-opacity:1;stroke-width:0.443434;stroke-linecap:round;stroke-linejoin:round;stroke-miterlimit:4;stroke-dasharray:none"
           id="path3786" /></g><g
         id="g3788"
         transform="matrix(1,0,0,-1,0,202.25)"><path
           d="m 9.297,117.484 251.992,0 0,13.855 -251.992,0 0,-13.855 z"
           style="fill:none;stroke:#7e7e7e;stroke-opacity:1;stroke-width:0.443434;stroke-linecap:round;stroke-linejoin:round;stroke-miterlimit:4;stroke-dasharray:none"
           id="path3790" /></g><g
         id="g3792"
         transform="matrix(1,0,0,-1,0,202.25)"><path
           d="m 9.027,103.586 251.988,0 0,13.855 -251.988,0 0,-13.855 z"
           style="fill:none;stroke:#7e7e7e;stroke-opacity:1;stroke-width:0.443434;stroke-linecap:round;stroke-linejoin:round;stroke-miterlimit:4;stroke-dasharray:none"
           id="path3794" /></g><g
         id="g3796"
         transform="matrix(1,0,0,-1,0,202.25)"><path
           d="m 9.25,89.715 251.988,0 0,13.855 -251.988,0 0,-13.855 z"
           style="fill:none;stroke:#7e7e7e;stroke-opacity:1;stroke-width:0.443434;stroke-linecap:round;stroke-linejoin:round;stroke-miterlimit:4;stroke-dasharray:none"
           id="path3798" /></g><g
         id="g3800"
         transform="matrix(1,0,0,-1,0,202.25)"><path
           d="m 9.328,75.82 251.988,0 0,13.855 -251.988,0 0,-13.855 z"
           style="fill:none;stroke:#7e7e7e;stroke-opacity:1;stroke-width:0.443434;stroke-linecap:round;stroke-linejoin:round;stroke-miterlimit:4;stroke-dasharray:none"
           id="path3802" /></g><g
         id="g3804"
         transform="matrix(1,0,0,-1,0,202.25)"><path
           d="m 9.059,61.926 251.988,0 0,13.852 -251.988,0 0,-13.852 z"
           style="fill:none;stroke:#7e7e7e;stroke-opacity:1;stroke-width:0.443434;stroke-linecap:round;stroke-linejoin:round;stroke-miterlimit:4;stroke-dasharray:none"
           id="path3806" /></g><g
         id="g3808"
         transform="matrix(1,0,0,-1,0,202.25)"><path
           d="m 9.934,48.055 251.992,0 0,13.855 -251.992,0 0,-13.855 z"
           style="fill:none;stroke:#7e7e7e;stroke-opacity:1;stroke-width:0.443434;stroke-linecap:round;stroke-linejoin:round;stroke-miterlimit:4;stroke-dasharray:none"
           id="path3810" /></g><g
         id="g3812"
         transform="matrix(1,0,0,-1,0,202.25)"><path
           d="m 10.012,34.16 251.992,0 0,13.855 -251.992,0 0,-13.855 z"
           style="fill:none;stroke:#7e7e7e;stroke-opacity:1;stroke-width:0.443434;stroke-linecap:round;stroke-linejoin:round;stroke-miterlimit:4;stroke-dasharray:none"
           id="path3814" /></g><g
         id="g3816"
         transform="matrix(1,0,0,-1,0,202.25)"><path
           d="m 9.742,20.266 251.988,0 0,13.852 -251.988,0 0,-13.852 z"
           style="fill:none;stroke:#7e7e7e;stroke-opacity:1;stroke-width:0.443434;stroke-linecap:round;stroke-linejoin:round;stroke-miterlimit:4;stroke-dasharray:none"
           id="path3818" /></g><g
         id="g3820"
         transform="matrix(1,0,0,-1,0,202.25)"><path
           d="m 8.25,6.301 251.988,0 0,13.855 -251.988,0 0,-13.855 z"
           style="fill:none;stroke:#7e7e7e;stroke-opacity:1;stroke-width:0.443434;stroke-linecap:round;stroke-linejoin:round;stroke-miterlimit:4;stroke-dasharray:none"
           id="path3822" /></g><g
         id="g3824"
         transform="matrix(1,0,0,-1,0,202.25)"><path
           d="m 8.312,2.461 252.371,0 0,198.332 -252.371,0 0,-198.332 z"
           style="fill:none;stroke:#000000;stroke-opacity:1;stroke-width:2.926665;stroke-linecap:butt;stroke-linejoin:miter;stroke-miterlimit:4;stroke-dasharray:none"
           id="path3826" /></g><g
         id="g3828"
         transform="matrix(1,0,0,-1,0,202.25)"><path
           d="m 16.922,12.316 110.309,0 0,29.496 -110.309,0 0,-29.496 z"
           style="fill:#ffffff;fill-opacity:1;fill-rule:nonzero;stroke:#000000;stroke-opacity:1;stroke-width:0.2;stroke-linecap:round;stroke-linejoin:round;stroke-miterlimit:4;stroke-dasharray:none"
           id="path3830" /></g><g
         id="g3832"
         transform="matrix(1,0,0,-1,0,202.25)"><path
           d="m 19.75,25.652 21.414,0"
           style="fill:none;stroke:#00ff00;stroke-opacity:1;stroke-width:0.8;stroke-linecap:butt;stroke-linejoin:miter;stroke-miterlimit:4;stroke-dasharray:none"
           id="path3834" /></g><text
         transform="matrix(1,0,0,-1,47.226188,179.02307)"
         id="text3836"><tspan
           style="fill:#000000;fill-opacity:1;fill-rule:nonzero;stroke:none;font-family:TeXGyrePagella;font-variant:normal;font-weight:normal;font-size:10.4;writing-mode:lr;-inkscape-font-specification:TeXGyrePagella"
           x="0 6.3648 10.4728 15.6728 18.1064 23.0776 27.6952 31.0856 36.764 40.872 43.888 49.088"
           y="0"
           sodipodi:role="line"
           id="tspan3838">Trajectòria </tspan><tspan
           style="fill:#000000;fill-opacity:1;fill-rule:nonzero;stroke:none;font-family:TeXGyrePagella;font-variant:normal;font-weight:normal;font-size:10.4;writing-mode:lr;-inkscape-font-specification:TeXGyrePagella"
           x="0 6.344 11.3152 13.9152 20.2592 25.2304 34.4136 40.092 44.4912 47.8816 51.9896 57.1896 61.8072 64.8232"
           y="13"
           sodipodi:role="line"
           id="tspan3840">de demostració</tspan></text>
<g
         id="g3842"
         transform="matrix(1,0,0,-1,0,202.25)"><path
           d="m 260.629,22.652 -46.035,0"
           style="fill:none;stroke:#ff33ff;stroke-opacity:1;stroke-width:0.620287;stroke-linecap:butt;stroke-linejoin:miter;stroke-miterlimit:4;stroke-dasharray:none"
           id="path3844" /></g><text
         transform="matrix(1,0,0,-1,239.89693,184.73882)"
         id="text3846"><tspan
           style="fill:#000000;fill-opacity:1;fill-rule:nonzero;stroke:none;font-family:TeXGyrePagella;font-variant:normal;font-weight:normal;font-size:8.8;writing-mode:lr;-inkscape-font-specification:TeXGyrePagella"
           x="0 4.9016 9.7152 14.1152"
           y="0"
           sodipodi:role="line"
           id="tspan3848">goal</tspan></text>
<g
         id="g3850"
         transform="matrix(1,0,0,-1,0,202.25)"><path
           d="m 524.629,22.551 -46.035,0"
           style="fill:none;stroke:#ff33ff;stroke-opacity:1;stroke-width:0.620287;stroke-linecap:butt;stroke-linejoin:miter;stroke-miterlimit:4;stroke-dasharray:none"
           id="path3852" /></g><text
         transform="matrix(1,0,0,-1,503.89691,184.84236)"
         id="text3854"><tspan
           style="fill:#000000;fill-opacity:1;fill-rule:nonzero;stroke:none;font-family:TeXGyrePagella;font-variant:normal;font-weight:normal;font-size:8.8;writing-mode:lr;-inkscape-font-specification:TeXGyrePagella"
           x="0 4.9016 9.7152 14.1152"
           y="0"
           sodipodi:role="line"
           id="tspan3856">goal</tspan></text>
<g
         id="g3858"
         transform="matrix(1,0,0,-1,0,202.25)"><path
           d="m 788.629,21.98 -46.035,0"
           style="fill:none;stroke:#ff33ff;stroke-opacity:1;stroke-width:0.620287;stroke-linecap:butt;stroke-linejoin:miter;stroke-miterlimit:4;stroke-dasharray:none"
           id="path3860" /></g><text
         transform="matrix(1,0,0,-1,767.89691,185.41377)"
         id="text3862"><tspan
           style="fill:#000000;fill-opacity:1;fill-rule:nonzero;stroke:none;font-family:TeXGyrePagella;font-variant:normal;font-weight:normal;font-size:8.8;writing-mode:lr;-inkscape-font-specification:TeXGyrePagella"
           x="0 4.9016 9.7152 14.1152"
           y="0"
           sodipodi:role="line"
           id="tspan3864">goal</tspan></text>
<g
         id="g3866"
         transform="matrix(1,0,0,-1,0,202.25)"><path
           d="m 7.898,159.227 253.141,-0.575"
           style="fill:none;stroke:#000000;stroke-opacity:1;stroke-width:1.2;stroke-linecap:butt;stroke-linejoin:miter;stroke-miterlimit:4;stroke-dasharray:none"
           id="path3868" /></g><g
         id="g3870"
         transform="matrix(1,0,0,-1,0,202.25)"><path
           d="m 272.469,159.625 253.14,-0.57"
           style="fill:none;stroke:#000000;stroke-opacity:1;stroke-width:1.2;stroke-linecap:butt;stroke-linejoin:miter;stroke-miterlimit:4;stroke-dasharray:none"
           id="path3872" /></g><g
         id="g3874"
         transform="matrix(1,0,0,-1,0,202.25)"><path
           d="m 538.754,158.941 253.144,-0.574"
           style="fill:none;stroke:#000000;stroke-opacity:1;stroke-width:1.2;stroke-linecap:butt;stroke-linejoin:miter;stroke-miterlimit:4;stroke-dasharray:none"
           id="path3876" /></g><path
         d="m 254.309,47.469 3.089,-1.852 3.09,-1.855 -3.148,-1.746 -3.152,-1.75 0.058,3.601 0.063,3.602 z"
         style="fill:#000000;fill-opacity:1;fill-rule:nonzero;stroke:none"
         id="path3878" /><text
         transform="scale(1,-1)"
         id="text3880"
         x="253.47072"
         y="-33.057426"><tspan
           style="font-size:8.80000019px;font-variant:normal;font-weight:normal;writing-mode:lr-tb;fill:#000000;fill-opacity:1;fill-rule:nonzero;stroke:none;font-family:TeXGyrePagella;-inkscape-font-specification:TeXGyrePagella"
           x="253.47072"
           y="-33.057426"
           id="tspan3882">t</tspan></text>
<g
         id="g3888"
         transform="matrix(1,0,0,-1,0,202.25)"><path
           d="m 243.812,22.242 0.418,133.356"
           style="fill:none;stroke:#000000;stroke-opacity:1;stroke-width:0.785282;stroke-linecap:butt;stroke-linejoin:miter;stroke-miterlimit:4;stroke-dasharray:0.785282,1.570564;stroke-dashoffset:0"
           id="path3890" /></g><g
         id="g3892"
         transform="matrix(1,0,0,-1,0,202.25)"><path
           d="m 244.023,155.586 -0.007,8.898"
           style="fill:none;stroke:#000000;stroke-opacity:1;stroke-width:0.8;stroke-linecap:butt;stroke-linejoin:miter;stroke-miterlimit:4;stroke-dasharray:none"
           id="path3894" /></g><path
         d="m 518.691,46.859 6.18,-3.703 -6.297,-3.5 0.059,3.602 0.058,3.601 z"
         style="fill:#000000;fill-opacity:1;fill-rule:nonzero;stroke:none"
         id="path3896" /><text
         transform="scale(1,-1)"
         id="text3898"
         x="518.30475"
         y="-34.076721"><tspan
           style="font-size:8.80000019px;font-variant:normal;font-weight:normal;writing-mode:lr-tb;fill:#000000;fill-opacity:1;fill-rule:nonzero;stroke:none;font-family:TeXGyrePagella;-inkscape-font-specification:TeXGyrePagella"
           x="518.30475"
           y="-34.076721"
           id="tspan3900">t</tspan></text>
<g
         id="g3906"
         transform="matrix(1,0,0,-1,0,202.25)"><path
           d="m 508.195,22.852 0.418,133.351"
           style="fill:none;stroke:#000000;stroke-opacity:1;stroke-width:0.785282;stroke-linecap:butt;stroke-linejoin:miter;stroke-miterlimit:4;stroke-dasharray:0.785282,1.570564;stroke-dashoffset:0"
           id="path3908" /></g><g
         id="g3910"
         transform="matrix(1,0,0,-1,0,202.25)"><path
           d="m 508.41,156.191 -0.012,8.899"
           style="fill:none;stroke:#000000;stroke-opacity:1;stroke-width:0.8;stroke-linecap:butt;stroke-linejoin:miter;stroke-miterlimit:4;stroke-dasharray:none"
           id="path3912" /></g><path
         d="m 783.551,47.719 3.09,-1.852 3.089,-1.855 -3.148,-1.75 -3.152,-1.75 0.062,3.605 0.059,3.602 z"
         style="fill:#000000;fill-opacity:1;fill-rule:nonzero;stroke:none"
         id="path3914" /><text
         transform="scale(1,-1)"
         id="text3916"
         x="783.16193"
         y="-34.400097"><tspan
           style="font-size:8.80000019px;font-variant:normal;font-weight:normal;writing-mode:lr-tb;fill:#000000;fill-opacity:1;fill-rule:nonzero;stroke:none;font-family:TeXGyrePagella;-inkscape-font-specification:TeXGyrePagella"
           x="783.16193"
           y="-34.400097"
           id="tspan3918">t</tspan></text>
<g
         id="g3924"
         transform="matrix(1,0,0,-1,0,202.25)"><path
           d="m 773.055,21.992 0.418,133.356"
           style="fill:none;stroke:#000000;stroke-opacity:1;stroke-width:0.785282;stroke-linecap:butt;stroke-linejoin:miter;stroke-miterlimit:4;stroke-dasharray:0.785282,1.570564;stroke-dashoffset:0"
           id="path3926" /></g><g
         id="g3928"
         transform="matrix(1,0,0,-1,0,202.25)"><path
           d="m 773.266,155.336 -0.008,8.898"
           style="fill:none;stroke:#000000;stroke-opacity:1;stroke-width:0.8;stroke-linecap:butt;stroke-linejoin:miter;stroke-miterlimit:4;stroke-dasharray:none"
           id="path3930" /></g><path
         d="m 4.699,193.355 1.817,3.11 1.816,3.113 1.789,-3.129 1.785,-3.129 -3.601,0.02 -3.606,0.015 z"
         style="fill:#000000;fill-opacity:1;fill-rule:nonzero;stroke:none"
         id="path3932" /><text
         transform="matrix(0.99996001,-0.00894285,-0.00894285,-0.99996001,-0.175757,193.30848)"
         id="text3934"><tspan
           style="fill:#000000;fill-opacity:1;fill-rule:nonzero;stroke:none;font-family:TeXGyrePagella;font-variant:normal;font-weight:normal;font-size:8.7999999;writing-mode:lr;-inkscape-font-specification:TeXGyrePagella"
           x="0"
           y="0"
           id="tspan3936">x</tspan></text>
<path
         d="m 269.5,193.254 1.816,3.113 1.817,3.11 1.789,-3.129 1.785,-3.125 -3.602,0.015 -3.605,0.016 z"
         style="fill:#000000;fill-opacity:1;fill-rule:nonzero;stroke:none"
         id="path3938" /><text
         transform="matrix(0.99996001,-0.00894285,-0.00894285,-0.99996001,264.62518,193.20825)"
         id="text3940"><tspan
           style="fill:#000000;fill-opacity:1;fill-rule:nonzero;stroke:none;font-family:TeXGyrePagella;font-variant:normal;font-weight:normal;font-size:8.7999999;writing-mode:lr;-inkscape-font-specification:TeXGyrePagella"
           x="0"
           y="0"
           id="tspan3942">x</tspan></text>
<path
         d="m 534.215,193.824 3.633,6.227 1.785,-3.129 1.789,-3.129 -3.602,0.016 -3.605,0.015 z"
         style="fill:#000000;fill-opacity:1;fill-rule:nonzero;stroke:none"
         id="path3944" /><text
         transform="matrix(0.99996001,-0.00894285,-0.00894285,-0.99996001,529.33948,193.77966)"
         id="text3946"><tspan
           style="fill:#000000;fill-opacity:1;fill-rule:nonzero;stroke:none;font-family:TeXGyrePagella;font-variant:normal;font-weight:normal;font-size:8.7999999;writing-mode:lr;-inkscape-font-specification:TeXGyrePagella"
           x="0"
           y="0"
           id="tspan3948">x</tspan></text>
<text
         transform="matrix(1,0,0,-1,10.582658,31.138818)"
         id="text3950"><tspan
           style="fill:#000000;fill-opacity:1;fill-rule:nonzero;stroke:none;font-family:TeXGyrePagella;font-variant:normal;font-weight:normal;font-size:7.2;writing-mode:lr;-inkscape-font-specification:TeXGyrePagella"
           x="0"
           y="0"
           id="tspan3952">0</tspan><tspan
           style="fill:#000000;fill-opacity:1;fill-rule:nonzero;stroke:none;font-family:TeXGyrePagella;font-variant:normal;font-weight:normal;font-size:7.2;writing-mode:lr;-inkscape-font-specification:TeXGyrePagella"
           x="265.8216"
           y="0.12265632"
           id="tspan3954">0</tspan><tspan
           style="fill:#000000;fill-opacity:1;fill-rule:nonzero;stroke:none;font-family:TeXGyrePagella;font-variant:normal;font-weight:normal;font-size:7.2;writing-mode:lr;-inkscape-font-specification:TeXGyrePagella"
           x="530.39301"
           y="-0.79159968"
           id="tspan3956">0</tspan></text>
</g></g></svg>