<?xml version="1.0" encoding="UTF-8" standalone="no"?>
<!-- Created with Inkscape (http://www.inkscape.org/) -->

<svg
   xmlns:osb="http://www.openswatchbook.org/uri/2009/osb"
   xmlns:dc="http://purl.org/dc/elements/1.1/"
   xmlns:cc="http://creativecommons.org/ns#"
   xmlns:rdf="http://www.w3.org/1999/02/22-rdf-syntax-ns#"
   xmlns:svg="http://www.w3.org/2000/svg"
   xmlns="http://www.w3.org/2000/svg"
   xmlns:xlink="http://www.w3.org/1999/xlink"
   xmlns:sodipodi="http://sodipodi.sourceforge.net/DTD/sodipodi-0.dtd"
   xmlns:inkscape="http://www.inkscape.org/namespaces/inkscape"
   width="1052.3622"
   height="744.09448"
   id="svg2"
   version="1.1"
   inkscape:version="0.48.3.1 r9886"
   sodipodi:docname="Aprenentatge-per-demostracio.pdf">
  <defs
     id="defs4">
    <pattern
       inkscape:collect="always"
       xlink:href="#Strips1_1"
       id="pattern5252"
       patternTransform="matrix(10,0,0,10,-77.96875,-455.34375)" />
    <pattern
       inkscape:stockid="Stripes 1:1"
       id="Strips1_1"
       patternTransform="translate(0,0) scale(10,10)"
       height="1"
       width="2"
       patternUnits="userSpaceOnUse"
       inkscape:collect="always">
      <rect
         id="rect4505"
         height="2"
         width="1"
         y="-0.5"
         x="0"
         style="fill:black;stroke:none" />
    </pattern>
    <linearGradient
       id="linearGradient5229"
       osb:paint="solid">
      <stop
         style="stop-color:#ff0000;stop-opacity:1;"
         offset="0"
         id="stop5231" />
    </linearGradient>
    <pattern
       patternUnits="userSpaceOnUse"
       width="311.1875"
       height="204.5"
       patternTransform="translate(77.96875,455.34375)"
       id="pattern5249">
      <rect
         y="0.3972168"
         x="0.41005707"
         height="203.69031"
         width="310.38522"
         id="rect2991"
         style="fill:url(#pattern5252);fill-opacity:1;fill-rule:nonzero;stroke:#000000;stroke-width:0.81476128;stroke-miterlimit:4;stroke-opacity:1;stroke-dasharray:none" />
    </pattern>
  </defs>
  <sodipodi:namedview
     id="base"
     pagecolor="#ffffff"
     bordercolor="#666666"
     borderopacity="1.0"
     inkscape:pageopacity="0.0"
     inkscape:pageshadow="2"
     inkscape:zoom="0.49497475"
     inkscape:cx="606.404"
     inkscape:cy="555.83205"
     inkscape:document-units="px"
     inkscape:current-layer="layer1"
     showgrid="false"
     inkscape:snap-grids="true"
     inkscape:window-width="1301"
     inkscape:window-height="744"
     inkscape:window-x="65"
     inkscape:window-y="24"
     inkscape:window-maximized="1"
     inkscape:snap-global="false"
     showguides="true"
     inkscape:guide-bbox="true">
    <inkscape:grid
       type="xygrid"
       id="grid5287"
       empspacing="5"
       visible="true"
       enabled="true"
       snapvisiblegridlinesonly="true" />
  </sodipodi:namedview>
  <metadata
     id="metadata7">
    <rdf:RDF>
      <cc:Work
         rdf:about="">
        <dc:format>image/svg+xml</dc:format>
        <dc:type
           rdf:resource="http://purl.org/dc/dcmitype/StillImage" />
        <dc:title></dc:title>
      </cc:Work>
    </rdf:RDF>
  </metadata>
  <g
     inkscape:label="Capa 1"
     inkscape:groupmode="layer"
     id="layer1"
     transform="translate(0,-308.2677)"
     style="display:inline">
    <path
       style="fill:none;stroke:#00ff00;stroke-width:1.78958821;stroke-linecap:butt;stroke-linejoin:miter;stroke-miterlimit:4;stroke-opacity:1;stroke-dasharray:none"
       d="m 332.0071,469.19182 c -2.306,2.30599 0.23175,-0.69529 -0.9833,2.94987 -0.14658,0.43975 -0.776,0.5687 -0.9833,0.98329 -0.14658,0.29317 0.14659,0.69013 0,0.98329 -0.20729,0.41459 -0.72616,0.59761 -0.98328,0.98329 -0.40654,0.60981 -0.57676,1.35677 -0.98329,1.96658 -0.25712,0.38568 -0.776,0.5687 -0.98329,0.98329 -0.14658,0.29317 0.23177,0.75152 0,0.98329 -0.23177,0.23177 -0.65553,0 -0.98329,0 -1.3492,0 -3.18342,0.51621 -3.93317,-0.98329 -0.0756,-0.15127 0.42861,-3.37848 -0.98328,-1.96658 -0.23177,0.23177 0.14657,0.69013 0,0.98329 -0.753,1.50599 -1.75224,0.76895 -2.94987,1.96658 -0.23177,0.23177 0.23176,0.75153 0,0.98329 -0.46353,0.46353 -1.38026,-0.29315 -1.96659,0 -0.41459,0.2073 -0.56869,0.776 -0.98328,0.98329 -0.0564,0.0282 -4.59185,0.1623 -4.91645,0 -0.4146,-0.20729 -0.65554,-0.65553 -0.9833,-0.98329 -0.32776,-0.32776 -0.77599,-0.5687 -0.98329,-0.98329 -0.11019,-0.22038 0,-3.6995 0,-3.93316 0,-0.32776 0.14658,-0.69013 0,-0.98329 -0.31981,-0.63962 -1.15279,-1.39018 -1.96658,-0.98329 -0.41458,0.20729 -0.65552,0.65552 -0.98329,0.98329 -0.65552,0.65553 -1.22493,1.41035 -1.96658,1.96658 -0.58632,0.43974 -1.44834,0.46506 -1.96658,0.98329 -0.51823,0.51824 -0.57674,1.35678 -0.98329,1.96658 -0.27785,0.41678 -2.54303,2.74646 -2.94987,2.94988 -0.29315,0.14657 -0.69013,0.14657 -0.98329,0 -0.41459,-0.2073 -0.776,-0.56871 -0.98329,-0.9833 -0.14948,-0.29895 0,-3.25418 0,-3.93316 0,-0.32776 0.23176,-0.75152 0,-0.98329 -0.23176,-0.23177 -0.75152,-0.23177 -0.98329,0 -0.23177,0.23177 0.14658,0.69013 0,0.98329 -0.2073,0.4146 -0.77599,0.5687 -0.98329,0.98329 -0.52442,1.04885 0.97341,1.31435 -0.98329,1.96658 -0.004,10e-4 -2.94919,-6.9e-4 -2.94987,0 -0.23176,0.23177 0.23176,0.75153 0,0.98329 -0.23176,0.23176 -0.75153,0.23176 -0.98329,0 -0.23176,-0.23176 0.14658,-0.69013 0,-0.98329 -0.2073,-0.41459 -0.776,-0.5687 -0.98329,-0.98329 -0.14658,-0.29316 0,-0.65552 0,-0.98329 0,-0.32776 0,-0.65552 0,-0.98329 0,-0.65553 0,-1.31105 0,-1.96658 0,-0.32776 0.32776,-0.98329 0,-0.98329 -0.65553,0 0.29316,1.38026 0,1.96658 -0.2073,0.41459 -0.776,0.5687 -0.98329,0.98329 -0.29382,0.58764 0.64729,1.96658 -0.98329,1.96658 -0.32776,0 0,-0.65552 0,-0.98329 0,-0.32776 0,-0.65552 0,-0.98329 0,-1.31105 0,-2.6221 0,-3.93316 0,-0.32777 0,0.65552 0,0.98329 0,0.32777 0,0.65553 0,0.98329 0,0.32777 0.18181,0.71057 0,0.98329 -0.51424,0.77136 -1.41034,1.22493 -1.96658,1.96658 -4.52717,6.03623 1.92423,-1.88189 -0.98329,3.93317 -0.41459,0.82917 -1.41035,1.22493 -1.96659,1.96657 -0.43973,0.58632 -0.57675,1.35677 -0.98328,1.96658 -1.21506,1.82259 -0.98329,0.0902 -0.98329,1.96658 0,0.32777 -0.32776,0.9833 0,0.9833 0.32776,0 0.14658,-0.69014 0,-0.9833 -0.2073,-0.41459 -0.77599,-0.5687 -0.98329,-0.98329 -0.14658,-0.29316 0,-0.65552 0,-0.98329 0,-0.65552 0,-1.31105 0,-1.96658 0,-1.31105 0,-2.6221 0,-3.93316 0,-0.65553 0.65553,-1.96658 0,-1.96658 -0.65553,0 0.2073,1.3447 0,1.96658 -0.14658,0.43975 -0.83671,0.54356 -0.98329,0.98329 -0.20729,0.62188 0.36362,1.42116 0,1.96658 -0.40655,0.60981 -1.44835,0.46506 -1.96658,0.98329 -1.18657,1.18656 -2.17396,3.36461 -2.94987,4.91646 -0.32777,0.65552 -0.54356,1.38025 -0.98329,1.96657 -0.55623,0.74165 -1.31105,1.31106 -1.96659,1.96659 -0.32776,0.32776 -0.77599,0.56869 -0.98329,0.98328 -0.14658,0.29317 0.23176,0.75154 0,0.9833 -0.23175,0.23176 -0.75152,0.23176 -0.98328,0 -0.23177,-0.23176 0.14657,-0.69013 0,-0.9833 -0.20731,-0.41459 -0.83671,-0.54354 -0.98329,-0.98328 -0.2073,-0.6219 0.20729,-1.34469 0,-1.96659 -0.14659,-0.43974 -0.776,-0.56869 -0.9833,-0.98328 -0.14658,-0.29317 0,-0.65553 0,-0.98329 0,-0.65553 0,-1.31106 0,-1.96659 0,-1.31105 0,-2.62211 0,-3.93316 0,-0.32776 0.32777,-0.98328 0,-0.98328 -0.32776,0 0,0.65552 0,0.98328 0,0.65553 0.2073,1.34469 0,1.96659 -0.14658,0.43974 -0.70517,0.61246 -0.98328,0.98328 -0.70907,0.94542 -1.25753,2.00446 -1.96659,2.94988 -0.79759,1.06346 -2.00878,2.00878 -2.94987,2.94986 -0.32776,0.32777 -0.51977,0.9833 -0.98328,0.9833 -0.32777,0 0,-0.65553 0,-0.9833 0,-0.32776 0,-0.65552 0,-0.98329 0,-2.29433 0,-4.58868 0,-6.88303 0,-0.32776 0,-0.65552 0,-0.98329 0,-0.32776 0.32775,-0.98328 0,-0.98328 -0.41157,0 0.25645,1.19721 0,1.96657 -0.23178,0.69529 -0.75154,1.27129 -0.9833,1.96658 -0.10364,0.31095 0,0.65553 0,0.98329 0,0.65553 0,1.31106 0,1.96659 0,0.65552 0.15899,1.33062 0,1.96657 -1.18707,4.74825 -0.46728,-0.0488 -1.96658,2.94987 -0.66153,1.32309 -0.83273,3.93317 -1.96658,3.93317 -0.32776,0 0.14658,-0.69013 0,-0.98329 -0.2073,-0.41459 -0.83671,-0.54355 -0.98329,-0.98329 -0.12019,-0.36057 0,-5.73104 0,-5.89974 0,-0.98329 0,-1.96659 0,-2.94988 0,-0.32776 0.32777,-0.98329 0,-0.98329 -0.32777,0 0,0.65553 0,0.98329 0,1.26756 0,2.75484 0,3.93316 0,3.6054 0,7.2108 0,10.8162 0,1.31106 0.25712,2.64756 0,3.93316 -0.14373,0.71867 -0.65552,1.31105 -0.98329,1.96657 -0.32776,0.32777 -0.8367,0.54356 -0.98328,0.9833 -0.2073,0.62188 0,1.31105 0,1.96658 0,0.32777 0,0.65553 0,0.98329 0,0.32776 -0.32777,0.98329 0,0.98329 0.32775,0 0,-0.65553 0,-0.98329 0,-0.32776 0,-0.65552 0,-0.98329 0,-4.58869 0,-9.17738 0,-13.76606 0,-0.23137 0.36632,-3.3162 -0.9833,-1.96658 -0.23176,0.23176 0.23176,0.75152 0,0.98329 -0.23176,0.23176 -0.75153,-0.23177 -0.9833,0 -0.063,0.063 -1.84446,3.75 -1.96657,3.93315 -0.51424,0.77136 -1.55199,1.13741 -1.96658,1.96659 -0.14658,0.29316 -0.32777,0.98329 0,0.98329 0.32776,0 0.32776,-0.98329 0,-0.98329 -0.32777,0 0,0.65552 0,0.98329 0,0.32777 0,0.65553 0,0.98329 0,0.80502 0.21236,4.27936 0,4.91645 -0.23176,0.69529 -0.80554,1.25557 -0.98329,1.96658 -0.15899,0.63596 0.20729,1.34469 0,1.96658 -0.14658,0.43974 -0.83672,0.54356 -0.98328,0.98329 -0.20731,0.62188 0.15897,1.33063 0,1.96658 -0.17776,0.71103 -0.75154,1.2713 -0.9833,1.96659 -0.20729,0.62188 0.46353,1.50305 0,1.96657 -0.23176,0.23177 -0.69013,-0.14658 -0.9833,0 -0.41459,0.2073 -0.65552,0.65553 -0.98328,0.98329 -0.32777,0.32776 -0.72617,0.59761 -0.98329,0.98329 -0.40654,0.60981 -0.57675,1.35677 -0.9833,1.96658 -0.25711,0.38568 -0.72616,0.59762 -0.98328,0.98329 -0.40654,0.60981 -0.65552,1.31105 -0.98329,1.96658 -0.32776,0.32777 -0.72618,0.59762 -0.98329,0.98329 -0.59882,0.89822 -0.83932,2.38624 -1.96659,2.94988 -0.29315,0.14658 -0.65552,0 -0.98328,0 -0.32777,0 -0.69013,0.14658 -0.98329,0 -0.41459,-0.2073 -0.5687,-0.77601 -0.9833,-0.98329 -0.29315,-0.14659 -0.83671,0.29315 -0.98328,0 -0.18443,-0.36888 0,-5.31433 0,-5.89975 0,-0.65552 0,-1.31106 0,-1.96658 0,-0.32776 0.32776,-0.98329 0,-0.98329 -0.32777,0 0.23176,0.75153 0,0.98329 -0.23177,0.23176 -0.69013,-0.14658 -0.9833,0 -0.41458,0.20729 -0.56869,0.776 -0.98329,0.9833 -0.29924,0.14962 -2.50703,0 -2.94986,0 -0.32777,0 -0.75154,0.23175 -0.98329,0 -0.23176,-0.23177 0,-0.65553 0,-0.9833 0,-0.65553 0,-1.31105 0,-1.96658 0,-0.32776 0.14658,0.69013 0,0.98329 -0.2073,0.4146 -0.776,0.5687 -0.9833,0.98329 -0.14658,0.29316 0.10365,0.67235 0,0.9833 -1.18823,3.56471 -0.46654,0.6998 -1.96658,2.94987 -0.40653,0.60981 -0.65552,1.31105 -0.98329,1.96657 -0.32776,0.65553 -0.75152,1.27129 -0.98328,1.96659 -0.10365,0.31094 -0.32777,0.98329 0,0.98329 0.32775,0 0,-0.65553 0,-0.98329 0,-0.78679 0,-2.35984 0,-2.94988 0,-0.98328 -0.43975,-2.07039 0,-2.94987 0.14657,-0.29315 0.75152,0.23177 0.98328,0 0.23177,-0.23176 0.23177,-0.75153 0,-0.98328 -0.71331,-0.71332 -2.64635,1.5113 -2.94987,1.96657 -0.59882,0.89822 -0.83932,2.38624 -1.96658,2.94987 -1.35631,0.67816 -0.87952,-1.19082 -1.96658,0.9833 -0.14658,0.29315 -0.32777,0.98329 0,0.98329 0.32776,0 0,-0.65554 0,-0.98329 0,-0.3237 0.53808,-4.47125 -0.98329,-2.94987 -0.46352,0.46351 0.46353,1.50305 0,1.96657 -0.83563,0.83563 -3.79126,-2.59529 -2.94987,1.96659 -0.18181,0.27271 0.23177,0.75153 0,0.98329 -0.23176,0.23175 -0.75153,0.23175 -0.98329,0 -0.23176,-0.23176 0,-0.65553 0,-0.98329 0,-2.29435 0,-4.58869 0,-6.88303 0,-0.32778 0.14657,0.69013 0,0.98328 -0.41459,0.82918 -1.67342,1.08711 -1.96659,1.96659 -0.20729,0.62188 0.20731,1.34468 0,1.96657 -0.14657,0.43974 -0.65552,0.65553 -0.98328,0.9833 -0.65552,0.65552 -1.41035,1.22493 -1.96657,1.96658 -0.71859,0.9581 -0.76358,2.34836 -1.9666,2.94987 -0.29315,0.14658 -0.69012,-0.14659 -0.98328,0 -0.4146,0.20729 -0.51976,0.98328 -0.98329,0.98328 -1.44681,0 -0.9833,-2.56587 -0.9833,-2.94987 0,-2.29434 0,-4.58868 0,-6.88303 0,-0.98329 -0.19283,-1.98567 0,-2.94987 0.14374,-0.71867 0.75154,-1.27129 0.9833,-1.96658 0.23176,-0.69529 -0.63787,-2.94987 0.98329,-2.94987 0.32776,0 0,0.65553 0,0.9833 0,0.65552 0.2073,1.34468 0,1.96657 -0.14658,0.43974 -0.776,0.5687 -0.98329,0.98329 -0.99153,1.98305 -0.67782,3.1981 -1.96658,4.91646 -0.55624,0.74164 -1.41035,1.22493 -1.96658,1.96657 -0.43974,0.58632 -0.54355,1.38026 -0.98329,1.96659 -0.55624,0.74164 -1.41035,1.22493 -1.96659,1.96657 -0.43973,0.58633 -0.46504,1.44835 -0.98328,1.96659 -0.0983,0.0983 -2.85155,0.0983 -2.94987,0 -0.23176,-0.23177 0.10365,-0.67235 0,-0.9833 -0.23176,-0.69528 -0.65553,-1.31105 -0.9833,-1.96657 0,-0.65553 0.15899,-1.33063 0,-1.96658 -0.17775,-0.71103 -0.80553,-1.25557 -0.98328,-1.96659 -0.15899,-0.63595 0,-1.31105 0,-1.96658 0,-0.98329 0,-1.96657 0,-2.94987 0,-1.31105 0,-2.6221 0,-3.93315 0,-0.32777 0.32775,-0.9833 0,-0.9833 -0.32777,0 0,0.65553 0,0.9833 0,1.63881 0,3.27762 0,4.91645 0,0.65552 0.15898,1.33061 0,1.96657 -0.35552,1.42204 -1.50306,2.54259 -1.96659,3.93317 -0.10364,0.31094 0.10365,0.67234 0,0.98329 -0.23176,0.69528 -0.80553,1.25556 -0.98328,1.96657 -0.159,0.63596 0.20729,1.34469 0,1.96659 -0.14659,0.43974 -0.776,0.56869 -0.9833,0.98328 -0.14658,0.29317 -0.32775,0.98329 0,0.98329 0.32777,0 0,-0.65552 0,-0.98329 0,-0.98328 0,-1.96658 0,-2.94987 0,-3.84116 -0.29315,-0.1038 0.9833,-3.93316 0.10364,-0.31094 0,-0.65552 0,-0.98329 0,-0.65553 0,-1.31105 0,-1.96658 0,-1.46354 -0.14659,-1.25506 0.98328,-2.94987 0.25712,-0.38568 0.776,-0.56869 0.98329,-0.98329 0.14659,-0.29316 0.32777,-0.98329 0,-0.98329 -0.32776,0 0,0.65553 0,0.98329 0,2.69949 0.29317,1.38027 -0.98329,3.93316 -0.65552,1.31105 -1.50305,2.54259 -1.96658,3.93317 -4.05804,12.17411 2.51913,-2.47233 -2.94987,9.8329 -0.59531,1.33947 -1.38917,2.58587 -1.96658,3.93315 -0.40829,0.95268 -0.51976,2.02282 -0.98329,2.94988 -1.057,2.11401 -2.71713,3.87302 -3.93316,5.89974 -0.10217,0.17029 -1.93134,3.89792 -1.96658,3.93316 -0.72341,0.72341 -1.77458,-0.79128 -1.96658,-0.98329 -0.32776,-0.32776 -0.65552,-0.65553 -0.98328,-0.98329 -0.32777,-0.32776 -0.77601,-0.5687 -0.9833,-0.98329 -0.14658,-0.29316 0.10365,-0.67235 0,-0.98329 -0.23176,-0.6953 -0.75152,-1.27129 -0.98329,-1.96658 -0.24582,-0.73746 0.49165,-2.45822 0,-2.94987 -0.32776,-0.32777 -0.77599,0.56869 -0.98329,0.98329 -0.14658,0.29316 0.10365,0.67235 0,0.98328 -0.23177,0.69529 -0.65552,1.31105 -0.98329,1.9666 0,0.65552 0.15899,1.33061 0,1.96657 -0.17775,0.71102 -0.83956,1.2479 -0.98329,1.96658 -0.19284,0.9642 0.16165,1.97996 0,2.94987 -0.1704,1.02238 -0.65553,1.96658 -0.98329,2.94987 -0.32776,0.9833 -0.51976,2.02281 -0.98329,2.94987 -0.52851,1.057 -1.35856,1.93651 -1.96658,2.94988 -0.37708,0.62845 -0.75152,1.27128 -0.98329,1.96657 -0.4069,1.22068 0.8072,1.07134 -0.98329,1.96658 -0.29316,0.14658 -0.75153,0.23177 -0.98329,0 -0.23176,-0.23176 0,-0.65553 0,-0.98328 0,-0.9833 0,-1.96659 0,-2.94987 0,-2.29435 0,-4.5887 0,-6.88304 0,-0.98328 -0.19285,-1.98568 0,-2.94988 0.14373,-0.71865 0.83956,-1.2479 0.98329,-1.96657 0.25711,-1.2856 0,-2.6221 0,-3.93315 0,-0.32778 -0.23177,-0.75154 0,-0.9833 0.23176,-0.23176 0.8367,-0.29316 0.98329,0 0.58632,1.17263 -0.31798,2.66125 0,3.93316 0.17775,0.71102 0.83956,1.24791 0.98329,1.96658 0.19283,0.9642 0,1.96658 0,2.94988 0,0.98328 0,1.96657 0,2.94987 0,1.31105 0.18541,2.63528 0,3.93315 -0.14658,1.02607 -0.8129,1.92749 -0.98329,2.94987 -0.16165,0.96992 0.16165,1.97996 0,2.94988 -0.3408,2.04474 -1.46382,3.88867 -1.96658,5.89974 -0.2198,0.8792 0.8021,3.93315 -0.98329,3.93315 -0.32776,0 0,-0.65552 0,-0.98328 0,-0.65552 0,-1.31106 0,-1.96658 0,-4.91646 0,-9.83291 0,-14.74936 0,-0.32777 0.10365,0.67235 0,0.98329 -0.46353,1.39059 -1.4222,2.5722 -1.96659,3.93316 -0.38493,0.96234 -0.59835,1.98753 -0.98329,2.94988 -0.27219,0.68048 -0.75152,1.27128 -0.98328,1.96657 -0.42735,1.28206 -0.55594,2.65111 -0.98329,3.93317 -0.45754,1.37262 -2.27669,4.01886 -2.94987,4.91645 -0.27812,0.37082 -0.83672,0.54355 -0.98329,0.98329 -0.17686,0.53056 0.67138,3.93316 -0.9833,3.93316 -0.32776,0 0,-0.65553 0,-0.98328 0,-0.32777 0,-0.65554 0,-0.9833 0,-1.31106 0,-2.62212 0,-3.93317 0,-2.94986 0,-5.89974 0,-8.8496 0,-0.65552 0,-1.31107 0,-1.96659 0,-0.32776 0.32776,-0.98328 0,-0.98328 -0.32776,0 0.14659,0.69013 0,0.98328 -0.20729,0.4146 -0.72616,0.59762 -0.98329,0.9833 -0.40653,0.60981 -0.65552,1.31105 -0.98328,1.96657 -1.31106,2.62211 -2.62211,5.24422 -3.93317,7.86632 -0.65553,1.31105 -1.31105,2.62211 -1.96658,3.93317 -0.32776,0.65553 -0.75152,1.27129 -0.98329,1.96658 -0.42735,1.28205 -0.55593,2.6511 -0.98328,3.93316 -0.23177,0.6953 -0.83956,1.24791 -0.98329,1.96658 -0.47359,2.36792 1.02733,5.85569 -0.9833,7.86632 -0.23176,0.23176 0,-0.65552 0,-0.98329 0,-1.31106 0.25712,-2.64756 0,-3.93316 -0.20326,-1.01635 -0.78002,-1.93352 -0.98329,-2.94987 -0.12856,-0.6428 0,-1.31106 0,-1.96658 0,-0.98329 0,-1.96659 0,-2.94987 0,-3.27764 0,-6.55527 0,-9.8329 0,-0.96925 0,0.99733 0,1.96658 0,3.79462 0.36362,0.25605 -1.96658,4.91645 -0.46352,0.92705 -0.65553,1.96658 -0.98329,2.94987 -0.32776,0.98328 -0.65552,1.96658 -0.98329,2.94987 -0.32776,0.98329 -0.65552,1.96658 -0.98329,2.94988 -0.32776,0.98328 -0.78001,1.93351 -0.98328,2.94985 -0.89984,4.49915 1.29919,-0.6318 -0.9833,3.93317 -0.15898,0.63596 0.29316,1.38026 0,1.96658 -0.14658,0.29316 -0.83671,0.29316 -0.98329,0 -0.29316,-0.58632 0,-1.31105 0,-1.96658 0,-0.65552 0,-1.31105 0,-1.96657 0,-4.26093 0,-8.52186 0,-12.78277 0,-0.65554 0,-1.31107 0,-1.9666 0,-0.32776 0.32776,-0.98328 0,-0.98328 -0.32776,0 0,0.65552 0,0.98328 0,0.65553 0,1.31106 0,1.9666 0,1.96657 0,3.93315 0,5.89973 0,0.98329 0.13905,1.97647 0,2.94987 -0.19112,1.33782 -0.81567,2.59219 -0.98329,3.93317 -0.16262,1.30092 0.21553,2.63994 0,3.93315 -0.12048,0.72293 -0.71111,1.28611 -0.98329,1.96658 -0.38494,0.96235 -0.81289,1.9275 -0.98329,2.94988 -0.22199,1.33194 0,5.25481 0,6.88303 0,0.32775 0,-0.65553 0,-0.9833 0,-0.65552 0,-1.31105 0,-1.96658 0,-1.96658 0,-3.93315 0,-5.89974 0,-3.93315 0,-7.86632 0,-11.79947 0,-1.63882 0,-3.27765 0,-4.91647 0,-0.32775 0.32776,-0.98328 0,-0.98328 -0.32776,0 0.14658,0.69013 0,0.98328 -1.67858,3.35717 -0.98329,-3.04104 -0.98329,3.93317 -0.17039,1.02238 -0.65552,1.96658 -0.98329,2.94987 -0.98329,2.94988 -1.96658,5.89975 -2.94988,8.84961 -0.70042,2.10129 -1.6579,4.72236 -1.96657,6.88303 -0.27812,1.94682 0.38567,3.97135 0,5.89974 -0.14374,0.71868 -0.80553,1.25557 -0.98329,1.96659 -0.15899,0.63595 0,1.31105 0,1.96657 0,0.32777 -0.32776,0.9833 0,0.9833 0.32776,0 0,-0.65553 0,-0.9833 0,-0.98328 0,-1.96657 0,-2.94986 0,-2.29435 0,-4.58869 0,-6.88304 0,-5.24421 0,-10.48842 0,-15.73264 0,-0.32777 0,0.65553 0,0.98328 0,0.65554 0,1.31106 0,1.9666 0,1.31105 0.25711,2.64756 0,3.93315 -0.20327,1.01635 -0.81289,1.9275 -0.98329,2.94987 -0.26942,1.61652 0.3214,3.30947 0,4.91645 -0.20327,1.01636 -0.65553,1.96659 -0.9833,2.94987 -0.32776,0.65553 -0.80553,1.25557 -0.98328,1.96659 -0.22285,0.8914 0,3.77419 0,4.91645 0,0.32776 -0.32777,0.98328 0,0.98328 0.32776,0 0,-0.65552 0,-0.98328 0,-0.98329 0,-1.96658 0,-2.94988 0,-4.50905 -0.20731,1.03649 0.98328,-4.91644 0.25713,-1.2856 -0.31797,-2.66126 0,-3.93317 0.17775,-0.71101 0.9833,-1.23368 0.9833,-1.96657 0,-0.46354 -0.776,0.56869 -0.9833,0.98329 -0.14656,0.29316 0,0.65552 0,0.98328 0,2.36948 0.41979,3.79514 -0.98328,5.89975 -1.67858,2.51786 -0.98329,-1.26065 -0.98329,3.93316 -0.32777,0.65552 -1.63882,0.32776 -1.96658,0.98329 -0.60118,1.20234 0.97287,4.92165 -0.98329,5.89973 -0.41459,0.2073 -0.65553,-0.65552 -0.9833,-0.98329 -0.32775,-0.32776 -0.77599,-0.56869 -0.98329,-0.98328 -0.14071,-0.28142 0,-4.39116 0,-4.91645 0,-0.32777 0,-0.65554 0,-0.9833 0,-0.32776 0.32776,-0.98329 0,-0.98329 -0.32776,0 0.14659,0.69013 0,0.98329 -0.41458,0.82918 -1.55198,1.13741 -1.96657,1.96659 -0.46353,0.92706 -0.45003,2.0611 -0.98329,2.94987 -0.47697,0.79494 -1.31105,1.31105 -1.96658,1.96657 -0.32777,0.32777 -0.59762,0.72618 -0.98329,0.98329 -0.60982,0.40655 -1.44834,0.46506 -1.96659,0.9833 -0.51823,0.51823 -0.75153,1.27129 -0.98329,1.96658 -0.10364,0.31094 0.23176,0.75152 0,0.98329 -0.23176,0.23177 -0.75152,0.23177 -0.98329,0 -0.46352,-0.46353 0.2073,-1.3447 0,-1.96658 -0.23176,-0.6953 -0.80553,-1.25556 -0.98328,-1.96659 -0.159,-0.63595 0,-1.31105 0,-1.96657 0,-0.65553 0,-1.31105 0,-1.96659 0,-0.32775 0,-0.65552 0,-0.98328 0,-0.32777 0.32775,-0.98329 0,-0.98329 -0.32777,0 0.14658,0.69012 0,0.98329 -0.52851,1.05699 -2.31449,1.27154 -1.96658,2.94987 -0.5666,1.41646 -0.9783,3.59874 -1.96659,4.91645 -0.55623,0.74164 -1.41035,1.22493 -1.96658,1.96658 -0.43974,0.58632 -0.65552,1.31105 -0.98329,1.96657 -0.32776,0.65554 -0.75153,1.2713 -0.98328,1.96659 -0.4069,1.22068 0.80719,1.07134 -0.9833,1.96658 -0.29315,0.14658 -0.65553,0 -0.9833,0 -0.32775,0 -0.75152,0.23176 -0.98328,0 -0.13863,-0.13863 0.10339,-4.3995 0,-4.91645 -0.40655,-2.03271 -1.46382,-3.88867 -1.96658,-5.89975 -0.23848,-0.95392 0.23848,-1.99593 0,-2.94986 -0.17776,-0.71102 -0.80553,-1.25557 -0.98329,-1.96658 -0.15899,-0.63596 0,-1.31106 0,-1.96658 0,-0.32777 0.32776,-0.9833 0,-0.9833 -0.32777,0 0,0.65553 0,0.9833 0,0.65552 0,1.31106 0,1.96658 0,2.72677 0.14658,-1.56961 -0.98329,2.94987 -0.15899,0.63595 0.15899,1.33062 0,1.96657 -0.17775,0.71103 -0.75153,1.27129 -0.98328,1.96659 -0.10366,0.31094 0.10363,0.67234 0,0.98329 -0.46354,1.39058 -1.50306,2.54257 -1.9666,3.93315 -0.10364,0.31095 0,0.65554 0,0.9833 0,0.32777 -0.32775,0.98329 0,0.98329 0.32777,0 0,-0.65552 0,-0.98329 0,-0.65556 0,-1.31102 0,-1.96658 0,-3.93316 0,-7.86632 0,-11.79948 0,-0.32777 0,0.65552 0,0.98329 0,3.16516 0.23178,-1.67859 -0.98328,1.96658 -0.20729,0.62189 0,1.31105 0,1.96657 0,0.65553 0,1.31105 0,1.96659 0,0.98329 0,1.96658 0,2.94987 0,5.24421 0,10.48842 0,15.73264 0,0.88142 0.65506,3.93316 -0.98329,3.93316 -0.32776,0 0,-0.65552 0,-0.98328 0,-1.31107 0,-2.62212 0,-3.93317 0,-4.50905 0.20729,1.03648 -0.9833,-4.91645 -0.32138,-1.60699 0.3214,-3.30946 0,-4.91645 -0.14372,-0.71867 -0.65552,-1.31105 -0.98328,-1.96659 -0.32777,-0.65552 -0.46505,-1.44834 -0.98329,-1.96657 -0.23176,-0.23177 0.14658,0.69012 0,0.98329 -0.2073,0.41459 -0.776,0.5687 -0.98329,0.98328 -0.14658,0.29317 0.14657,0.69014 0,0.9833 -0.41459,0.82918 -1.55199,1.1374 -1.96659,1.96658 -0.29315,0.58632 0.29317,1.38026 0,1.96658 -0.20729,0.41459 -0.72617,0.59761 -0.98328,0.98329 -0.40655,0.6098 -0.57676,1.35676 -0.98329,1.96659 -0.25713,0.38567 -0.87087,0.53359 -0.9833,0.98328 -0.23847,0.95393 0.23849,1.99594 0,2.94987 -0.22484,0.89938 -1.55199,1.1374 -1.96658,1.96658 -0.14657,0.29316 -0.32776,0.9833 0,0.9833 0.32777,0 0,-0.65554 0,-0.9833 0,-0.32776 0,-0.65553 0,-0.98329 0,-1.96658 0,-3.93316 0,-5.89974 0,-0.32777 0.14659,0.69013 0,0.9833 -0.20729,0.41458 -0.775994,0.56869 -0.983285,0.98328 -0.146578,0.29316 0.146578,0.69013 0,0.98329 -0.130541,0.26108 -2.688798,2.81934 -2.949869,2.94987 -0.293156,0.14659 -0.751529,0.23177 -0.983288,0 -0.304478,-0.30447 0.304471,-4.61198 0,-4.91644 -0.231765,-0.23177 -0.751531,-0.23177 -0.983289,0 -0.231765,0.23175 0.231758,0.75152 0,0.98328 -0.518244,0.51824 -1.448342,0.46505 -1.966586,0.98329 -0.231758,0.23177 0.231766,0.75153 0,0.98329 -0.231758,0.23177 -0.751524,-0.23176 -0.983289,0 -0.231766,0.23177 -0.327763,0.98329 0,0.98329 0.327763,0 0,-0.65552 0,-0.98329 0,-0.65553 0,-1.31105 0,-1.96658 0,-0.32776 0.231765,-0.75153 0,-0.98328 -0.231766,-0.23177 -0.751524,-0.23177 -0.98329,0 -0.518241,0.51823 -0.576752,1.35677 -0.983292,1.96657 -0.257119,0.38568 -0.726171,0.59761 -0.98329,0.98329 -0.40654,0.60982 -0.465051,1.44834 -0.983291,1.96658 -0.231763,0.23177 0,-0.65552 0,-0.98329 0,-0.65552 0,-1.31105 0,-1.96658 0,-1.63881 0,-3.27764 0,-4.91645 0,-0.65552 0.463528,-1.50306 0,-1.96658 -0.327763,-0.32776 -0.775994,0.5687 -0.98329,0.98329 -0.14658,0.29317 0.14658,0.69013 0,0.98329 -0.207296,0.41459 -0.726172,0.59761 -0.98329,0.98329 -1.210203,1.8153 -1.739668,4.08444 -2.949871,5.89974 -0.257119,0.38568 -0.83671,0.54355 -0.98329,0.98329 -0.128,0.384 0.554038,2.94988 -0.98329,2.94988 -0.463527,0 -0.775994,-0.56871 -0.983291,-0.98329 -0.181466,-0.36294 0,-5.04323 0,-5.89975 0,-0.32776 0,-0.65552 0,-0.98328 0,-0.32778 0.327764,-0.9833 0,-0.9833 -0.327763,0 0.14658,0.69013 0,0.9833 -0.207295,0.41458 -0.568698,0.77599 -0.98329,0.98328 -1.74064,0.87033 -0.335998,-1.46258 -1.966581,0.98329 -0.40654,0.60981 -0.46505,1.44834 -0.983289,1.96658"
       id="path2987"
       inkscape:connector-curvature="0"
       sodipodi:nodetypes="ccssssssssssssscsssssssssssssscssssccssssssssssssssscsssssssssssssscsssssscsssssssssssssssssssscsssssssssssssscsssssssccssssssssssssccssscscsssscssssssssssssscsssssssccssssssscccssssssscssssssssssssssscscsssssssssccsssssssssssssssssssscsccsssscsssssssscsssssscssssssssssssscsssssssssssssssssssssssscsssssssssccsssssssssssssssssssssscsssssssssssssssscsssssssscsscssssssssssssssssssssssscssscssscssssssssscccssssssssssssssssssccsssscsscsssssssscsccccsssscsssssssssssssssssssssc" />
    <rect
       y="675.10522"
       x="368.2301"
       height="17.318476"
       width="314.98645"
       id="rect5284-2"
       style="fill:none;stroke:#7e7e7e;stroke-width:0.55429274;stroke-linecap:round;stroke-linejoin:round;stroke-miterlimit:4;stroke-opacity:1;stroke-dasharray:none" />
    <rect
       y="657.73291"
       x="367.89203"
       height="17.318476"
       width="314.98645"
       id="rect5284-8-50"
       style="fill:none;stroke:#7e7e7e;stroke-width:0.55429274;stroke-linecap:round;stroke-linejoin:round;stroke-miterlimit:4;stroke-opacity:1;stroke-dasharray:none" />
    <rect
       y="640.36658"
       x="367.98962"
       height="17.318476"
       width="314.98645"
       id="rect5284-80-6"
       style="fill:none;stroke:#7e7e7e;stroke-width:0.55429274;stroke-linecap:round;stroke-linejoin:round;stroke-miterlimit:4;stroke-opacity:1;stroke-dasharray:none" />
    <rect
       y="622.99432"
       x="367.65155"
       height="17.318476"
       width="314.98645"
       id="rect5284-8-6-6"
       style="fill:none;stroke:#7e7e7e;stroke-width:0.55429274;stroke-linecap:round;stroke-linejoin:round;stroke-miterlimit:4;stroke-opacity:1;stroke-dasharray:none" />
    <rect
       y="605.65741"
       x="368.74915"
       height="17.318476"
       width="314.98645"
       id="rect5284-8-69-9"
       style="fill:none;stroke:#7e7e7e;stroke-width:0.55429274;stroke-linecap:round;stroke-linejoin:round;stroke-miterlimit:4;stroke-opacity:1;stroke-dasharray:none" />
    <rect
       y="588.29114"
       x="368.84674"
       height="17.318476"
       width="314.98645"
       id="rect5284-80-4-9"
       style="fill:none;stroke:#7e7e7e;stroke-width:0.55429274;stroke-linecap:round;stroke-linejoin:round;stroke-miterlimit:4;stroke-opacity:1;stroke-dasharray:none" />
    <rect
       y="570.91888"
       x="368.50867"
       height="17.318476"
       width="314.98645"
       id="rect5284-8-6-5-8"
       style="fill:none;stroke:#7e7e7e;stroke-width:0.55429274;stroke-linecap:round;stroke-linejoin:round;stroke-miterlimit:4;stroke-opacity:1;stroke-dasharray:none" />
    <rect
       y="553.58051"
       x="368.78485"
       height="17.318476"
       width="314.98645"
       id="rect5284-8-9-8"
       style="fill:none;stroke:#7e7e7e;stroke-width:0.55429274;stroke-linecap:round;stroke-linejoin:round;stroke-miterlimit:4;stroke-opacity:1;stroke-dasharray:none" />
    <rect
       y="536.21417"
       x="368.88251"
       height="17.318476"
       width="314.98645"
       id="rect5284-80-1-2"
       style="fill:none;stroke:#7e7e7e;stroke-width:0.55429274;stroke-linecap:round;stroke-linejoin:round;stroke-miterlimit:4;stroke-opacity:1;stroke-dasharray:none" />
    <rect
       y="518.84186"
       x="368.54437"
       height="17.318476"
       width="314.98645"
       id="rect5284-8-6-2-0"
       style="fill:none;stroke:#7e7e7e;stroke-width:0.55429274;stroke-linecap:round;stroke-linejoin:round;stroke-miterlimit:4;stroke-opacity:1;stroke-dasharray:none" />
    <rect
       y="501.505"
       x="369.64203"
       height="17.318476"
       width="314.98645"
       id="rect5284-8-69-0-0"
       style="fill:none;stroke:#7e7e7e;stroke-width:0.55429274;stroke-linecap:round;stroke-linejoin:round;stroke-miterlimit:4;stroke-opacity:1;stroke-dasharray:none" />
    <rect
       y="484.13873"
       x="369.73962"
       height="17.318476"
       width="314.98645"
       id="rect5284-80-4-6-4"
       style="fill:none;stroke:#7e7e7e;stroke-width:0.55429274;stroke-linecap:round;stroke-linejoin:round;stroke-miterlimit:4;stroke-opacity:1;stroke-dasharray:none" />
    <rect
       y="466.76645"
       x="369.40155"
       height="17.318476"
       width="314.98645"
       id="rect5284-8-6-5-5-7"
       style="fill:none;stroke:#7e7e7e;stroke-width:0.55429274;stroke-linecap:round;stroke-linejoin:round;stroke-miterlimit:4;stroke-opacity:1;stroke-dasharray:none" />
    <rect
       y="449.31323"
       x="367.53485"
       height="17.318476"
       width="314.98645"
       id="rect5284-8-5-8"
       style="fill:none;stroke:#7e7e7e;stroke-width:0.55429274;stroke-linecap:round;stroke-linejoin:round;stroke-miterlimit:4;stroke-opacity:1;stroke-dasharray:none" />
    <rect
       style="fill:none;stroke:#000000;stroke-width:3.65833187;stroke-miterlimit:4;stroke-opacity:1;stroke-dasharray:none;display:inline"
       width="315.46616"
       height="247.91399"
       x="367.9812"
       y="444.05441"
       id="rect5254-8" />
    <rect
       y="674.0802"
       x="699.08728"
       height="17.318476"
       width="314.98645"
       id="rect5284-20"
       style="fill:none;stroke:#7e7e7e;stroke-width:0.55429274;stroke-linecap:round;stroke-linejoin:round;stroke-miterlimit:4;stroke-opacity:1;stroke-dasharray:none" />
    <rect
       y="656.70789"
       x="698.74915"
       height="17.318476"
       width="314.98645"
       id="rect5284-8-94"
       style="fill:none;stroke:#7e7e7e;stroke-width:0.55429274;stroke-linecap:round;stroke-linejoin:round;stroke-miterlimit:4;stroke-opacity:1;stroke-dasharray:none" />
    <rect
       y="639.34155"
       x="698.8468"
       height="17.318476"
       width="314.98645"
       id="rect5284-80-9"
       style="fill:none;stroke:#7e7e7e;stroke-width:0.55429274;stroke-linecap:round;stroke-linejoin:round;stroke-miterlimit:4;stroke-opacity:1;stroke-dasharray:none" />
    <rect
       y="621.9693"
       x="698.50867"
       height="17.318476"
       width="314.98645"
       id="rect5284-8-6-7"
       style="fill:none;stroke:#7e7e7e;stroke-width:0.55429274;stroke-linecap:round;stroke-linejoin:round;stroke-miterlimit:4;stroke-opacity:1;stroke-dasharray:none" />
    <rect
       y="604.63239"
       x="699.60632"
       height="17.318476"
       width="314.98645"
       id="rect5284-8-69-2"
       style="fill:none;stroke:#7e7e7e;stroke-width:0.55429274;stroke-linecap:round;stroke-linejoin:round;stroke-miterlimit:4;stroke-opacity:1;stroke-dasharray:none" />
    <rect
       y="587.26611"
       x="699.70392"
       height="17.318476"
       width="314.98645"
       id="rect5284-80-4-1"
       style="fill:none;stroke:#7e7e7e;stroke-width:0.55429274;stroke-linecap:round;stroke-linejoin:round;stroke-miterlimit:4;stroke-opacity:1;stroke-dasharray:none" />
    <rect
       y="569.89392"
       x="699.36584"
       height="17.318476"
       width="314.98645"
       id="rect5284-8-6-5-9"
       style="fill:none;stroke:#7e7e7e;stroke-width:0.55429274;stroke-linecap:round;stroke-linejoin:round;stroke-miterlimit:4;stroke-opacity:1;stroke-dasharray:none" />
    <rect
       y="552.55554"
       x="699.64203"
       height="17.318476"
       width="314.98645"
       id="rect5284-8-9-4"
       style="fill:none;stroke:#7e7e7e;stroke-width:0.55429274;stroke-linecap:round;stroke-linejoin:round;stroke-miterlimit:4;stroke-opacity:1;stroke-dasharray:none" />
    <rect
       y="535.18915"
       x="699.73962"
       height="17.318476"
       width="314.98645"
       id="rect5284-80-1-7"
       style="fill:none;stroke:#7e7e7e;stroke-width:0.55429274;stroke-linecap:round;stroke-linejoin:round;stroke-miterlimit:4;stroke-opacity:1;stroke-dasharray:none" />
    <rect
       y="517.81683"
       x="699.40155"
       height="17.318476"
       width="314.98645"
       id="rect5284-8-6-2-6"
       style="fill:none;stroke:#7e7e7e;stroke-width:0.55429274;stroke-linecap:round;stroke-linejoin:round;stroke-miterlimit:4;stroke-opacity:1;stroke-dasharray:none" />
    <rect
       y="500.47998"
       x="700.49921"
       height="17.318476"
       width="314.98645"
       id="rect5284-8-69-0-2"
       style="fill:none;stroke:#7e7e7e;stroke-width:0.55429274;stroke-linecap:round;stroke-linejoin:round;stroke-miterlimit:4;stroke-opacity:1;stroke-dasharray:none" />
    <rect
       y="483.11371"
       x="700.5968"
       height="17.318476"
       width="314.98645"
       id="rect5284-80-4-6-6"
       style="fill:none;stroke:#7e7e7e;stroke-width:0.55429274;stroke-linecap:round;stroke-linejoin:round;stroke-miterlimit:4;stroke-opacity:1;stroke-dasharray:none" />
    <rect
       y="465.74142"
       x="700.25867"
       height="17.318476"
       width="314.98645"
       id="rect5284-8-6-5-5-76"
       style="fill:none;stroke:#7e7e7e;stroke-width:0.55429274;stroke-linecap:round;stroke-linejoin:round;stroke-miterlimit:4;stroke-opacity:1;stroke-dasharray:none" />
    <rect
       y="448.28821"
       x="698.39203"
       height="17.318476"
       width="314.98645"
       id="rect5284-8-5-0"
       style="fill:none;stroke:#7e7e7e;stroke-width:0.55429274;stroke-linecap:round;stroke-linejoin:round;stroke-miterlimit:4;stroke-opacity:1;stroke-dasharray:none" />
    <rect
       style="fill:none;stroke:#000000;stroke-width:3.65833187;stroke-miterlimit:4;stroke-opacity:1;stroke-dasharray:none;display:inline"
       width="315.46616"
       height="247.91399"
       x="698.83838"
       y="443.02939"
       id="rect5254-5" />
    <path
       style="fill:none;stroke:#ff0000;stroke-width:2.15735435;stroke-linecap:round;stroke-linejoin:round;stroke-miterlimit:4;stroke-opacity:1;stroke-dasharray:none;display:inline"
       d="M 699.85633,640.36142 C 810.10142,627.2523 821.28502,516.8659 862.95963,522.32108 c 69.7626,-13.41118 31.08116,-50.36899 131.46976,-52.95814"
       id="path3765"
       inkscape:connector-curvature="0"
       sodipodi:nodetypes="ccc" />
    <path
       style="fill:none;stroke:#ffff00;stroke-width:1.73195577;stroke-linecap:butt;stroke-linejoin:miter;stroke-miterlimit:4;stroke-opacity:1;stroke-dasharray:none"
       d="M 368.58741,633.06049 C 495.78689,633.63725 530.52116,470.02697 659.26973,469.52102"
       id="path5565"
       inkscape:connector-curvature="0"
       sodipodi:nodetypes="cc" />
    <path
       style="fill:none;stroke:#0000ff;stroke-width:2;stroke-linecap:butt;stroke-linejoin:round;stroke-miterlimit:4;stroke-opacity:1;stroke-dasharray:none"
       d="m 515.57143,640.07647 c 8.48852,26.75368 16.19557,57.97851 35.71428,0"
       id="path5567"
       inkscape:connector-curvature="0"
       sodipodi:nodetypes="cc" />
    <path
       style="fill:none;stroke:#0000ff;stroke-width:2;stroke-linecap:butt;stroke-linejoin:round;stroke-miterlimit:4;stroke-opacity:1;stroke-dasharray:none"
       d="m 569.14286,639.36218 c 10.2615,-7.71446 18.91927,-21.34431 36.42857,0"
       id="path5569"
       inkscape:connector-curvature="0"
       sodipodi:nodetypes="cc" />
    <path
       style="fill:none;stroke:#0000ff;stroke-width:2;stroke-linecap:butt;stroke-linejoin:round;stroke-miterlimit:4;stroke-opacity:1;stroke-dasharray:none;display:inline"
       d="m 543.07143,638.99873 c 9.21341,9.2846 16.30414,26.9084 36.42857,0"
       id="path5569-8"
       inkscape:connector-curvature="0"
       sodipodi:nodetypes="cc" />
    <path
       style="fill:none;stroke:#0000ff;stroke-width:2;stroke-linecap:butt;stroke-linejoin:round;stroke-miterlimit:4;stroke-opacity:1;stroke-dasharray:none;display:inline"
       d="m 591.64286,638.6405 c 8.85985,6.39362 14.89077,14.0147 36.42857,0"
       id="path5569-8-5"
       inkscape:connector-curvature="0"
       sodipodi:nodetypes="cc" />
    <path
       style="fill:none;stroke:#0000ff;stroke-width:2;stroke-linecap:butt;stroke-linejoin:round;stroke-miterlimit:4;stroke-opacity:1;stroke-dasharray:none;display:inline"
       d="m 617.35714,638.64049 c 9.57055,5.59209 17.71537,4.74914 36.42857,0"
       id="path5569-8-5-9"
       inkscape:connector-curvature="0"
       sodipodi:nodetypes="cc" />
    <path
       style="fill:none;stroke:#0000ff;stroke-width:2;stroke-linecap:butt;stroke-linejoin:round;stroke-miterlimit:4;stroke-opacity:1;stroke-dasharray:none;display:inline"
       d="m 368.92857,639.70826 c 8.85985,7.51682 14.89077,19.84153 36.42857,0"
       id="path5569-8-5-4"
       inkscape:connector-curvature="0"
       sodipodi:nodetypes="cc" />
    <path
       style="fill:none;stroke:#0000ff;stroke-width:2;stroke-linecap:butt;stroke-linejoin:round;stroke-miterlimit:4;stroke-opacity:1;stroke-dasharray:none;display:inline"
       d="m 396.88554,640.52238 c 8.81129,10.87765 14.80916,28.71285 36.22891,0"
       id="path5569-8-5-4-1"
       inkscape:connector-curvature="0"
       sodipodi:nodetypes="cc" />
    <path
       style="fill:none;stroke:#0000ff;stroke-width:2;stroke-linecap:butt;stroke-linejoin:round;stroke-miterlimit:4;stroke-opacity:1;stroke-dasharray:none;display:inline"
       d="m 487.71429,639.39604 c 11.80368,-34.24528 22.23046,-53.06354 35.71428,0"
       id="path5567-5"
       inkscape:connector-curvature="0"
       sodipodi:nodetypes="cc" />
    <path
       style="fill:none;stroke:#0000ff;stroke-width:2;stroke-linecap:butt;stroke-linejoin:round;stroke-miterlimit:4;stroke-opacity:1;stroke-dasharray:none;display:inline"
       d="m 459.50189,639.78147 c 9.21246,-9.35568 16.30246,-27.11441 36.42481,0"
       id="path5569-8-8"
       inkscape:connector-curvature="0"
       sodipodi:nodetypes="cc" />
    <path
       style="fill:none;stroke:#0000ff;stroke-width:2;stroke-linecap:butt;stroke-linejoin:round;stroke-miterlimit:4;stroke-opacity:1;stroke-dasharray:none;display:inline"
       d="m 429.61044,638.96155 c 8.87562,6.56203 14.91728,17.32127 36.49341,0"
       id="path5569-8-5-4-1-2"
       inkscape:connector-curvature="0"
       sodipodi:nodetypes="cc" />
    <rect
       style="fill:#ffffff;fill-opacity:1;fill-rule:nonzero;stroke:#000000;stroke-width:0.35918146;stroke-linecap:round;stroke-linejoin:round;stroke-miterlimit:4;stroke-opacity:1;stroke-dasharray:none;display:inline"
       id="rect5728-1"
       width="137.77664"
       height="76.167847"
       x="379.3974"
       y="452.83862" />
    <path
       style="fill:none;stroke:#ffff00;stroke-width:1px;stroke-linecap:butt;stroke-linejoin:miter;stroke-opacity:1;display:inline"
       d="m 382.87834,469.45156 26.76904,0"
       id="path5718-1"
       inkscape:connector-curvature="0" />
    <text
       xml:space="preserve"
       style="font-size:40px;font-style:normal;font-variant:normal;font-weight:normal;font-stretch:normal;line-height:125%;letter-spacing:0px;word-spacing:0px;fill:#000000;fill-opacity:1;stroke:none;display:inline;font-family:TeXGyrePagella;-inkscape-font-specification:TeXGyrePagella"
       x="417.22354"
       y="466.42108"
       id="text5720-6"
       sodipodi:linespacing="125%"><tspan
         sodipodi:role="line"
         x="417.22354"
         y="466.42108"
         id="tspan5724-6"
         style="font-size:13px;fill:#000000;fill-opacity:1">Sistema dinàmic</tspan><tspan
         sodipodi:role="line"
         x="417.22354"
         y="482.67108"
         style="font-size:13px;fill:#000000;fill-opacity:1"
         id="tspan5791">K(g-x) - Dv</tspan></text>
    <path
       style="fill:none;stroke:#0000ff;stroke-width:1px;stroke-linecap:butt;stroke-linejoin:miter;stroke-opacity:1;display:inline"
       d="m 382.64454,503.12283 26.76904,0"
       id="path5718-1-9"
       inkscape:connector-curvature="0" />
    <text
       xml:space="preserve"
       style="font-size:40px;font-style:normal;font-variant:normal;font-weight:normal;font-stretch:normal;line-height:125%;letter-spacing:0px;word-spacing:0px;fill:#000000;fill-opacity:1;stroke:none;display:inline;font-family:TeXGyrePagella;-inkscape-font-specification:TeXGyrePagella"
       x="416.98972"
       y="500.09235"
       id="text5720-6-3"
       sodipodi:linespacing="125%"><tspan
         sodipodi:role="line"
         x="416.98972"
         y="500.09235"
         id="tspan5724-6-0"
         style="font-size:13px;fill:#000000;fill-opacity:1">Gaussianes </tspan><tspan
         sodipodi:role="line"
         x="416.98972"
         y="516.34235"
         style="font-size:13px;fill:#000000;fill-opacity:1"
         id="tspan5825">(g-x<tspan
   style="font-size:65.00091553%;baseline-shift:sub"
   id="tspan5831">0</tspan>)f(s)</tspan></text>
    <rect
       style="fill:#ffffff;fill-opacity:1;fill-rule:nonzero;stroke:#000000;stroke-width:0.25;stroke-linecap:round;stroke-linejoin:round;stroke-miterlimit:4;stroke-opacity:1;stroke-dasharray:none;display:inline"
       id="rect5728-13"
       width="137.88582"
       height="36.870567"
       x="712.22736"
       y="456.6044" />
    <path
       style="fill:none;stroke:#ff0000;stroke-width:1px;stroke-linecap:butt;stroke-linejoin:miter;stroke-opacity:1;display:inline"
       d="m 715.76287,473.27193 26.76905,0"
       id="path5718-9"
       inkscape:connector-curvature="0" />
    <text
       xml:space="preserve"
       style="font-size:40px;font-style:normal;font-variant:normal;font-weight:normal;font-stretch:normal;line-height:125%;letter-spacing:0px;word-spacing:0px;fill:#000000;fill-opacity:1;stroke:none;display:inline;font-family:TeXGyrePagella;-inkscape-font-specification:TeXGyrePagella"
       x="750.10803"
       y="470.24146"
       id="text5720-7"
       sodipodi:linespacing="125%"><tspan
         sodipodi:role="line"
         id="tspan5722-2"
         x="750.10803"
         y="470.24146"
         style="font-size:13px;fill:#000000;fill-opacity:1">Trajectòria </tspan><tspan
         sodipodi:role="line"
         x="750.10803"
         y="486.49146"
         id="tspan5724-1"
         style="font-size:13px;fill:#000000;fill-opacity:1">apresa</tspan></text>
    <path
       style="fill:none;stroke:#000000;stroke-width:3.5999999;stroke-linecap:butt;stroke-linejoin:miter;stroke-miterlimit:4;stroke-opacity:1;stroke-dasharray:none"
       d="m 530.8216,562.43205 0.0271,41.42855"
       id="path5833"
       inkscape:connector-curvature="0" />
    <path
       style="fill:none;stroke:#000000;stroke-width:3.5999999;stroke-linecap:butt;stroke-linejoin:miter;stroke-miterlimit:4;stroke-opacity:1;stroke-dasharray:none"
       d="m 511.88799,582.88946 37.38928,0.009"
       id="path5835"
       inkscape:connector-curvature="0" />
    <rect
       y="657.4837"
       x="37.226086"
       height="17.318476"
       width="314.98645"
       id="rect5284-8-50-6"
       style="fill:none;stroke:#7e7e7e;stroke-width:0.55429274;stroke-linecap:round;stroke-linejoin:round;stroke-miterlimit:4;stroke-opacity:1;stroke-dasharray:none;display:inline" />
    <rect
       y="640.11737"
       x="37.323681"
       height="17.318476"
       width="314.98645"
       id="rect5284-80-6-8"
       style="fill:none;stroke:#7e7e7e;stroke-width:0.55429274;stroke-linecap:round;stroke-linejoin:round;stroke-miterlimit:4;stroke-opacity:1;stroke-dasharray:none;display:inline" />
    <rect
       y="622.74512"
       x="36.985607"
       height="17.318476"
       width="314.98645"
       id="rect5284-8-6-6-4"
       style="fill:none;stroke:#7e7e7e;stroke-width:0.55429274;stroke-linecap:round;stroke-linejoin:round;stroke-miterlimit:4;stroke-opacity:1;stroke-dasharray:none;display:inline" />
    <rect
       y="605.4082"
       x="38.083202"
       height="17.318476"
       width="314.98645"
       id="rect5284-8-69-9-5"
       style="fill:none;stroke:#7e7e7e;stroke-width:0.55429274;stroke-linecap:round;stroke-linejoin:round;stroke-miterlimit:4;stroke-opacity:1;stroke-dasharray:none;display:inline" />
    <rect
       y="588.04193"
       x="38.180798"
       height="17.318476"
       width="314.98645"
       id="rect5284-80-4-9-4"
       style="fill:none;stroke:#7e7e7e;stroke-width:0.55429274;stroke-linecap:round;stroke-linejoin:round;stroke-miterlimit:4;stroke-opacity:1;stroke-dasharray:none;display:inline" />
    <rect
       y="570.66968"
       x="37.842724"
       height="17.318476"
       width="314.98645"
       id="rect5284-8-6-5-8-2"
       style="fill:none;stroke:#7e7e7e;stroke-width:0.55429274;stroke-linecap:round;stroke-linejoin:round;stroke-miterlimit:4;stroke-opacity:1;stroke-dasharray:none;display:inline" />
    <rect
       y="553.3313"
       x="38.118908"
       height="17.318476"
       width="314.98645"
       id="rect5284-8-9-8-5"
       style="fill:none;stroke:#7e7e7e;stroke-width:0.55429274;stroke-linecap:round;stroke-linejoin:round;stroke-miterlimit:4;stroke-opacity:1;stroke-dasharray:none;display:inline" />
    <rect
       y="535.96497"
       x="38.216564"
       height="17.318476"
       width="314.98645"
       id="rect5284-80-1-2-6"
       style="fill:none;stroke:#7e7e7e;stroke-width:0.55429274;stroke-linecap:round;stroke-linejoin:round;stroke-miterlimit:4;stroke-opacity:1;stroke-dasharray:none;display:inline" />
    <rect
       y="518.59265"
       x="37.878429"
       height="17.318476"
       width="314.98645"
       id="rect5284-8-6-2-0-1"
       style="fill:none;stroke:#7e7e7e;stroke-width:0.55429274;stroke-linecap:round;stroke-linejoin:round;stroke-miterlimit:4;stroke-opacity:1;stroke-dasharray:none;display:inline" />
    <rect
       y="501.2558"
       x="38.976086"
       height="17.318476"
       width="314.98645"
       id="rect5284-8-69-0-0-4"
       style="fill:none;stroke:#7e7e7e;stroke-width:0.55429274;stroke-linecap:round;stroke-linejoin:round;stroke-miterlimit:4;stroke-opacity:1;stroke-dasharray:none;display:inline" />
    <rect
       y="483.88953"
       x="39.073681"
       height="17.318476"
       width="314.98645"
       id="rect5284-80-4-6-4-7"
       style="fill:none;stroke:#7e7e7e;stroke-width:0.55429274;stroke-linecap:round;stroke-linejoin:round;stroke-miterlimit:4;stroke-opacity:1;stroke-dasharray:none;display:inline" />
    <rect
       y="466.51727"
       x="38.735607"
       height="17.318476"
       width="314.98645"
       id="rect5284-8-6-5-5-7-8"
       style="fill:none;stroke:#7e7e7e;stroke-width:0.55429274;stroke-linecap:round;stroke-linejoin:round;stroke-miterlimit:4;stroke-opacity:1;stroke-dasharray:none;display:inline" />
    <rect
       y="449.06406"
       x="36.868908"
       height="17.318476"
       width="314.98645"
       id="rect5284-8-5-8-6"
       style="fill:none;stroke:#7e7e7e;stroke-width:0.55429274;stroke-linecap:round;stroke-linejoin:round;stroke-miterlimit:4;stroke-opacity:1;stroke-dasharray:none;display:inline" />
    <rect
       style="fill:none;stroke:#000000;stroke-width:3.65833187;stroke-miterlimit:4;stroke-opacity:1;stroke-dasharray:none;display:inline"
       width="315.46616"
       height="247.91399"
       x="36.947197"
       y="444.2655"
       id="rect5254" />
    <rect
       style="fill:#ffffff;fill-opacity:1;fill-rule:nonzero;stroke:#000000;stroke-width:0.25;stroke-linecap:round;stroke-linejoin:round;stroke-miterlimit:4;stroke-opacity:1;stroke-dasharray:none;display:inline"
       id="rect5728"
       width="137.88582"
       height="36.870567"
       x="47.709404"
       y="456.58411" />
    <path
       style="fill:none;stroke:#00ff00;stroke-width:1px;stroke-linecap:butt;stroke-linejoin:miter;stroke-opacity:1;display:inline"
       d="m 51.244938,473.25163 26.769043,0"
       id="path5718"
       inkscape:connector-curvature="0" />
    <text
       xml:space="preserve"
       style="font-size:40px;font-style:normal;font-variant:normal;font-weight:normal;font-stretch:normal;line-height:125%;letter-spacing:0px;word-spacing:0px;fill:#000000;fill-opacity:1;stroke:none;display:inline;font-family:TeXGyrePagella;-inkscape-font-specification:TeXGyrePagella"
       x="85.590126"
       y="470.22116"
       id="text5720"
       sodipodi:linespacing="125%"><tspan
         sodipodi:role="line"
         id="tspan5722"
         x="85.590126"
         y="470.22116"
         style="font-size:13px;fill:#000000;fill-opacity:1">Trajectòria </tspan><tspan
         sodipodi:role="line"
         x="85.590126"
         y="486.47116"
         id="tspan5724"
         style="font-size:13px;fill:#000000;fill-opacity:1">de demostració</tspan></text>
    <path
       style="fill:none;stroke:#ff33ff;stroke-width:0.77535909px;stroke-linecap:butt;stroke-linejoin:miter;stroke-opacity:1"
       d="m 352.34227,469.50504 -57.54168,0"
       id="path7161"
       inkscape:connector-curvature="0" />
    <text
       xml:space="preserve"
       style="font-size:40px;font-style:normal;font-variant:normal;font-weight:normal;font-stretch:normal;line-height:125%;letter-spacing:0px;word-spacing:0px;fill:#000000;fill-opacity:1;stroke:none;font-family:TeXGyrePagella;-inkscape-font-specification:TeXGyrePagella"
       x="326.42856"
       y="463.07648"
       id="text7174"
       sodipodi:linespacing="125%"><tspan
         sodipodi:role="line"
         id="tspan7176"
         x="326.42856"
         y="463.07648"
         style="font-size:11px">goal</tspan></text>
    <path
       style="fill:none;stroke:#ff33ff;stroke-width:0.77535909px;stroke-linecap:butt;stroke-linejoin:miter;stroke-opacity:1;display:inline"
       d="m 682.34227,469.37563 -57.54168,0"
       id="path7161-6"
       inkscape:connector-curvature="0" />
    <text
       xml:space="preserve"
       style="font-size:40px;font-style:normal;font-variant:normal;font-weight:normal;font-stretch:normal;line-height:125%;letter-spacing:0px;word-spacing:0px;fill:#000000;fill-opacity:1;stroke:none;display:inline;font-family:TeXGyrePagella;-inkscape-font-specification:TeXGyrePagella"
       x="656.42853"
       y="462.94705"
       id="text7174-7"
       sodipodi:linespacing="125%"><tspan
         sodipodi:role="line"
         id="tspan7176-6"
         x="656.42853"
         y="462.94705"
         style="font-size:11px">goal</tspan></text>
    <path
       style="fill:none;stroke:#ff33ff;stroke-width:0.77535909px;stroke-linecap:butt;stroke-linejoin:miter;stroke-opacity:1;display:inline"
       d="m 1012.3422,468.66134 -57.54161,0"
       id="path7161-3"
       inkscape:connector-curvature="0" />
    <text
       xml:space="preserve"
       style="font-size:40px;font-style:normal;font-variant:normal;font-weight:normal;font-stretch:normal;line-height:125%;letter-spacing:0px;word-spacing:0px;fill:#000000;fill-opacity:1;stroke:none;display:inline;font-family:TeXGyrePagella;-inkscape-font-specification:TeXGyrePagella"
       x="986.42853"
       y="462.23279"
       id="text7174-72"
       sodipodi:linespacing="125%"><tspan
         sodipodi:role="line"
         id="tspan7176-8"
         x="986.42853"
         y="462.23279"
         style="font-size:11px">goal</tspan></text>
    <path
       style="fill:none;stroke:#000000;stroke-width:1.5;stroke-linecap:butt;stroke-linejoin:miter;stroke-opacity:1;stroke-miterlimit:4;stroke-dasharray:none"
       d="M 36.428571,331.95162 352.85714,331.23734"
       id="path7251"
       inkscape:connector-curvature="0"
       transform="translate(0,308.2677)" />
    <path
       style="fill:none;stroke:#000000;stroke-width:1.5;stroke-linecap:butt;stroke-linejoin:miter;stroke-miterlimit:4;stroke-opacity:1;stroke-dasharray:none;display:inline"
       d="m 367.14286,640.71933 316.42857,-0.71428"
       id="path7251-9"
       inkscape:connector-curvature="0" />
    <path
       style="fill:none;stroke:#000000;stroke-width:1.5;stroke-linecap:butt;stroke-linejoin:miter;stroke-miterlimit:4;stroke-opacity:1;stroke-dasharray:none;display:inline"
       d="m 700,639.86217 316.4286,-0.71428"
       id="path7251-1"
       inkscape:connector-curvature="0" />
    <path
       sodipodi:type="star"
       style="fill:#000000;fill-opacity:1;fill-rule:nonzero;stroke:none"
       id="path7318"
       sodipodi:sides="3"
       sodipodi:cx="351.02802"
       sodipodi:cy="330.94208"
       sodipodi:r1="5.2000785"
       sodipodi:r2="2.6000392"
       sodipodi:arg1="-2.0778948"
       sodipodi:arg2="-1.0306973"
       inkscape:flatsided="false"
       inkscape:rounded="0"
       inkscape:randomized="0"
       d="m 348.50263,326.39639 3.86238,2.31574 3.86238,2.31575 -3.93668,2.18704 -3.93668,2.18705 0.0743,-4.50279 z"
       transform="translate(-4.0609153,308.2677)"
       inkscape:transform-center-x="-1.2626907"
       inkscape:transform-center-y="-0.042899406" />
    <text
       xml:space="preserve"
       style="font-size:40px;font-style:normal;font-variant:normal;font-weight:normal;font-stretch:normal;line-height:125%;letter-spacing:0px;word-spacing:0px;fill:#000000;fill-opacity:1;stroke:none;font-family:TeXGyrePagella;-inkscape-font-specification:TeXGyrePagella"
       x="343.95694"
       y="649.31128"
       id="text7320"
       sodipodi:linespacing="125%"><tspan
         sodipodi:role="line"
         id="tspan7322"
         x="343.95694"
         y="649.31128"
         style="font-size:11px">s</tspan></text>
    <text
       xml:space="preserve"
       style="font-size:40px;font-style:normal;font-variant:normal;font-weight:normal;font-stretch:normal;line-height:125%;letter-spacing:0px;word-spacing:0px;fill:#000000;fill-opacity:1;stroke:none;font-family:TeXGyrePagella;-inkscape-font-specification:TeXGyrePagella"
       x="329.18793"
       y="655.39252"
       id="text7324"
       sodipodi:linespacing="125%"><tspan
         sodipodi:role="line"
         id="tspan7326"
         x="329.18793"
         y="655.39252"
         style="font-size:9px">1</tspan></text>
    <path
       style="fill:none;stroke:#000000;stroke-width:0.98160273;stroke-linecap:butt;stroke-linejoin:miter;stroke-miterlimit:4;stroke-opacity:1;stroke-dasharray:0.98160272, 1.96320545;stroke-dashoffset:0"
       d="m 331.32084,468.98989 0.52347,166.69356"
       id="path7328"
       inkscape:connector-curvature="0" />
    <path
       style="fill:none;stroke:#000000;stroke-width:1px;stroke-linecap:butt;stroke-linejoin:miter;stroke-opacity:1"
       d="m 331.58897,635.66853 -0.0128,11.12314"
       id="path7330"
       inkscape:connector-curvature="0" />
    <path
       sodipodi:type="star"
       style="fill:#000000;fill-opacity:1;fill-rule:nonzero;stroke:none;display:inline"
       id="path7318-1"
       sodipodi:sides="3"
       sodipodi:cx="351.02802"
       sodipodi:cy="330.94208"
       sodipodi:r1="5.2000785"
       sodipodi:r2="2.6000392"
       sodipodi:arg1="-2.0778948"
       sodipodi:arg2="-1.0306973"
       inkscape:flatsided="false"
       inkscape:rounded="0"
       inkscape:randomized="0"
       d="m 348.50263,326.39639 3.86238,2.31574 3.86238,2.31575 -3.93668,2.18704 -3.93668,2.18705 0.0743,-4.50279 z"
       transform="translate(326.42045,309.02772)"
       inkscape:transform-center-x="-1.2626907"
       inkscape:transform-center-y="-0.042899406" />
    <text
       xml:space="preserve"
       style="font-size:40px;font-style:normal;font-variant:normal;font-weight:normal;font-stretch:normal;line-height:125%;letter-spacing:0px;word-spacing:0px;fill:#000000;fill-opacity:1;stroke:none;display:inline;font-family:TeXGyrePagella;-inkscape-font-specification:TeXGyrePagella"
       x="674.43829"
       y="650.07135"
       id="text7320-5"
       sodipodi:linespacing="125%"><tspan
         sodipodi:role="line"
         id="tspan7322-6"
         x="674.43829"
         y="650.07135"
         style="font-size:11px">s</tspan></text>
    <text
       xml:space="preserve"
       style="font-size:40px;font-style:normal;font-variant:normal;font-weight:normal;font-stretch:normal;line-height:125%;letter-spacing:0px;word-spacing:0px;fill:#000000;fill-opacity:1;stroke:none;display:inline;font-family:TeXGyrePagella;-inkscape-font-specification:TeXGyrePagella"
       x="659.66931"
       y="656.15259"
       id="text7324-9"
       sodipodi:linespacing="125%"><tspan
         sodipodi:role="line"
         id="tspan7326-8"
         x="659.66931"
         y="656.15259"
         style="font-size:9px">1</tspan></text>
    <path
       style="fill:none;stroke:#000000;stroke-width:0.98160273;stroke-linecap:butt;stroke-linejoin:miter;stroke-miterlimit:4;stroke-opacity:1;stroke-dasharray:0.98160272, 1.96320545;stroke-dashoffset:0;display:inline"
       d="m 661.80221,469.74991 0.52347,166.69356"
       id="path7328-1"
       inkscape:connector-curvature="0" />
    <path
       style="fill:none;stroke:#000000;stroke-width:1px;stroke-linecap:butt;stroke-linejoin:miter;stroke-opacity:1;display:inline"
       d="m 662.07034,636.42855 -0.0128,11.12314"
       id="path7330-2"
       inkscape:connector-curvature="0" />
    <path
       sodipodi:type="star"
       style="fill:#000000;fill-opacity:1;fill-rule:nonzero;stroke:none;display:inline"
       id="path7318-2"
       sodipodi:sides="3"
       sodipodi:cx="351.02802"
       sodipodi:cy="330.94208"
       sodipodi:r1="5.2000785"
       sodipodi:r2="2.6000392"
       sodipodi:arg1="-2.0778948"
       sodipodi:arg2="-1.0306973"
       inkscape:flatsided="false"
       inkscape:rounded="0"
       inkscape:randomized="0"
       d="m 348.50263,326.39639 3.86238,2.31574 3.86238,2.31575 -3.93668,2.18704 -3.93668,2.18705 0.0743,-4.50279 z"
       transform="translate(657.4919,307.95629)"
       inkscape:transform-center-x="-1.2626907"
       inkscape:transform-center-y="-0.042899406" />
    <text
       xml:space="preserve"
       style="font-size:40px;font-style:normal;font-variant:normal;font-weight:normal;font-stretch:normal;line-height:125%;letter-spacing:0px;word-spacing:0px;fill:#000000;fill-opacity:1;stroke:none;display:inline;font-family:TeXGyrePagella;-inkscape-font-specification:TeXGyrePagella"
       x="1005.5098"
       y="648.99988"
       id="text7320-8"
       sodipodi:linespacing="125%"><tspan
         sodipodi:role="line"
         id="tspan7322-3"
         x="1005.5098"
         y="648.99988"
         style="font-size:11px">s</tspan></text>
    <text
       xml:space="preserve"
       style="font-size:40px;font-style:normal;font-variant:normal;font-weight:normal;font-stretch:normal;line-height:125%;letter-spacing:0px;word-spacing:0px;fill:#000000;fill-opacity:1;stroke:none;display:inline;font-family:TeXGyrePagella;-inkscape-font-specification:TeXGyrePagella"
       x="990.74078"
       y="655.08112"
       id="text7324-3"
       sodipodi:linespacing="125%"><tspan
         sodipodi:role="line"
         id="tspan7326-5"
         x="990.74078"
         y="655.08112"
         style="font-size:9px">1</tspan></text>
    <path
       style="fill:none;stroke:#000000;stroke-width:0.98160273;stroke-linecap:butt;stroke-linejoin:miter;stroke-miterlimit:4;stroke-opacity:1;stroke-dasharray:0.98160272, 1.96320545;stroke-dashoffset:0;display:inline"
       d="m 992.87365,468.67848 0.52347,166.69356"
       id="path7328-17"
       inkscape:connector-curvature="0" />
    <path
       style="fill:none;stroke:#000000;stroke-width:1px;stroke-linecap:butt;stroke-linejoin:miter;stroke-opacity:1;display:inline"
       d="m 993.14178,635.35712 -0.0128,11.12314"
       id="path7330-9"
       inkscape:connector-curvature="0" />
    <path
       sodipodi:type="star"
       style="fill:#000000;fill-opacity:1;fill-rule:nonzero;stroke:none;display:inline"
       id="path7318-4"
       sodipodi:sides="3"
       sodipodi:cx="351.02802"
       sodipodi:cy="330.94208"
       sodipodi:r1="5.2000785"
       sodipodi:r2="2.6000392"
       sodipodi:arg1="-2.0778948"
       sodipodi:arg2="-1.0306973"
       inkscape:flatsided="false"
       inkscape:rounded="0"
       inkscape:randomized="0"
       d="m 348.50263,326.39639 3.86238,2.31574 3.86238,2.31575 -3.93668,2.18704 -3.93668,2.18705 0.0743,-4.50279 z"
       transform="matrix(-0.01193372,-0.99992879,0.99992879,-0.01193372,-289.78069,804.67997)"
       inkscape:transform-center-x="0.011874056"
       inkscape:transform-center-y="-1.28973" />
    <text
       xml:space="preserve"
       style="font-size:40px;font-style:normal;font-variant:normal;font-weight:normal;font-stretch:normal;line-height:125%;letter-spacing:0px;word-spacing:0px;fill:#000000;fill-opacity:1;stroke:none;display:inline;font-family:TeXGyrePagella;-inkscape-font-specification:TeXGyrePagella"
       x="30.382069"
       y="452.11078"
       id="text7320-2"
       sodipodi:linespacing="125%"
       transform="matrix(0.99996001,0.00894285,-0.00894285,0.99996001,0,0)"
       inkscape:transform-center-x="1.6964286"><tspan
         sodipodi:role="line"
         id="tspan7322-4"
         x="30.382069"
         y="452.11078"
         style="font-size:11px">x</tspan></text>
    <path
       sodipodi:type="star"
       style="fill:#000000;fill-opacity:1;fill-rule:nonzero;stroke:none;display:inline"
       id="path7318-4-2"
       sodipodi:sides="3"
       sodipodi:cx="351.02802"
       sodipodi:cy="330.94208"
       sodipodi:r1="5.2000785"
       sodipodi:r2="2.6000392"
       sodipodi:arg1="-2.0778948"
       sodipodi:arg2="-1.0306973"
       inkscape:flatsided="false"
       inkscape:rounded="0"
       inkscape:randomized="0"
       d="m 348.50263,326.39639 3.86238,2.31574 3.86238,2.31575 -3.93668,2.18704 -3.93668,2.18705 0.0743,-4.50279 z"
       transform="matrix(-0.01193372,-0.99992879,0.99992879,-0.01193372,41.2205,804.80528)"
       inkscape:transform-center-x="0.011874056"
       inkscape:transform-center-y="-1.28973" />
    <text
       xml:space="preserve"
       style="font-size:40px;font-style:normal;font-variant:normal;font-weight:normal;font-stretch:normal;line-height:125%;letter-spacing:0px;word-spacing:0px;fill:#000000;fill-opacity:1;stroke:none;display:inline;font-family:TeXGyrePagella;-inkscape-font-specification:TeXGyrePagella"
       x="361.37112"
       y="449.27597"
       id="text7320-2-6"
       sodipodi:linespacing="125%"
       transform="matrix(0.99996001,0.00894285,-0.00894285,0.99996001,0,0)"
       inkscape:transform-center-x="1.6964286"><tspan
         sodipodi:role="line"
         id="tspan7322-4-6"
         x="361.37112"
         y="449.27597"
         style="font-size:11px">x</tspan></text>
    <path
       sodipodi:type="star"
       style="fill:#000000;fill-opacity:1;fill-rule:nonzero;stroke:none;display:inline"
       id="path7318-4-1"
       sodipodi:sides="3"
       sodipodi:cx="351.02802"
       sodipodi:cy="330.94208"
       sodipodi:r1="5.2000785"
       sodipodi:r2="2.6000392"
       sodipodi:arg1="-2.0778948"
       sodipodi:arg2="-1.0306973"
       inkscape:flatsided="false"
       inkscape:rounded="0"
       inkscape:randomized="0"
       d="m 348.50263,326.39639 3.86238,2.31574 3.86238,2.31575 -3.93668,2.18704 -3.93668,2.18705 0.0743,-4.50279 z"
       transform="matrix(-0.01193372,-0.99992879,0.99992879,-0.01193372,372.11336,804.09099)"
       inkscape:transform-center-x="0.011874056"
       inkscape:transform-center-y="-1.28973" />
    <text
       xml:space="preserve"
       style="font-size:40px;font-style:normal;font-variant:normal;font-weight:normal;font-stretch:normal;line-height:125%;letter-spacing:0px;word-spacing:0px;fill:#000000;fill-opacity:1;stroke:none;display:inline;font-family:TeXGyrePagella;-inkscape-font-specification:TeXGyrePagella"
       x="692.24438"
       y="445.6026"
       id="text7320-2-3"
       sodipodi:linespacing="125%"
       transform="matrix(0.99996001,0.00894285,-0.00894285,0.99996001,0,0)"
       inkscape:transform-center-x="1.6964286"><tspan
         sodipodi:role="line"
         id="tspan7322-4-7"
         x="692.24438"
         y="445.6026"
         style="font-size:11px">x</tspan></text>
  </g>
</svg>
